STARTFONT 2.1
FONT -c-cnxt-medium-r-normal--20-200-72-72-c-100-ISO10646-1
SIZE 20 72 72
FONTBOUNDINGBOX 9 20 0 -4
STARTPROPERTIES 21
FAMILY_NAME "cnxt"
FOUNDRY "cons"
SETWIDTH_NAME "Normal"
ADD_STYLE_NAME ""
COPYRIGHT "Constantine Bitensky"
WEIGHT_NAME "Medium"
SLANT "R"
PIXEL_SIZE 20
POINT_SIZE 200
RESOLUTION_X 72
RESOLUTION_Y 72
SPACING "C"
AVERAGE_WIDTH 100
CHARSET_REGISTRY "ISO10646"
CHARSET_ENCODING "1"
MIN_SPACE 9
FONT_ASCENT 16
CAP_HEIGHT 13
X_HEIGHT 9
FONT_DESCENT 4
DEFAULT_CHAR 65533
ENDPROPERTIES
CHARS 3166
STARTCHAR U+0000
ENCODING 0
SWIDTH 450 0
DWIDTH 9 0
BBX 9 20 0 -4
BITMAP
0000
0000
0000
0000
0000
0000
0000
0000
0000
0000
0000
0000
0000
0000
0000
0000
0000
0000
0000
0000
ENDCHAR
STARTCHAR U+0020
ENCODING 32
SWIDTH 450 0
DWIDTH 9 0
BBX 9 20 0 -4
BITMAP
0000
0000
0000
0000
0000
0000
0000
0000
0000
0000
0000
0000
0000
0000
0000
0000
0000
0000
0000
0000
ENDCHAR
STARTCHAR U+0021
ENCODING 33
SWIDTH 450 0
DWIDTH 9 0
BBX 9 20 0 -4
BITMAP
0000
0000
0000
0800
0800
0800
0800
0800
0800
0800
0800
0800
0800
0000
0800
0800
0000
0000
0000
0000
ENDCHAR
STARTCHAR U+0022
ENCODING 34
SWIDTH 450 0
DWIDTH 9 0
BBX 9 20 0 -4
BITMAP
0000
0000
0000
2200
2200
2200
2200
0000
0000
0000
0000
0000
0000
0000
0000
0000
0000
0000
0000
0000
ENDCHAR
STARTCHAR U+0023
ENCODING 35
SWIDTH 450 0
DWIDTH 9 0
BBX 9 20 0 -4
BITMAP
0000
0000
0000
0000
0000
0000
1400
1400
1400
7F00
1400
1400
7F00
1400
1400
1400
0000
0000
0000
0000
ENDCHAR
STARTCHAR U+0024
ENCODING 36
SWIDTH 450 0
DWIDTH 9 0
BBX 9 20 0 -4
BITMAP
0000
0000
0800
1C00
2A00
4900
4800
4800
2800
1C00
0A00
0900
0900
4900
2A00
1C00
0800
0000
0000
0000
ENDCHAR
STARTCHAR U+0025
ENCODING 37
SWIDTH 450 0
DWIDTH 9 0
BBX 9 20 0 -4
BITMAP
0000
0000
0000
0000
1100
2900
2A00
1200
0400
0400
0800
0800
1200
1500
2500
2200
0000
0000
0000
0000
ENDCHAR
STARTCHAR U+0026
ENCODING 38
SWIDTH 450 0
DWIDTH 9 0
BBX 9 20 0 -4
BITMAP
0000
0000
0000
1800
2400
2400
2400
1800
1800
2800
2500
4500
4200
4200
2500
1900
0000
0000
0000
0000
ENDCHAR
STARTCHAR U+0027
ENCODING 39
SWIDTH 450 0
DWIDTH 9 0
BBX 9 20 0 -4
BITMAP
0000
0000
0000
0800
0800
0800
0800
0000
0000
0000
0000
0000
0000
0000
0000
0000
0000
0000
0000
0000
ENDCHAR
STARTCHAR U+0028
ENCODING 40
SWIDTH 450 0
DWIDTH 9 0
BBX 9 20 0 -4
BITMAP
0000
0000
0200
0400
0400
0400
0800
0800
0800
0800
0800
0800
0800
0400
0400
0400
0200
0000
0000
0000
ENDCHAR
STARTCHAR U+0029
ENCODING 41
SWIDTH 450 0
DWIDTH 9 0
BBX 9 20 0 -4
BITMAP
0000
0000
2000
1000
1000
1000
0800
0800
0800
0800
0800
0800
0800
1000
1000
1000
2000
0000
0000
0000
ENDCHAR
STARTCHAR U+002A
ENCODING 42
SWIDTH 450 0
DWIDTH 9 0
BBX 9 20 0 -4
BITMAP
0000
0000
0000
0000
0000
0000
0000
0000
2200
1400
0800
7F00
0800
1400
2200
0000
0000
0000
0000
0000
ENDCHAR
STARTCHAR U+002B
ENCODING 43
SWIDTH 450 0
DWIDTH 9 0
BBX 9 20 0 -4
BITMAP
0000
0000
0000
0000
0000
0000
0000
0000
0800
0800
0800
7F00
0800
0800
0800
0000
0000
0000
0000
0000
ENDCHAR
STARTCHAR U+002C
ENCODING 44
SWIDTH 450 0
DWIDTH 9 0
BBX 9 20 0 -4
BITMAP
0000
0000
0000
0000
0000
0000
0000
0000
0000
0000
0000
0000
0000
0000
0C00
0400
0800
0000
0000
0000
ENDCHAR
STARTCHAR U+002D
ENCODING 45
SWIDTH 450 0
DWIDTH 9 0
BBX 9 20 0 -4
BITMAP
0000
0000
0000
0000
0000
0000
0000
0000
0000
0000
0000
3E00
0000
0000
0000
0000
0000
0000
0000
0000
ENDCHAR
STARTCHAR U+002E
ENCODING 46
SWIDTH 450 0
DWIDTH 9 0
BBX 9 20 0 -4
BITMAP
0000
0000
0000
0000
0000
0000
0000
0000
0000
0000
0000
0000
0000
0000
0800
0800
0000
0000
0000
0000
ENDCHAR
STARTCHAR U+002F
ENCODING 47
SWIDTH 450 0
DWIDTH 9 0
BBX 9 20 0 -4
BITMAP
0000
0000
0000
0000
0100
0100
0200
0200
0400
0400
0800
0800
1000
1000
2000
2000
0000
0000
0000
0000
ENDCHAR
STARTCHAR U+0030
ENCODING 48
SWIDTH 450 0
DWIDTH 9 0
BBX 9 20 0 -4
BITMAP
0000
0000
0000
1C00
2200
4100
4100
4300
4500
4900
5100
6100
4100
4100
2200
1C00
0000
0000
0000
0000
ENDCHAR
STARTCHAR U+0031
ENCODING 49
SWIDTH 450 0
DWIDTH 9 0
BBX 9 20 0 -4
BITMAP
0000
0000
0000
0800
1800
2800
4800
0800
0800
0800
0800
0800
0800
0800
0800
0800
0000
0000
0000
0000
ENDCHAR
STARTCHAR U+0032
ENCODING 50
SWIDTH 450 0
DWIDTH 9 0
BBX 9 20 0 -4
BITMAP
0000
0000
0000
1C00
2200
4100
4100
0100
0100
0200
0400
0800
1000
2000
4000
7F00
0000
0000
0000
0000
ENDCHAR
STARTCHAR U+0033
ENCODING 51
SWIDTH 450 0
DWIDTH 9 0
BBX 9 20 0 -4
BITMAP
0000
0000
0000
1C00
2200
4100
0100
0100
0200
1C00
0200
0100
0100
4100
2200
1C00
0000
0000
0000
0000
ENDCHAR
STARTCHAR U+0034
ENCODING 52
SWIDTH 450 0
DWIDTH 9 0
BBX 9 20 0 -4
BITMAP
0000
0000
0000
0400
0400
0800
0800
1000
1000
2200
2200
4200
4200
7F00
0200
0200
0000
0000
0000
0000
ENDCHAR
STARTCHAR U+0035
ENCODING 53
SWIDTH 450 0
DWIDTH 9 0
BBX 9 20 0 -4
BITMAP
0000
0000
0000
7F00
4000
4000
4000
4000
7C00
0200
0100
0100
0100
4100
2200
1C00
0000
0000
0000
0000
ENDCHAR
STARTCHAR U+0036
ENCODING 54
SWIDTH 450 0
DWIDTH 9 0
BBX 9 20 0 -4
BITMAP
0000
0000
0000
0E00
1000
2000
2000
4000
5C00
6200
4100
4100
4100
4100
2200
1C00
0000
0000
0000
0000
ENDCHAR
STARTCHAR U+0037
ENCODING 55
SWIDTH 450 0
DWIDTH 9 0
BBX 9 20 0 -4
BITMAP
0000
0000
0000
7F00
0100
0100
0100
0200
0200
0200
0400
0400
0400
0800
0800
0800
0000
0000
0000
0000
ENDCHAR
STARTCHAR U+0038
ENCODING 56
SWIDTH 450 0
DWIDTH 9 0
BBX 9 20 0 -4
BITMAP
0000
0000
0000
1C00
2200
4100
4100
4100
2200
1C00
2200
4100
4100
4100
2200
1C00
0000
0000
0000
0000
ENDCHAR
STARTCHAR U+0039
ENCODING 57
SWIDTH 450 0
DWIDTH 9 0
BBX 9 20 0 -4
BITMAP
0000
0000
0000
1C00
2200
4100
4100
4100
4100
2300
1D00
0100
0200
0200
0400
3800
0000
0000
0000
0000
ENDCHAR
STARTCHAR U+003A
ENCODING 58
SWIDTH 450 0
DWIDTH 9 0
BBX 9 20 0 -4
BITMAP
0000
0000
0000
0000
0000
0000
0000
0800
0800
0000
0000
0000
0000
0000
0800
0800
0000
0000
0000
0000
ENDCHAR
STARTCHAR U+003B
ENCODING 59
SWIDTH 450 0
DWIDTH 9 0
BBX 9 20 0 -4
BITMAP
0000
0000
0000
0000
0000
0000
0000
0800
0800
0000
0000
0000
0000
0000
0800
0800
1000
0000
0000
0000
ENDCHAR
STARTCHAR U+003C
ENCODING 60
SWIDTH 450 0
DWIDTH 9 0
BBX 9 20 0 -4
BITMAP
0000
0000
0000
0000
0000
0000
0000
0200
0400
0800
1000
2000
1000
0800
0400
0200
0000
0000
0000
0000
ENDCHAR
STARTCHAR U+003D
ENCODING 61
SWIDTH 450 0
DWIDTH 9 0
BBX 9 20 0 -4
BITMAP
0000
0000
0000
0000
0000
0000
0000
0000
0000
7F00
0000
0000
0000
7F00
0000
0000
0000
0000
0000
0000
ENDCHAR
STARTCHAR U+003E
ENCODING 62
SWIDTH 450 0
DWIDTH 9 0
BBX 9 20 0 -4
BITMAP
0000
0000
0000
0000
0000
0000
0000
2000
1000
0800
0400
0200
0400
0800
1000
2000
0000
0000
0000
0000
ENDCHAR
STARTCHAR U+003F
ENCODING 63
SWIDTH 450 0
DWIDTH 9 0
BBX 9 20 0 -4
BITMAP
0000
0000
0000
1C00
2200
4100
4100
0100
0200
0400
0800
0800
0800
0000
0800
0800
0000
0000
0000
0000
ENDCHAR
STARTCHAR U+0040
ENCODING 64
SWIDTH 450 0
DWIDTH 9 0
BBX 9 20 0 -4
BITMAP
0000
0000
0000
0000
1C00
2200
4100
4D00
5300
5100
5100
5300
4D00
4000
2100
1E00
0000
0000
0000
0000
ENDCHAR
STARTCHAR U+0041
ENCODING 65
SWIDTH 450 0
DWIDTH 9 0
BBX 9 20 0 -4
BITMAP
0000
0000
0000
0800
0800
1400
1400
1400
2200
2200
2200
2200
7F00
4100
4100
4100
0000
0000
0000
0000
ENDCHAR
STARTCHAR U+0042
ENCODING 66
SWIDTH 450 0
DWIDTH 9 0
BBX 9 20 0 -4
BITMAP
0000
0000
0000
7C00
4200
4100
4100
4200
7C00
4200
4100
4100
4100
4100
4200
7C00
0000
0000
0000
0000
ENDCHAR
STARTCHAR U+0043
ENCODING 67
SWIDTH 450 0
DWIDTH 9 0
BBX 9 20 0 -4
BITMAP
0000
0000
0000
1C00
2200
4100
4000
4000
4000
4000
4000
4000
4000
4100
2200
1C00
0000
0000
0000
0000
ENDCHAR
STARTCHAR U+0044
ENCODING 68
SWIDTH 450 0
DWIDTH 9 0
BBX 9 20 0 -4
BITMAP
0000
0000
0000
7C00
4200
4100
4100
4100
4100
4100
4100
4100
4100
4100
4200
7C00
0000
0000
0000
0000
ENDCHAR
STARTCHAR U+0045
ENCODING 69
SWIDTH 450 0
DWIDTH 9 0
BBX 9 20 0 -4
BITMAP
0000
0000
0000
7F00
4000
4000
4000
4000
4000
7C00
4000
4000
4000
4000
4000
7F00
0000
0000
0000
0000
ENDCHAR
STARTCHAR U+0046
ENCODING 70
SWIDTH 450 0
DWIDTH 9 0
BBX 9 20 0 -4
BITMAP
0000
0000
0000
7F00
4000
4000
4000
4000
4000
7C00
4000
4000
4000
4000
4000
4000
0000
0000
0000
0000
ENDCHAR
STARTCHAR U+0047
ENCODING 71
SWIDTH 450 0
DWIDTH 9 0
BBX 9 20 0 -4
BITMAP
0000
0000
0000
1C00
2200
4100
4000
4000
4000
4000
4700
4100
4100
4100
2300
1D00
0000
0000
0000
0000
ENDCHAR
STARTCHAR U+0048
ENCODING 72
SWIDTH 450 0
DWIDTH 9 0
BBX 9 20 0 -4
BITMAP
0000
0000
0000
4100
4100
4100
4100
4100
4100
7F00
4100
4100
4100
4100
4100
4100
0000
0000
0000
0000
ENDCHAR
STARTCHAR U+0049
ENCODING 73
SWIDTH 450 0
DWIDTH 9 0
BBX 9 20 0 -4
BITMAP
0000
0000
0000
1C00
0800
0800
0800
0800
0800
0800
0800
0800
0800
0800
0800
1C00
0000
0000
0000
0000
ENDCHAR
STARTCHAR U+004A
ENCODING 74
SWIDTH 450 0
DWIDTH 9 0
BBX 9 20 0 -4
BITMAP
0000
0000
0000
0100
0100
0100
0100
0100
0100
0100
0100
0100
0100
4100
2200
1C00
0000
0000
0000
0000
ENDCHAR
STARTCHAR U+004B
ENCODING 75
SWIDTH 450 0
DWIDTH 9 0
BBX 9 20 0 -4
BITMAP
0000
0000
0000
4100
4100
4200
4400
4800
5000
6000
5000
4800
4400
4200
4100
4100
0000
0000
0000
0000
ENDCHAR
STARTCHAR U+004C
ENCODING 76
SWIDTH 450 0
DWIDTH 9 0
BBX 9 20 0 -4
BITMAP
0000
0000
0000
4000
4000
4000
4000
4000
4000
4000
4000
4000
4000
4000
4000
7F00
0000
0000
0000
0000
ENDCHAR
STARTCHAR U+004D
ENCODING 77
SWIDTH 450 0
DWIDTH 9 0
BBX 9 20 0 -4
BITMAP
0000
0000
0000
4100
4100
6300
6300
5500
5500
4900
4900
4100
4100
4100
4100
4100
0000
0000
0000
0000
ENDCHAR
STARTCHAR U+004E
ENCODING 78
SWIDTH 450 0
DWIDTH 9 0
BBX 9 20 0 -4
BITMAP
0000
0000
0000
4100
4100
6100
6100
5100
5100
4900
4900
4500
4500
4300
4300
4100
0000
0000
0000
0000
ENDCHAR
STARTCHAR U+004F
ENCODING 79
SWIDTH 450 0
DWIDTH 9 0
BBX 9 20 0 -4
BITMAP
0000
0000
0000
1C00
2200
4100
4100
4100
4100
4100
4100
4100
4100
4100
2200
1C00
0000
0000
0000
0000
ENDCHAR
STARTCHAR U+0050
ENCODING 80
SWIDTH 450 0
DWIDTH 9 0
BBX 9 20 0 -4
BITMAP
0000
0000
0000
7C00
4200
4100
4100
4100
4100
4200
7C00
4000
4000
4000
4000
4000
0000
0000
0000
0000
ENDCHAR
STARTCHAR U+0051
ENCODING 81
SWIDTH 450 0
DWIDTH 9 0
BBX 9 20 0 -4
BITMAP
0000
0000
0000
1C00
2200
4100
4100
4100
4100
4100
4100
4100
4100
4500
2200
1D00
0000
0000
0000
0000
ENDCHAR
STARTCHAR U+0052
ENCODING 82
SWIDTH 450 0
DWIDTH 9 0
BBX 9 20 0 -4
BITMAP
0000
0000
0000
7C00
4200
4100
4100
4100
4100
4200
7C00
4400
4200
4200
4100
4100
0000
0000
0000
0000
ENDCHAR
STARTCHAR U+0053
ENCODING 83
SWIDTH 450 0
DWIDTH 9 0
BBX 9 20 0 -4
BITMAP
0000
0000
0000
1C00
2200
4100
4000
4000
2000
1C00
0200
0100
0100
4100
2200
1C00
0000
0000
0000
0000
ENDCHAR
STARTCHAR U+0054
ENCODING 84
SWIDTH 450 0
DWIDTH 9 0
BBX 9 20 0 -4
BITMAP
0000
0000
0000
7F00
0800
0800
0800
0800
0800
0800
0800
0800
0800
0800
0800
0800
0000
0000
0000
0000
ENDCHAR
STARTCHAR U+0055
ENCODING 85
SWIDTH 450 0
DWIDTH 9 0
BBX 9 20 0 -4
BITMAP
0000
0000
0000
4100
4100
4100
4100
4100
4100
4100
4100
4100
4100
4100
2200
1C00
0000
0000
0000
0000
ENDCHAR
STARTCHAR U+0056
ENCODING 86
SWIDTH 450 0
DWIDTH 9 0
BBX 9 20 0 -4
BITMAP
0000
0000
0000
4100
4100
4100
4100
2200
2200
2200
2200
1400
1400
1400
0800
0800
0000
0000
0000
0000
ENDCHAR
STARTCHAR U+0057
ENCODING 87
SWIDTH 450 0
DWIDTH 9 0
BBX 9 20 0 -4
BITMAP
0000
0000
0000
8880
8880
8880
8880
8880
5500
5500
5500
5500
2200
2200
2200
2200
0000
0000
0000
0000
ENDCHAR
STARTCHAR U+0058
ENCODING 88
SWIDTH 450 0
DWIDTH 9 0
BBX 9 20 0 -4
BITMAP
0000
0000
0000
4100
4100
2200
2200
1400
1400
0800
1400
1400
2200
2200
4100
4100
0000
0000
0000
0000
ENDCHAR
STARTCHAR U+0059
ENCODING 89
SWIDTH 450 0
DWIDTH 9 0
BBX 9 20 0 -4
BITMAP
0000
0000
0000
4100
4100
2200
2200
1400
1400
0800
0800
0800
0800
0800
0800
0800
0000
0000
0000
0000
ENDCHAR
STARTCHAR U+005A
ENCODING 90
SWIDTH 450 0
DWIDTH 9 0
BBX 9 20 0 -4
BITMAP
0000
0000
0000
7F00
0100
0100
0100
0200
0400
0800
1000
2000
4000
4000
4000
7F00
0000
0000
0000
0000
ENDCHAR
STARTCHAR U+005B
ENCODING 91
SWIDTH 450 0
DWIDTH 9 0
BBX 9 20 0 -4
BITMAP
0000
0000
0E00
0800
0800
0800
0800
0800
0800
0800
0800
0800
0800
0800
0800
0800
0E00
0000
0000
0000
ENDCHAR
STARTCHAR U+005C
ENCODING 92
SWIDTH 450 0
DWIDTH 9 0
BBX 9 20 0 -4
BITMAP
0000
0000
0000
0000
2000
2000
1000
1000
0800
0800
0400
0400
0200
0200
0100
0100
0000
0000
0000
0000
ENDCHAR
STARTCHAR U+005D
ENCODING 93
SWIDTH 450 0
DWIDTH 9 0
BBX 9 20 0 -4
BITMAP
0000
0000
3800
0800
0800
0800
0800
0800
0800
0800
0800
0800
0800
0800
0800
0800
3800
0000
0000
0000
ENDCHAR
STARTCHAR U+005E
ENCODING 94
SWIDTH 450 0
DWIDTH 9 0
BBX 9 20 0 -4
BITMAP
0000
0000
0000
0800
1400
2200
4100
0000
0000
0000
0000
0000
0000
0000
0000
0000
0000
0000
0000
0000
ENDCHAR
STARTCHAR U+005F
ENCODING 95
SWIDTH 450 0
DWIDTH 9 0
BBX 9 20 0 -4
BITMAP
0000
0000
0000
0000
0000
0000
0000
0000
0000
0000
0000
0000
0000
0000
0000
7F00
0000
0000
0000
0000
ENDCHAR
STARTCHAR U+0060
ENCODING 96
SWIDTH 450 0
DWIDTH 9 0
BBX 9 20 0 -4
BITMAP
0000
0000
0000
1000
0800
0400
0000
0000
0000
0000
0000
0000
0000
0000
0000
0000
0000
0000
0000
0000
ENDCHAR
STARTCHAR U+0061
ENCODING 97
SWIDTH 450 0
DWIDTH 9 0
BBX 9 20 0 -4
BITMAP
0000
0000
0000
0000
0000
0000
0000
1E00
2100
0100
1F00
2100
4100
4100
2300
1D00
0000
0000
0000
0000
ENDCHAR
STARTCHAR U+0062
ENCODING 98
SWIDTH 450 0
DWIDTH 9 0
BBX 9 20 0 -4
BITMAP
0000
0000
0000
4000
4000
4000
4000
5C00
6200
4100
4100
4100
4100
4100
6200
5C00
0000
0000
0000
0000
ENDCHAR
STARTCHAR U+0063
ENCODING 99
SWIDTH 450 0
DWIDTH 9 0
BBX 9 20 0 -4
BITMAP
0000
0000
0000
0000
0000
0000
0000
1E00
2100
4000
4000
4000
4000
4000
2100
1E00
0000
0000
0000
0000
ENDCHAR
STARTCHAR U+0064
ENCODING 100
SWIDTH 450 0
DWIDTH 9 0
BBX 9 20 0 -4
BITMAP
0000
0000
0000
0100
0100
0100
0100
1D00
2300
4100
4100
4100
4100
4100
2300
1D00
0000
0000
0000
0000
ENDCHAR
STARTCHAR U+0065
ENCODING 101
SWIDTH 450 0
DWIDTH 9 0
BBX 9 20 0 -4
BITMAP
0000
0000
0000
0000
0000
0000
0000
1C00
2200
4100
4100
7F00
4000
4000
2100
1E00
0000
0000
0000
0000
ENDCHAR
STARTCHAR U+0066
ENCODING 102
SWIDTH 450 0
DWIDTH 9 0
BBX 9 20 0 -4
BITMAP
0000
0000
0000
0700
0800
0800
0800
3E00
0800
0800
0800
0800
0800
0800
0800
0800
0000
0000
0000
0000
ENDCHAR
STARTCHAR U+0067
ENCODING 103
SWIDTH 450 0
DWIDTH 9 0
BBX 9 20 0 -4
BITMAP
0000
0000
0000
0000
0000
0000
0000
1D00
2300
4100
4100
4100
4100
4100
2300
1D00
0100
0100
4200
3C00
ENDCHAR
STARTCHAR U+0068
ENCODING 104
SWIDTH 450 0
DWIDTH 9 0
BBX 9 20 0 -4
BITMAP
0000
0000
0000
4000
4000
4000
4000
5C00
6200
4100
4100
4100
4100
4100
4100
4100
0000
0000
0000
0000
ENDCHAR
STARTCHAR U+0069
ENCODING 105
SWIDTH 450 0
DWIDTH 9 0
BBX 9 20 0 -4
BITMAP
0000
0000
0000
0000
0800
0800
0000
1800
0800
0800
0800
0800
0800
0800
0800
0800
0000
0000
0000
0000
ENDCHAR
STARTCHAR U+006A
ENCODING 106
SWIDTH 450 0
DWIDTH 9 0
BBX 9 20 0 -4
BITMAP
0000
0000
0000
0000
0800
0800
0000
0800
0800
0800
0800
0800
0800
0800
0800
0800
0800
0800
7000
0000
ENDCHAR
STARTCHAR U+006B
ENCODING 107
SWIDTH 450 0
DWIDTH 9 0
BBX 9 20 0 -4
BITMAP
0000
0000
0000
4000
4000
4000
4000
4100
4200
4400
4800
7000
4800
4400
4200
4100
0000
0000
0000
0000
ENDCHAR
STARTCHAR U+006C
ENCODING 108
SWIDTH 450 0
DWIDTH 9 0
BBX 9 20 0 -4
BITMAP
0000
0000
0000
1800
0800
0800
0800
0800
0800
0800
0800
0800
0800
0800
0800
0600
0000
0000
0000
0000
ENDCHAR
STARTCHAR U+006D
ENCODING 109
SWIDTH 450 0
DWIDTH 9 0
BBX 9 20 0 -4
BITMAP
0000
0000
0000
0000
0000
0000
0000
7600
4900
4900
4900
4900
4900
4900
4900
4900
0000
0000
0000
0000
ENDCHAR
STARTCHAR U+006E
ENCODING 110
SWIDTH 450 0
DWIDTH 9 0
BBX 9 20 0 -4
BITMAP
0000
0000
0000
0000
0000
0000
0000
5C00
6200
4100
4100
4100
4100
4100
4100
4100
0000
0000
0000
0000
ENDCHAR
STARTCHAR U+006F
ENCODING 111
SWIDTH 450 0
DWIDTH 9 0
BBX 9 20 0 -4
BITMAP
0000
0000
0000
0000
0000
0000
0000
1C00
2200
4100
4100
4100
4100
4100
2200
1C00
0000
0000
0000
0000
ENDCHAR
STARTCHAR U+0070
ENCODING 112
SWIDTH 450 0
DWIDTH 9 0
BBX 9 20 0 -4
BITMAP
0000
0000
0000
0000
0000
0000
0000
5C00
6200
4100
4100
4100
4100
4100
6200
5C00
4000
4000
4000
0000
ENDCHAR
STARTCHAR U+0071
ENCODING 113
SWIDTH 450 0
DWIDTH 9 0
BBX 9 20 0 -4
BITMAP
0000
0000
0000
0000
0000
0000
0000
1D00
2300
4100
4100
4100
4100
4100
2300
1D00
0100
0100
0100
0000
ENDCHAR
STARTCHAR U+0072
ENCODING 114
SWIDTH 450 0
DWIDTH 9 0
BBX 9 20 0 -4
BITMAP
0000
0000
0000
0000
0000
0000
0000
4E00
5100
6000
4000
4000
4000
4000
4000
4000
0000
0000
0000
0000
ENDCHAR
STARTCHAR U+0073
ENCODING 115
SWIDTH 450 0
DWIDTH 9 0
BBX 9 20 0 -4
BITMAP
0000
0000
0000
0000
0000
0000
0000
3E00
4100
4000
4000
3E00
0100
0100
4100
3E00
0000
0000
0000
0000
ENDCHAR
STARTCHAR U+0074
ENCODING 116
SWIDTH 450 0
DWIDTH 9 0
BBX 9 20 0 -4
BITMAP
0000
0000
0000
0000
0000
0800
0800
3E00
0800
0800
0800
0800
0800
0800
0800
0700
0000
0000
0000
0000
ENDCHAR
STARTCHAR U+0075
ENCODING 117
SWIDTH 450 0
DWIDTH 9 0
BBX 9 20 0 -4
BITMAP
0000
0000
0000
0000
0000
0000
0000
4100
4100
4100
4100
4100
4100
4100
2300
1D00
0000
0000
0000
0000
ENDCHAR
STARTCHAR U+0076
ENCODING 118
SWIDTH 450 0
DWIDTH 9 0
BBX 9 20 0 -4
BITMAP
0000
0000
0000
0000
0000
0000
0000
4100
4100
4100
2200
2200
1400
1400
0800
0800
0000
0000
0000
0000
ENDCHAR
STARTCHAR U+0077
ENCODING 119
SWIDTH 450 0
DWIDTH 9 0
BBX 9 20 0 -4
BITMAP
0000
0000
0000
0000
0000
0000
0000
4100
4900
4900
4900
5500
5500
2200
2200
2200
0000
0000
0000
0000
ENDCHAR
STARTCHAR U+0078
ENCODING 120
SWIDTH 450 0
DWIDTH 9 0
BBX 9 20 0 -4
BITMAP
0000
0000
0000
0000
0000
0000
0000
4100
4100
2200
1400
0800
1400
2200
4100
4100
0000
0000
0000
0000
ENDCHAR
STARTCHAR U+0079
ENCODING 121
SWIDTH 450 0
DWIDTH 9 0
BBX 9 20 0 -4
BITMAP
0000
0000
0000
0000
0000
0000
0000
4100
4100
4100
2200
2200
1400
1400
0800
0800
1000
1000
6000
0000
ENDCHAR
STARTCHAR U+007A
ENCODING 122
SWIDTH 450 0
DWIDTH 9 0
BBX 9 20 0 -4
BITMAP
0000
0000
0000
0000
0000
0000
0000
7F00
0100
0200
0400
0800
1000
2000
4000
7F00
0000
0000
0000
0000
ENDCHAR
STARTCHAR U+007B
ENCODING 123
SWIDTH 450 0
DWIDTH 9 0
BBX 9 20 0 -4
BITMAP
0000
0000
0400
0800
0800
0800
0800
0800
0800
1000
0800
0800
0800
0800
0800
0800
0400
0000
0000
0000
ENDCHAR
STARTCHAR U+007C
ENCODING 124
SWIDTH 450 0
DWIDTH 9 0
BBX 9 20 0 -4
BITMAP
0000
0000
0000
0800
0800
0800
0800
0800
0800
0800
0800
0800
0800
0800
0800
0800
0000
0000
0000
0000
ENDCHAR
STARTCHAR U+007D
ENCODING 125
SWIDTH 450 0
DWIDTH 9 0
BBX 9 20 0 -4
BITMAP
0000
0000
1000
0800
0800
0800
0800
0800
0800
0400
0800
0800
0800
0800
0800
0800
1000
0000
0000
0000
ENDCHAR
STARTCHAR U+007E
ENCODING 126
SWIDTH 450 0
DWIDTH 9 0
BBX 9 20 0 -4
BITMAP
0000
0000
0000
0000
0000
0000
0000
0000
0000
0000
3000
4900
0600
0000
0000
0000
0000
0000
0000
0000
ENDCHAR
STARTCHAR U+00A0
ENCODING 160
SWIDTH 450 0
DWIDTH 9 0
BBX 9 20 0 -4
BITMAP
0000
0000
0000
0000
0000
0000
0000
0000
0000
0000
0000
0000
0000
0000
0000
0000
0000
0000
0000
0000
ENDCHAR
STARTCHAR U+00A1
ENCODING 161
SWIDTH 450 0
DWIDTH 9 0
BBX 9 20 0 -4
BITMAP
0000
0000
0000
0800
0800
0000
0800
0800
0800
0800
0800
0800
0800
0800
0800
0800
0000
0000
0000
0000
ENDCHAR
STARTCHAR U+00A2
ENCODING 162
SWIDTH 450 0
DWIDTH 9 0
BBX 9 20 0 -4
BITMAP
0000
0000
0000
0000
0000
0000
0800
1E00
2900
4800
4800
4800
4800
4800
2900
1E00
0800
0000
0000
0000
ENDCHAR
STARTCHAR U+00A3
ENCODING 163
SWIDTH 450 0
DWIDTH 9 0
BBX 9 20 0 -4
BITMAP
0000
0000
0000
0E00
1100
2000
2000
2000
2000
7E00
2000
2000
2000
2000
2100
7E00
0000
0000
0000
0000
ENDCHAR
STARTCHAR U+00A4
ENCODING 164
SWIDTH 450 0
DWIDTH 9 0
BBX 9 20 0 -4
BITMAP
0000
0000
0000
0000
0000
0000
0000
0000
8100
5A00
2400
4200
4200
2400
5A00
8100
0000
0000
0000
0000
ENDCHAR
STARTCHAR U+00A5
ENCODING 165
SWIDTH 450 0
DWIDTH 9 0
BBX 9 20 0 -4
BITMAP
0000
0000
0000
4100
4100
2200
2200
1400
1400
0800
0800
3E00
0800
3E00
0800
0800
0000
0000
0000
0000
ENDCHAR
STARTCHAR U+00A6
ENCODING 166
SWIDTH 450 0
DWIDTH 9 0
BBX 9 20 0 -4
BITMAP
0000
0000
0000
0800
0800
0800
0800
0800
0800
0000
0800
0800
0800
0800
0800
0800
0000
0000
0000
0000
ENDCHAR
STARTCHAR U+00A7
ENCODING 167
SWIDTH 450 0
DWIDTH 9 0
BBX 9 20 0 -4
BITMAP
0000
0000
0000
1E00
2100
2000
1000
0C00
1200
2100
1200
0C00
0200
0100
2100
1E00
0000
0000
0000
0000
ENDCHAR
STARTCHAR U+00A8
ENCODING 168
SWIDTH 450 0
DWIDTH 9 0
BBX 9 20 0 -4
BITMAP
2200
2200
0000
0000
0000
0000
0000
0000
0000
0000
0000
0000
0000
0000
0000
0000
0000
0000
0000
0000
ENDCHAR
STARTCHAR U+00A9
ENCODING 169
SWIDTH 450 0
DWIDTH 9 0
BBX 9 20 0 -4
BITMAP
0000
0000
0000
0000
0000
0000
0000
3E00
4100
9C80
A280
A080
A280
9C80
4100
3E00
0000
0000
0000
0000
ENDCHAR
STARTCHAR U+00AA
ENCODING 170
SWIDTH 450 0
DWIDTH 9 0
BBX 9 20 0 -4
BITMAP
0000
0000
1C00
0200
1E00
2200
1E00
0000
3E00
0000
0000
0000
0000
0000
0000
0000
0000
0000
0000
0000
ENDCHAR
STARTCHAR U+00AB
ENCODING 171
SWIDTH 450 0
DWIDTH 9 0
BBX 9 20 0 -4
BITMAP
0000
0000
0000
0000
0000
0000
0000
0000
0900
1200
2400
4800
2400
1200
0900
0000
0000
0000
0000
0000
ENDCHAR
STARTCHAR U+00AC
ENCODING 172
SWIDTH 450 0
DWIDTH 9 0
BBX 9 20 0 -4
BITMAP
0000
0000
0000
0000
0000
0000
0000
0000
0000
0000
0000
7F00
0100
0100
0000
0000
0000
0000
0000
0000
ENDCHAR
STARTCHAR U+00AD
ENCODING 173
SWIDTH 450 0
DWIDTH 9 0
BBX 9 20 0 -4
BITMAP
0000
0000
0000
0000
0000
0000
0000
0000
0000
0000
0000
1C00
0000
0000
0000
0000
0000
0000
0000
0000
ENDCHAR
STARTCHAR U+00AE
ENCODING 174
SWIDTH 450 0
DWIDTH 9 0
BBX 9 20 0 -4
BITMAP
0000
0000
0000
0000
0000
0000
0000
3E00
4100
9C80
9280
9C80
9480
9280
4100
3E00
0000
0000
0000
0000
ENDCHAR
STARTCHAR U+00AF
ENCODING 175
SWIDTH 450 0
DWIDTH 9 0
BBX 9 20 0 -4
BITMAP
0000
3E00
0000
0000
0000
0000
0000
0000
0000
0000
0000
0000
0000
0000
0000
0000
0000
0000
0000
0000
ENDCHAR
STARTCHAR U+00B0
ENCODING 176
SWIDTH 450 0
DWIDTH 9 0
BBX 9 20 0 -4
BITMAP
0000
0000
0000
1C00
2200
2200
2200
1C00
0000
0000
0000
0000
0000
0000
0000
0000
0000
0000
0000
0000
ENDCHAR
STARTCHAR U+00B1
ENCODING 177
SWIDTH 450 0
DWIDTH 9 0
BBX 9 20 0 -4
BITMAP
0000
0000
0000
0000
0000
0000
0000
0800
0800
0800
7F00
0800
0800
0800
0000
7F00
0000
0000
0000
0000
ENDCHAR
STARTCHAR U+00B2
ENCODING 178
SWIDTH 450 0
DWIDTH 9 0
BBX 9 20 0 -4
BITMAP
0000
0000
1C00
2200
0200
0400
0800
1000
3E00
0000
0000
0000
0000
0000
0000
0000
0000
0000
0000
0000
ENDCHAR
STARTCHAR U+00B3
ENCODING 179
SWIDTH 450 0
DWIDTH 9 0
BBX 9 20 0 -4
BITMAP
0000
0000
1C00
2200
0200
0C00
0200
2200
1C00
0000
0000
0000
0000
0000
0000
0000
0000
0000
0000
0000
ENDCHAR
STARTCHAR U+00B4
ENCODING 180
SWIDTH 450 0
DWIDTH 9 0
BBX 9 20 0 -4
BITMAP
0000
0000
0000
0400
0800
1000
0000
0000
0000
0000
0000
0000
0000
0000
0000
0000
0000
0000
0000
0000
ENDCHAR
STARTCHAR U+00B5
ENCODING 181
SWIDTH 450 0
DWIDTH 9 0
BBX 9 20 0 -4
BITMAP
0000
0000
0000
0000
0000
0000
0000
4100
4100
4100
4100
4100
4100
4100
6300
5C80
4000
4000
4000
0000
ENDCHAR
STARTCHAR U+00B6
ENCODING 182
SWIDTH 450 0
DWIDTH 9 0
BBX 9 20 0 -4
BITMAP
0000
0000
0000
3E00
7A00
7A00
7A00
3A00
0A00
0A00
0A00
0A00
0A00
0A00
0A00
0A00
0000
0000
0000
0000
ENDCHAR
STARTCHAR U+00B7
ENCODING 183
SWIDTH 450 0
DWIDTH 9 0
BBX 9 20 0 -4
BITMAP
0000
0000
0000
0000
0000
0000
0000
0000
0000
0000
0800
0800
0000
0000
0000
0000
0000
0000
0000
0000
ENDCHAR
STARTCHAR U+00B8
ENCODING 184
SWIDTH 450 0
DWIDTH 9 0
BBX 9 20 0 -4
BITMAP
0000
0000
0000
0000
0000
0000
0000
0000
0000
0000
0000
0000
0000
0000
0000
0000
0800
0400
1800
0000
ENDCHAR
STARTCHAR U+00B9
ENCODING 185
SWIDTH 450 0
DWIDTH 9 0
BBX 9 20 0 -4
BITMAP
0000
0000
0800
1800
2800
0800
0800
0800
0800
0000
0000
0000
0000
0000
0000
0000
0000
0000
0000
0000
ENDCHAR
STARTCHAR U+00BA
ENCODING 186
SWIDTH 450 0
DWIDTH 9 0
BBX 9 20 0 -4
BITMAP
0000
0000
1C00
2200
2200
2200
1C00
0000
3E00
0000
0000
0000
0000
0000
0000
0000
0000
0000
0000
0000
ENDCHAR
STARTCHAR U+00BB
ENCODING 187
SWIDTH 450 0
DWIDTH 9 0
BBX 9 20 0 -4
BITMAP
0000
0000
0000
0000
0000
0000
0000
0000
4800
2400
1200
0900
1200
2400
4800
0000
0000
0000
0000
0000
ENDCHAR
STARTCHAR U+00BC
ENCODING 188
SWIDTH 450 0
DWIDTH 9 0
BBX 9 20 0 -4
BITMAP
0000
0000
0000
1000
3000
5000
1100
1200
0400
0800
1000
2200
4600
0A00
0F00
0200
0000
0000
0000
0000
ENDCHAR
STARTCHAR U+00BD
ENCODING 189
SWIDTH 450 0
DWIDTH 9 0
BBX 9 20 0 -4
BITMAP
0000
0000
0000
1000
3000
5000
1100
1200
0400
0800
1000
2600
4900
0200
0400
0F00
0000
0000
0000
0000
ENDCHAR
STARTCHAR U+00BE
ENCODING 190
SWIDTH 450 0
DWIDTH 9 0
BBX 9 20 0 -4
BITMAP
0000
0000
0000
3000
4800
1000
4900
3200
0400
0800
1000
2200
4600
0A00
0F00
0200
0000
0000
0000
0000
ENDCHAR
STARTCHAR U+00BF
ENCODING 191
SWIDTH 450 0
DWIDTH 9 0
BBX 9 20 0 -4
BITMAP
0000
0000
0000
0800
0800
0000
0800
0800
0800
1000
2000
4000
4100
4100
2200
1C00
0000
0000
0000
0000
ENDCHAR
STARTCHAR U+00C0
ENCODING 192
SWIDTH 450 0
DWIDTH 9 0
BBX 9 20 0 -4
BITMAP
1000
0800
0000
0800
0800
1400
1400
1400
2200
2200
2200
2200
7F00
4100
4100
4100
0000
0000
0000
0000
ENDCHAR
STARTCHAR U+00C1
ENCODING 193
SWIDTH 450 0
DWIDTH 9 0
BBX 9 20 0 -4
BITMAP
0400
0800
0000
0800
0800
1400
1400
1400
2200
2200
2200
2200
7F00
4100
4100
4100
0000
0000
0000
0000
ENDCHAR
STARTCHAR U+00C2
ENCODING 194
SWIDTH 450 0
DWIDTH 9 0
BBX 9 20 0 -4
BITMAP
0800
1400
0000
0800
0800
1400
1400
1400
2200
2200
2200
2200
7F00
4100
4100
4100
0000
0000
0000
0000
ENDCHAR
STARTCHAR U+00C3
ENCODING 195
SWIDTH 450 0
DWIDTH 9 0
BBX 9 20 0 -4
BITMAP
3300
4C00
0000
0800
0800
1400
1400
1400
2200
2200
2200
2200
7F00
4100
4100
4100
0000
0000
0000
0000
ENDCHAR
STARTCHAR U+00C4
ENCODING 196
SWIDTH 450 0
DWIDTH 9 0
BBX 9 20 0 -4
BITMAP
2200
2200
0000
0800
0800
1400
1400
1400
2200
2200
2200
2200
7F00
4100
4100
4100
0000
0000
0000
0000
ENDCHAR
STARTCHAR U+00C5
ENCODING 197
SWIDTH 450 0
DWIDTH 9 0
BBX 9 20 0 -4
BITMAP
0800
1400
0800
0000
0800
1400
1400
1400
2200
2200
2200
2200
7F00
4100
4100
4100
0000
0000
0000
0000
ENDCHAR
STARTCHAR U+00C6
ENCODING 198
SWIDTH 450 0
DWIDTH 9 0
BBX 9 20 0 -4
BITMAP
0000
0000
0000
1F80
2800
2800
2800
2800
4800
7F00
4800
4800
8800
8800
8800
8F80
0000
0000
0000
0000
ENDCHAR
STARTCHAR U+00C7
ENCODING 199
SWIDTH 450 0
DWIDTH 9 0
BBX 9 20 0 -4
BITMAP
0000
0000
0000
1C00
2200
4100
4000
4000
4000
4000
4000
4000
4000
4100
2200
1C00
0800
0400
1800
0000
ENDCHAR
STARTCHAR U+00C8
ENCODING 200
SWIDTH 450 0
DWIDTH 9 0
BBX 9 20 0 -4
BITMAP
1000
0800
0000
7F00
4000
4000
4000
4000
4000
7C00
4000
4000
4000
4000
4000
7F00
0000
0000
0000
0000
ENDCHAR
STARTCHAR U+00C9
ENCODING 201
SWIDTH 450 0
DWIDTH 9 0
BBX 9 20 0 -4
BITMAP
0400
0800
0000
7F00
4000
4000
4000
4000
4000
7C00
4000
4000
4000
4000
4000
7F00
0000
0000
0000
0000
ENDCHAR
STARTCHAR U+00CA
ENCODING 202
SWIDTH 450 0
DWIDTH 9 0
BBX 9 20 0 -4
BITMAP
0800
1400
0000
7F00
4000
4000
4000
4000
4000
7C00
4000
4000
4000
4000
4000
7F00
0000
0000
0000
0000
ENDCHAR
STARTCHAR U+00CB
ENCODING 203
SWIDTH 450 0
DWIDTH 9 0
BBX 9 20 0 -4
BITMAP
2200
2200
0000
7F00
4000
4000
4000
4000
4000
7C00
4000
4000
4000
4000
4000
7F00
0000
0000
0000
0000
ENDCHAR
STARTCHAR U+00CC
ENCODING 204
SWIDTH 450 0
DWIDTH 9 0
BBX 9 20 0 -4
BITMAP
1000
0800
0000
1C00
0800
0800
0800
0800
0800
0800
0800
0800
0800
0800
0800
1C00
0000
0000
0000
0000
ENDCHAR
STARTCHAR U+00CD
ENCODING 205
SWIDTH 450 0
DWIDTH 9 0
BBX 9 20 0 -4
BITMAP
0400
0800
0000
1C00
0800
0800
0800
0800
0800
0800
0800
0800
0800
0800
0800
1C00
0000
0000
0000
0000
ENDCHAR
STARTCHAR U+00CE
ENCODING 206
SWIDTH 450 0
DWIDTH 9 0
BBX 9 20 0 -4
BITMAP
0800
1400
0000
1C00
0800
0800
0800
0800
0800
0800
0800
0800
0800
0800
0800
1C00
0000
0000
0000
0000
ENDCHAR
STARTCHAR U+00CF
ENCODING 207
SWIDTH 450 0
DWIDTH 9 0
BBX 9 20 0 -4
BITMAP
2200
2200
0000
1C00
0800
0800
0800
0800
0800
0800
0800
0800
0800
0800
0800
1C00
0000
0000
0000
0000
ENDCHAR
STARTCHAR U+00D0
ENCODING 208
SWIDTH 450 0
DWIDTH 9 0
BBX 9 20 0 -4
BITMAP
0000
0000
0000
7C00
4200
4100
4100
4100
4100
F100
4100
4100
4100
4100
4200
7C00
0000
0000
0000
0000
ENDCHAR
STARTCHAR U+00D1
ENCODING 209
SWIDTH 450 0
DWIDTH 9 0
BBX 9 20 0 -4
BITMAP
3300
4C00
0000
4100
4100
6100
6100
5100
5100
4900
4900
4500
4500
4300
4300
4100
0000
0000
0000
0000
ENDCHAR
STARTCHAR U+00D2
ENCODING 210
SWIDTH 450 0
DWIDTH 9 0
BBX 9 20 0 -4
BITMAP
1000
0800
0000
1C00
2200
4100
4100
4100
4100
4100
4100
4100
4100
4100
2200
1C00
0000
0000
0000
0000
ENDCHAR
STARTCHAR U+00D3
ENCODING 211
SWIDTH 450 0
DWIDTH 9 0
BBX 9 20 0 -4
BITMAP
0400
0800
0000
1C00
2200
4100
4100
4100
4100
4100
4100
4100
4100
4100
2200
1C00
0000
0000
0000
0000
ENDCHAR
STARTCHAR U+00D4
ENCODING 212
SWIDTH 450 0
DWIDTH 9 0
BBX 9 20 0 -4
BITMAP
0800
1400
0000
1C00
2200
4100
4100
4100
4100
4100
4100
4100
4100
4100
2200
1C00
0000
0000
0000
0000
ENDCHAR
STARTCHAR U+00D5
ENCODING 213
SWIDTH 450 0
DWIDTH 9 0
BBX 9 20 0 -4
BITMAP
3300
4C00
0000
1C00
2200
4100
4100
4100
4100
4100
4100
4100
4100
4100
2200
1C00
0000
0000
0000
0000
ENDCHAR
STARTCHAR U+00D6
ENCODING 214
SWIDTH 450 0
DWIDTH 9 0
BBX 9 20 0 -4
BITMAP
2200
2200
0000
1C00
2200
4100
4100
4100
4100
4100
4100
4100
4100
4100
2200
1C00
0000
0000
0000
0000
ENDCHAR
STARTCHAR U+00D7
ENCODING 215
SWIDTH 450 0
DWIDTH 9 0
BBX 9 20 0 -4
BITMAP
0000
0000
0000
0000
0000
0000
0000
0000
4100
2200
1400
0800
1400
2200
4100
0000
0000
0000
0000
0000
ENDCHAR
STARTCHAR U+00D8
ENCODING 216
SWIDTH 450 0
DWIDTH 9 0
BBX 9 20 0 -4
BITMAP
0000
0000
0000
1C00
2200
4180
4100
4300
4500
4900
5100
6100
4100
C100
2200
1C00
0000
0000
0000
0000
ENDCHAR
STARTCHAR U+00D9
ENCODING 217
SWIDTH 450 0
DWIDTH 9 0
BBX 9 20 0 -4
BITMAP
1000
0800
0000
4100
4100
4100
4100
4100
4100
4100
4100
4100
4100
4100
2200
1C00
0000
0000
0000
0000
ENDCHAR
STARTCHAR U+00DA
ENCODING 218
SWIDTH 450 0
DWIDTH 9 0
BBX 9 20 0 -4
BITMAP
0400
0800
0000
4100
4100
4100
4100
4100
4100
4100
4100
4100
4100
4100
2200
1C00
0000
0000
0000
0000
ENDCHAR
STARTCHAR U+00DB
ENCODING 219
SWIDTH 450 0
DWIDTH 9 0
BBX 9 20 0 -4
BITMAP
0800
1400
0000
4100
4100
4100
4100
4100
4100
4100
4100
4100
4100
4100
2200
1C00
0000
0000
0000
0000
ENDCHAR
STARTCHAR U+00DC
ENCODING 220
SWIDTH 450 0
DWIDTH 9 0
BBX 9 20 0 -4
BITMAP
2200
2200
0000
4100
4100
4100
4100
4100
4100
4100
4100
4100
4100
4100
2200
1C00
0000
0000
0000
0000
ENDCHAR
STARTCHAR U+00DD
ENCODING 221
SWIDTH 450 0
DWIDTH 9 0
BBX 9 20 0 -4
BITMAP
0400
0800
0000
4100
4100
2200
2200
1400
1400
0800
0800
0800
0800
0800
0800
0800
0000
0000
0000
0000
ENDCHAR
STARTCHAR U+00DE
ENCODING 222
SWIDTH 450 0
DWIDTH 9 0
BBX 9 20 0 -4
BITMAP
0000
0000
0000
4000
4000
4000
4000
7C00
4200
4100
4100
4100
4200
7C00
4000
4000
0000
0000
0000
0000
ENDCHAR
STARTCHAR U+00DF
ENCODING 223
SWIDTH 450 0
DWIDTH 9 0
BBX 9 20 0 -4
BITMAP
0000
0000
0000
1800
2400
4200
4200
4400
5800
4400
4200
4100
4100
4100
5200
4C00
0000
0000
0000
0000
ENDCHAR
STARTCHAR U+00E0
ENCODING 224
SWIDTH 450 0
DWIDTH 9 0
BBX 9 20 0 -4
BITMAP
0000
0000
0000
0000
1000
0800
0000
1E00
2100
0100
1F00
2100
4100
4100
2300
1D00
0000
0000
0000
0000
ENDCHAR
STARTCHAR U+00E1
ENCODING 225
SWIDTH 450 0
DWIDTH 9 0
BBX 9 20 0 -4
BITMAP
0000
0000
0000
0000
0400
0800
0000
1E00
2100
0100
1F00
2100
4100
4100
2300
1D00
0000
0000
0000
0000
ENDCHAR
STARTCHAR U+00E2
ENCODING 226
SWIDTH 450 0
DWIDTH 9 0
BBX 9 20 0 -4
BITMAP
0000
0000
0000
0000
0800
1400
0000
1E00
2100
0100
1F00
2100
4100
4100
2300
1D00
0000
0000
0000
0000
ENDCHAR
STARTCHAR U+00E3
ENCODING 227
SWIDTH 450 0
DWIDTH 9 0
BBX 9 20 0 -4
BITMAP
0000
0000
0000
0000
3300
4C00
0000
1E00
2100
0100
1F00
2100
4100
4100
2300
1D00
0000
0000
0000
0000
ENDCHAR
STARTCHAR U+00E4
ENCODING 228
SWIDTH 450 0
DWIDTH 9 0
BBX 9 20 0 -4
BITMAP
0000
0000
0000
0000
2200
2200
0000
1E00
2100
0100
1F00
2100
4100
4100
2300
1D00
0000
0000
0000
0000
ENDCHAR
STARTCHAR U+00E5
ENCODING 229
SWIDTH 450 0
DWIDTH 9 0
BBX 9 20 0 -4
BITMAP
0000
0000
0000
0800
1400
0800
0000
1E00
2100
0100
1F00
2100
4100
4100
2300
1D00
0000
0000
0000
0000
ENDCHAR
STARTCHAR U+00E6
ENCODING 230
SWIDTH 450 0
DWIDTH 9 0
BBX 9 20 0 -4
BITMAP
0000
0000
0000
0000
0000
0000
0000
7700
8880
0880
0880
7F00
8800
8800
8880
7700
0000
0000
0000
0000
ENDCHAR
STARTCHAR U+00E7
ENCODING 231
SWIDTH 450 0
DWIDTH 9 0
BBX 9 20 0 -4
BITMAP
0000
0000
0000
0000
0000
0000
0000
1E00
2100
4000
4000
4000
4000
4000
2100
1E00
0800
0400
1800
0000
ENDCHAR
STARTCHAR U+00E8
ENCODING 232
SWIDTH 450 0
DWIDTH 9 0
BBX 9 20 0 -4
BITMAP
0000
0000
0000
0000
1000
0800
0000
1C00
2200
4100
4100
7F00
4000
4000
2100
1E00
0000
0000
0000
0000
ENDCHAR
STARTCHAR U+00E9
ENCODING 233
SWIDTH 450 0
DWIDTH 9 0
BBX 9 20 0 -4
BITMAP
0000
0000
0000
0000
0400
0800
0000
1C00
2200
4100
4100
7F00
4000
4000
2100
1E00
0000
0000
0000
0000
ENDCHAR
STARTCHAR U+00EA
ENCODING 234
SWIDTH 450 0
DWIDTH 9 0
BBX 9 20 0 -4
BITMAP
0000
0000
0000
0000
0800
1400
0000
1C00
2200
4100
4100
7F00
4000
4000
2100
1E00
0000
0000
0000
0000
ENDCHAR
STARTCHAR U+00EB
ENCODING 235
SWIDTH 450 0
DWIDTH 9 0
BBX 9 20 0 -4
BITMAP
0000
0000
0000
0000
2200
2200
0000
1C00
2200
4100
4100
7F00
4000
4000
2100
1E00
0000
0000
0000
0000
ENDCHAR
STARTCHAR U+00EC
ENCODING 236
SWIDTH 450 0
DWIDTH 9 0
BBX 9 20 0 -4
BITMAP
0000
0000
0000
0000
1000
0800
0000
1800
0800
0800
0800
0800
0800
0800
0800
0800
0000
0000
0000
0000
ENDCHAR
STARTCHAR U+00ED
ENCODING 237
SWIDTH 450 0
DWIDTH 9 0
BBX 9 20 0 -4
BITMAP
0000
0000
0000
0000
0400
0800
0000
1800
0800
0800
0800
0800
0800
0800
0800
0800
0000
0000
0000
0000
ENDCHAR
STARTCHAR U+00EE
ENCODING 238
SWIDTH 450 0
DWIDTH 9 0
BBX 9 20 0 -4
BITMAP
0000
0000
0000
0000
0800
1400
0000
1800
0800
0800
0800
0800
0800
0800
0800
0800
0000
0000
0000
0000
ENDCHAR
STARTCHAR U+00EF
ENCODING 239
SWIDTH 450 0
DWIDTH 9 0
BBX 9 20 0 -4
BITMAP
0000
0000
0000
0000
2200
2200
0000
1800
0800
0800
0800
0800
0800
0800
0800
0800
0000
0000
0000
0000
ENDCHAR
STARTCHAR U+00F0
ENCODING 240
SWIDTH 450 0
DWIDTH 9 0
BBX 9 20 0 -4
BITMAP
0000
0000
2800
1000
2800
0400
0200
1E00
2100
4100
4100
4100
4100
4100
2200
1C00
0000
0000
0000
0000
ENDCHAR
STARTCHAR U+00F1
ENCODING 241
SWIDTH 450 0
DWIDTH 9 0
BBX 9 20 0 -4
BITMAP
0000
0000
0000
0000
3300
4C00
0000
5C00
6200
4100
4100
4100
4100
4100
4100
4100
0000
0000
0000
0000
ENDCHAR
STARTCHAR U+00F2
ENCODING 242
SWIDTH 450 0
DWIDTH 9 0
BBX 9 20 0 -4
BITMAP
0000
0000
0000
0000
1000
0800
0000
1C00
2200
4100
4100
4100
4100
4100
2200
1C00
0000
0000
0000
0000
ENDCHAR
STARTCHAR U+00F3
ENCODING 243
SWIDTH 450 0
DWIDTH 9 0
BBX 9 20 0 -4
BITMAP
0000
0000
0000
0000
0400
0800
0000
1C00
2200
4100
4100
4100
4100
4100
2200
1C00
0000
0000
0000
0000
ENDCHAR
STARTCHAR U+00F4
ENCODING 244
SWIDTH 450 0
DWIDTH 9 0
BBX 9 20 0 -4
BITMAP
0000
0000
0000
0000
0800
1400
0000
1C00
2200
4100
4100
4100
4100
4100
2200
1C00
0000
0000
0000
0000
ENDCHAR
STARTCHAR U+00F5
ENCODING 245
SWIDTH 450 0
DWIDTH 9 0
BBX 9 20 0 -4
BITMAP
0000
0000
0000
0000
3300
4C00
0000
1C00
2200
4100
4100
4100
4100
4100
2200
1C00
0000
0000
0000
0000
ENDCHAR
STARTCHAR U+00F6
ENCODING 246
SWIDTH 450 0
DWIDTH 9 0
BBX 9 20 0 -4
BITMAP
0000
0000
0000
0000
2200
2200
0000
1C00
2200
4100
4100
4100
4100
4100
2200
1C00
0000
0000
0000
0000
ENDCHAR
STARTCHAR U+00F7
ENCODING 247
SWIDTH 450 0
DWIDTH 9 0
BBX 9 20 0 -4
BITMAP
0000
0000
0000
0000
0000
0000
0000
0000
0800
0800
0000
7F00
0000
0800
0800
0000
0000
0000
0000
0000
ENDCHAR
STARTCHAR U+00F8
ENCODING 248
SWIDTH 450 0
DWIDTH 9 0
BBX 9 20 0 -4
BITMAP
0000
0000
0000
0000
0000
0000
0000
1C80
2300
4300
4500
4900
5100
6100
6200
9C00
0000
0000
0000
0000
ENDCHAR
STARTCHAR U+00F9
ENCODING 249
SWIDTH 450 0
DWIDTH 9 0
BBX 9 20 0 -4
BITMAP
0000
0000
0000
0000
1000
0800
0000
4100
4100
4100
4100
4100
4100
4100
2300
1D00
0000
0000
0000
0000
ENDCHAR
STARTCHAR U+00FA
ENCODING 250
SWIDTH 450 0
DWIDTH 9 0
BBX 9 20 0 -4
BITMAP
0000
0000
0000
0000
0400
0800
0000
4100
4100
4100
4100
4100
4100
4100
2300
1D00
0000
0000
0000
0000
ENDCHAR
STARTCHAR U+00FB
ENCODING 251
SWIDTH 450 0
DWIDTH 9 0
BBX 9 20 0 -4
BITMAP
0000
0000
0000
0000
0800
1400
0000
4100
4100
4100
4100
4100
4100
4100
2300
1D00
0000
0000
0000
0000
ENDCHAR
STARTCHAR U+00FC
ENCODING 252
SWIDTH 450 0
DWIDTH 9 0
BBX 9 20 0 -4
BITMAP
0000
0000
0000
0000
2200
2200
0000
4100
4100
4100
4100
4100
4100
4100
2300
1D00
0000
0000
0000
0000
ENDCHAR
STARTCHAR U+00FD
ENCODING 253
SWIDTH 450 0
DWIDTH 9 0
BBX 9 20 0 -4
BITMAP
0000
0000
0000
0000
0400
0800
0000
4100
4100
4100
2200
2200
1400
1400
0800
0800
1000
1000
6000
0000
ENDCHAR
STARTCHAR U+00FE
ENCODING 254
SWIDTH 450 0
DWIDTH 9 0
BBX 9 20 0 -4
BITMAP
0000
0000
0000
4000
4000
4000
4000
5C00
6200
4100
4100
4100
4100
4100
6200
5C00
4000
4000
4000
4000
ENDCHAR
STARTCHAR U+00FF
ENCODING 255
SWIDTH 450 0
DWIDTH 9 0
BBX 9 20 0 -4
BITMAP
0000
0000
0000
0000
2200
2200
0000
4100
4100
4100
2200
2200
1400
1400
0800
0800
1000
1000
6000
0000
ENDCHAR
STARTCHAR U+0100
ENCODING 256
SWIDTH 450 0
DWIDTH 9 0
BBX 9 20 0 -4
BITMAP
0000
3E00
0000
0800
0800
1400
1400
1400
2200
2200
2200
2200
7F00
4100
4100
4100
0000
0000
0000
0000
ENDCHAR
STARTCHAR U+0101
ENCODING 257
SWIDTH 450 0
DWIDTH 9 0
BBX 9 20 0 -4
BITMAP
0000
0000
0000
0000
0000
3E00
0000
1E00
2100
0100
1F00
2100
4100
4100
2300
1D00
0000
0000
0000
0000
ENDCHAR
STARTCHAR U+0102
ENCODING 258
SWIDTH 450 0
DWIDTH 9 0
BBX 9 20 0 -4
BITMAP
2200
1C00
0000
0800
0800
1400
1400
1400
2200
2200
2200
2200
7F00
4100
4100
4100
0000
0000
0000
0000
ENDCHAR
STARTCHAR U+0103
ENCODING 259
SWIDTH 450 0
DWIDTH 9 0
BBX 9 20 0 -4
BITMAP
0000
0000
0000
0000
2200
1C00
0000
1E00
2100
0100
1F00
2100
4100
4100
2300
1D00
0000
0000
0000
0000
ENDCHAR
STARTCHAR U+0104
ENCODING 260
SWIDTH 450 0
DWIDTH 9 0
BBX 9 20 0 -4
BITMAP
0000
0000
0000
0800
0800
1400
1400
1400
2200
2200
2200
2200
7F00
4100
4100
4100
0100
0200
0180
0000
ENDCHAR
STARTCHAR U+0105
ENCODING 261
SWIDTH 450 0
DWIDTH 9 0
BBX 9 20 0 -4
BITMAP
0000
0000
0000
0000
0000
0000
0000
1E00
2100
0100
1F00
2100
4100
4100
2300
1D00
0100
0200
0180
0000
ENDCHAR
STARTCHAR U+0106
ENCODING 262
SWIDTH 450 0
DWIDTH 9 0
BBX 9 20 0 -4
BITMAP
0400
0800
0000
1C00
2200
4100
4000
4000
4000
4000
4000
4000
4000
4100
2200
1C00
0000
0000
0000
0000
ENDCHAR
STARTCHAR U+0107
ENCODING 263
SWIDTH 450 0
DWIDTH 9 0
BBX 9 20 0 -4
BITMAP
0000
0000
0000
0000
0400
0800
0000
1E00
2100
4000
4000
4000
4000
4000
2100
1E00
0000
0000
0000
0000
ENDCHAR
STARTCHAR U+0108
ENCODING 264
SWIDTH 450 0
DWIDTH 9 0
BBX 9 20 0 -4
BITMAP
0800
1400
0000
1C00
2200
4100
4000
4000
4000
4000
4000
4000
4000
4100
2200
1C00
0000
0000
0000
0000
ENDCHAR
STARTCHAR U+0109
ENCODING 265
SWIDTH 450 0
DWIDTH 9 0
BBX 9 20 0 -4
BITMAP
0000
0000
0000
0000
0800
1400
0000
1E00
2100
4000
4000
4000
4000
4000
2100
1E00
0000
0000
0000
0000
ENDCHAR
STARTCHAR U+010A
ENCODING 266
SWIDTH 450 0
DWIDTH 9 0
BBX 9 20 0 -4
BITMAP
0800
0800
0000
1C00
2200
4100
4000
4000
4000
4000
4000
4000
4000
4100
2200
1C00
0000
0000
0000
0000
ENDCHAR
STARTCHAR U+010B
ENCODING 267
SWIDTH 450 0
DWIDTH 9 0
BBX 9 20 0 -4
BITMAP
0000
0000
0000
0000
0800
0800
0000
1E00
2100
4000
4000
4000
4000
4000
2100
1E00
0000
0000
0000
0000
ENDCHAR
STARTCHAR U+010C
ENCODING 268
SWIDTH 450 0
DWIDTH 9 0
BBX 9 20 0 -4
BITMAP
1400
0800
0000
1C00
2200
4100
4000
4000
4000
4000
4000
4000
4000
4100
2200
1C00
0000
0000
0000
0000
ENDCHAR
STARTCHAR U+010D
ENCODING 269
SWIDTH 450 0
DWIDTH 9 0
BBX 9 20 0 -4
BITMAP
0000
0000
0000
0000
1400
0800
0000
1E00
2100
4000
4000
4000
4000
4000
2100
1E00
0000
0000
0000
0000
ENDCHAR
STARTCHAR U+010E
ENCODING 270
SWIDTH 450 0
DWIDTH 9 0
BBX 9 20 0 -4
BITMAP
1400
0800
0000
7C00
4200
4100
4100
4100
4100
4100
4100
4100
4100
4100
4200
7C00
0000
0000
0000
0000
ENDCHAR
STARTCHAR U+010F
ENCODING 271
SWIDTH 450 0
DWIDTH 9 0
BBX 9 20 0 -4
BITMAP
0000
0000
0000
0580
0480
0500
0400
3400
4C00
8400
8400
8400
8400
8400
4C00
3400
0000
0000
0000
0000
ENDCHAR
STARTCHAR U+0110
ENCODING 272
SWIDTH 450 0
DWIDTH 9 0
BBX 9 20 0 -4
BITMAP
0000
0000
0000
7C00
4200
4100
4100
4100
4100
F100
4100
4100
4100
4100
4200
7C00
0000
0000
0000
0000
ENDCHAR
STARTCHAR U+0111
ENCODING 273
SWIDTH 450 0
DWIDTH 9 0
BBX 9 20 0 -4
BITMAP
0000
0000
0000
0100
0100
0780
0100
1D00
2300
4100
4100
4100
4100
4100
2300
1D00
0000
0000
0000
0000
ENDCHAR
STARTCHAR U+0112
ENCODING 274
SWIDTH 450 0
DWIDTH 9 0
BBX 9 20 0 -4
BITMAP
0000
3E00
0000
7F00
4000
4000
4000
4000
4000
7C00
4000
4000
4000
4000
4000
7F00
0000
0000
0000
0000
ENDCHAR
STARTCHAR U+0113
ENCODING 275
SWIDTH 450 0
DWIDTH 9 0
BBX 9 20 0 -4
BITMAP
0000
0000
0000
0000
0000
3E00
0000
1C00
2200
4100
4100
7F00
4000
4000
2100
1E00
0000
0000
0000
0000
ENDCHAR
STARTCHAR U+0114
ENCODING 276
SWIDTH 450 0
DWIDTH 9 0
BBX 9 20 0 -4
BITMAP
2200
1C00
0000
7F00
4000
4000
4000
4000
4000
7C00
4000
4000
4000
4000
4000
7F00
0000
0000
0000
0000
ENDCHAR
STARTCHAR U+0115
ENCODING 277
SWIDTH 450 0
DWIDTH 9 0
BBX 9 20 0 -4
BITMAP
0000
0000
0000
0000
2200
1C00
0000
1C00
2200
4100
4100
7F00
4000
4000
2100
1E00
0000
0000
0000
0000
ENDCHAR
STARTCHAR U+0116
ENCODING 278
SWIDTH 450 0
DWIDTH 9 0
BBX 9 20 0 -4
BITMAP
0800
0800
0000
7F00
4000
4000
4000
4000
4000
7C00
4000
4000
4000
4000
4000
7F00
0000
0000
0000
0000
ENDCHAR
STARTCHAR U+0117
ENCODING 279
SWIDTH 450 0
DWIDTH 9 0
BBX 9 20 0 -4
BITMAP
0000
0000
0000
0000
0800
0800
0000
1C00
2200
4100
4100
7F00
4000
4000
2100
1E00
0000
0000
0000
0000
ENDCHAR
STARTCHAR U+0118
ENCODING 280
SWIDTH 450 0
DWIDTH 9 0
BBX 9 20 0 -4
BITMAP
0000
0000
0000
7F00
4000
4000
4000
4000
4000
7C00
4000
4000
4000
4000
4000
7F00
0100
0200
0180
0000
ENDCHAR
STARTCHAR U+0119
ENCODING 281
SWIDTH 450 0
DWIDTH 9 0
BBX 9 20 0 -4
BITMAP
0000
0000
0000
0000
0000
0000
0000
1C00
2200
4100
4100
7F00
4000
4000
2100
1E00
0800
1000
0C00
0000
ENDCHAR
STARTCHAR U+011A
ENCODING 282
SWIDTH 450 0
DWIDTH 9 0
BBX 9 20 0 -4
BITMAP
1400
0800
0000
7F00
4000
4000
4000
4000
4000
7C00
4000
4000
4000
4000
4000
7F00
0000
0000
0000
0000
ENDCHAR
STARTCHAR U+011B
ENCODING 283
SWIDTH 450 0
DWIDTH 9 0
BBX 9 20 0 -4
BITMAP
0000
0000
0000
0000
1400
0800
0000
1C00
2200
4100
4100
7F00
4000
4000
2100
1E00
0000
0000
0000
0000
ENDCHAR
STARTCHAR U+011C
ENCODING 284
SWIDTH 450 0
DWIDTH 9 0
BBX 9 20 0 -4
BITMAP
0800
1400
0000
1C00
2200
4100
4000
4000
4000
4000
4700
4100
4100
4100
2300
1D00
0000
0000
0000
0000
ENDCHAR
STARTCHAR U+011D
ENCODING 285
SWIDTH 450 0
DWIDTH 9 0
BBX 9 20 0 -4
BITMAP
0000
0000
0000
0000
0800
1400
0000
1D00
2300
4100
4100
4100
4100
4100
2300
1D00
0100
0100
4200
3C00
ENDCHAR
STARTCHAR U+011E
ENCODING 286
SWIDTH 450 0
DWIDTH 9 0
BBX 9 20 0 -4
BITMAP
2200
1C00
0000
1C00
2200
4100
4000
4000
4000
4000
4700
4100
4100
4100
2300
1D00
0000
0000
0000
0000
ENDCHAR
STARTCHAR U+011F
ENCODING 287
SWIDTH 450 0
DWIDTH 9 0
BBX 9 20 0 -4
BITMAP
0000
0000
0000
0000
2200
1C00
0000
1D00
2300
4100
4100
4100
4100
4100
2300
1D00
0100
0100
4200
3C00
ENDCHAR
STARTCHAR U+0120
ENCODING 288
SWIDTH 450 0
DWIDTH 9 0
BBX 9 20 0 -4
BITMAP
0800
0800
0000
1C00
2200
4100
4000
4000
4000
4000
4700
4100
4100
4100
2300
1D00
0000
0000
0000
0000
ENDCHAR
STARTCHAR U+0121
ENCODING 289
SWIDTH 450 0
DWIDTH 9 0
BBX 9 20 0 -4
BITMAP
0000
0000
0000
0000
0800
0800
0000
1D00
2300
4100
4100
4100
4100
4100
2300
1D00
0100
0100
4200
3C00
ENDCHAR
STARTCHAR U+0122
ENCODING 290
SWIDTH 450 0
DWIDTH 9 0
BBX 9 20 0 -4
BITMAP
0000
0000
0000
1C00
2200
4100
4000
4000
4000
4000
4700
4100
4100
4100
2300
1D00
0000
0C00
0400
0800
ENDCHAR
STARTCHAR U+0123
ENCODING 291
SWIDTH 450 0
DWIDTH 9 0
BBX 9 20 0 -4
BITMAP
0000
0000
0000
0400
0800
0C00
0000
1D00
2300
4100
4100
4100
4100
4100
2300
1D00
0100
0100
4200
3C00
ENDCHAR
STARTCHAR U+0124
ENCODING 292
SWIDTH 450 0
DWIDTH 9 0
BBX 9 20 0 -4
BITMAP
0800
1400
0000
4100
4100
4100
4100
4100
4100
7F00
4100
4100
4100
4100
4100
4100
0000
0000
0000
0000
ENDCHAR
STARTCHAR U+0125
ENCODING 293
SWIDTH 450 0
DWIDTH 9 0
BBX 9 20 0 -4
BITMAP
4000
A000
0000
4000
4000
4000
4000
5C00
6200
4100
4100
4100
4100
4100
4100
4100
0000
0000
0000
0000
ENDCHAR
STARTCHAR U+0126
ENCODING 294
SWIDTH 450 0
DWIDTH 9 0
BBX 9 20 0 -4
BITMAP
0000
0000
0000
4100
4100
FF80
4100
4100
4100
7F00
4100
4100
4100
4100
4100
4100
0000
0000
0000
0000
ENDCHAR
STARTCHAR U+0127
ENCODING 295
SWIDTH 450 0
DWIDTH 9 0
BBX 9 20 0 -4
BITMAP
0000
0000
0000
4000
4000
F000
4000
5C00
6200
4100
4100
4100
4100
4100
4100
4100
0000
0000
0000
0000
ENDCHAR
STARTCHAR U+0128
ENCODING 296
SWIDTH 450 0
DWIDTH 9 0
BBX 9 20 0 -4
BITMAP
3300
4C00
0000
1C00
0800
0800
0800
0800
0800
0800
0800
0800
0800
0800
0800
1C00
0000
0000
0000
0000
ENDCHAR
STARTCHAR U+0129
ENCODING 297
SWIDTH 450 0
DWIDTH 9 0
BBX 9 20 0 -4
BITMAP
0000
0000
0000
0000
3300
4C00
0000
1800
0800
0800
0800
0800
0800
0800
0800
0800
0000
0000
0000
0000
ENDCHAR
STARTCHAR U+012A
ENCODING 298
SWIDTH 450 0
DWIDTH 9 0
BBX 9 20 0 -4
BITMAP
0000
3E00
0000
1C00
0800
0800
0800
0800
0800
0800
0800
0800
0800
0800
0800
1C00
0000
0000
0000
0000
ENDCHAR
STARTCHAR U+012B
ENCODING 299
SWIDTH 450 0
DWIDTH 9 0
BBX 9 20 0 -4
BITMAP
0000
0000
0000
0000
0000
3E00
0000
1800
0800
0800
0800
0800
0800
0800
0800
0800
0000
0000
0000
0000
ENDCHAR
STARTCHAR U+012C
ENCODING 300
SWIDTH 450 0
DWIDTH 9 0
BBX 9 20 0 -4
BITMAP
2200
1C00
0000
1C00
0800
0800
0800
0800
0800
0800
0800
0800
0800
0800
0800
1C00
0000
0000
0000
0000
ENDCHAR
STARTCHAR U+012D
ENCODING 301
SWIDTH 450 0
DWIDTH 9 0
BBX 9 20 0 -4
BITMAP
0000
0000
0000
0000
2200
1C00
0000
1800
0800
0800
0800
0800
0800
0800
0800
0800
0000
0000
0000
0000
ENDCHAR
STARTCHAR U+012E
ENCODING 302
SWIDTH 450 0
DWIDTH 9 0
BBX 9 20 0 -4
BITMAP
0000
0000
0000
1C00
0800
0800
0800
0800
0800
0800
0800
0800
0800
0800
0800
1C00
0800
1000
0C00
0000
ENDCHAR
STARTCHAR U+012F
ENCODING 303
SWIDTH 450 0
DWIDTH 9 0
BBX 9 20 0 -4
BITMAP
0000
0000
0000
0000
0800
0800
0000
1800
0800
0800
0800
0800
0800
0800
0800
0800
0800
1000
0C00
0000
ENDCHAR
STARTCHAR U+0130
ENCODING 304
SWIDTH 450 0
DWIDTH 9 0
BBX 9 20 0 -4
BITMAP
0800
0800
0000
1C00
0800
0800
0800
0800
0800
0800
0800
0800
0800
0800
0800
1C00
0000
0000
0000
0000
ENDCHAR
STARTCHAR U+0131
ENCODING 305
SWIDTH 450 0
DWIDTH 9 0
BBX 9 20 0 -4
BITMAP
0000
0000
0000
0000
0000
0000
0000
1800
0800
0800
0800
0800
0800
0800
0800
0800
0000
0000
0000
0000
ENDCHAR
STARTCHAR U+0132
ENCODING 306
SWIDTH 450 0
DWIDTH 9 0
BBX 9 20 0 -4
BITMAP
0000
0000
0000
E100
4100
4100
4100
4100
4100
4100
4100
4100
5100
5100
4A00
E400
0000
0000
0000
0000
ENDCHAR
STARTCHAR U+0133
ENCODING 307
SWIDTH 450 0
DWIDTH 9 0
BBX 9 20 0 -4
BITMAP
0000
0000
0000
0000
2100
2100
0000
6100
2100
2100
2100
2100
2100
2100
2100
2100
0100
0100
0E00
0000
ENDCHAR
STARTCHAR U+0134
ENCODING 308
SWIDTH 450 0
DWIDTH 9 0
BBX 9 20 0 -4
BITMAP
0100
0280
0000
0100
0100
0100
0100
0100
0100
0100
0100
0100
0100
4100
2200
1C00
0000
0000
0000
0000
ENDCHAR
STARTCHAR U+0135
ENCODING 309
SWIDTH 450 0
DWIDTH 9 0
BBX 9 20 0 -4
BITMAP
0000
0000
0000
0000
0800
1400
0000
0800
0800
0800
0800
0800
0800
0800
0800
0800
0800
0800
7000
0000
ENDCHAR
STARTCHAR U+0136
ENCODING 310
SWIDTH 450 0
DWIDTH 9 0
BBX 9 20 0 -4
BITMAP
0000
0000
0000
4100
4100
4200
4400
4800
5000
6000
5000
4800
4400
4200
4100
4100
0800
0400
1800
0000
ENDCHAR
STARTCHAR U+0137
ENCODING 311
SWIDTH 450 0
DWIDTH 9 0
BBX 9 20 0 -4
BITMAP
0000
0000
0000
4000
4000
4000
4000
4100
4200
4400
4800
7000
4800
4400
4200
4100
0800
0400
1800
0000
ENDCHAR
STARTCHAR U+0138
ENCODING 312
SWIDTH 450 0
DWIDTH 9 0
BBX 9 20 0 -4
BITMAP
0000
0000
0000
0000
0000
0000
0000
4100
4200
4400
4800
7000
4800
4400
4200
4100
0000
0000
0000
0000
ENDCHAR
STARTCHAR U+0139
ENCODING 313
SWIDTH 450 0
DWIDTH 9 0
BBX 9 20 0 -4
BITMAP
2000
4000
0000
4000
4000
4000
4000
4000
4000
4000
4000
4000
4000
4000
4000
7F00
0000
0000
0000
0000
ENDCHAR
STARTCHAR U+013A
ENCODING 314
SWIDTH 450 0
DWIDTH 9 0
BBX 9 20 0 -4
BITMAP
0400
0800
0000
1800
0800
0800
0800
0800
0800
0800
0800
0800
0800
0800
0800
0600
0000
0000
0000
0000
ENDCHAR
STARTCHAR U+013B
ENCODING 315
SWIDTH 450 0
DWIDTH 9 0
BBX 9 20 0 -4
BITMAP
0000
0000
0000
4000
4000
4000
4000
4000
4000
4000
4000
4000
4000
4000
4000
7F00
0800
0400
1800
0000
ENDCHAR
STARTCHAR U+013C
ENCODING 316
SWIDTH 450 0
DWIDTH 9 0
BBX 9 20 0 -4
BITMAP
0000
0000
0000
1800
0800
0800
0800
0800
0800
0800
0800
0800
0800
0800
0800
0600
0400
0200
0C00
0000
ENDCHAR
STARTCHAR U+013D
ENCODING 317
SWIDTH 450 0
DWIDTH 9 0
BBX 9 20 0 -4
BITMAP
A000
4000
0000
4000
4000
4000
4000
4000
4000
4000
4000
4000
4000
4000
4000
7F00
0000
0000
0000
0000
ENDCHAR
STARTCHAR U+013E
ENCODING 318
SWIDTH 450 0
DWIDTH 9 0
BBX 9 20 0 -4
BITMAP
1400
0800
0000
1800
0800
0800
0800
0800
0800
0800
0800
0800
0800
0800
0800
0600
0000
0000
0000
0000
ENDCHAR
STARTCHAR U+013F
ENCODING 319
SWIDTH 450 0
DWIDTH 9 0
BBX 9 20 0 -4
BITMAP
0000
0000
0000
4000
4000
4000
4000
4000
4200
4200
4000
4000
4000
4000
4000
7F00
0000
0000
0000
0000
ENDCHAR
STARTCHAR U+0140
ENCODING 320
SWIDTH 450 0
DWIDTH 9 0
BBX 9 20 0 -4
BITMAP
0000
0000
0000
1800
0800
0800
0800
0800
0900
0900
0800
0800
0800
0800
0800
0600
0000
0000
0000
0000
ENDCHAR
STARTCHAR U+0141
ENCODING 321
SWIDTH 450 0
DWIDTH 9 0
BBX 9 20 0 -4
BITMAP
0000
0000
0000
2000
2000
2000
2000
2800
3000
2000
6000
A000
2000
2000
2000
3F80
0000
0000
0000
0000
ENDCHAR
STARTCHAR U+0142
ENCODING 322
SWIDTH 450 0
DWIDTH 9 0
BBX 9 20 0 -4
BITMAP
0000
0000
0000
1800
0800
0800
0800
0A00
0C00
0800
1800
2800
0800
0800
0800
0600
0000
0000
0000
0000
ENDCHAR
STARTCHAR U+0143
ENCODING 323
SWIDTH 450 0
DWIDTH 9 0
BBX 9 20 0 -4
BITMAP
0400
0800
0000
4100
4100
6100
6100
5100
5100
4900
4900
4500
4500
4300
4300
4100
0000
0000
0000
0000
ENDCHAR
STARTCHAR U+0144
ENCODING 324
SWIDTH 450 0
DWIDTH 9 0
BBX 9 20 0 -4
BITMAP
0000
0000
0000
0000
0400
0800
0000
5C00
6200
4100
4100
4100
4100
4100
4100
4100
0000
0000
0000
0000
ENDCHAR
STARTCHAR U+0145
ENCODING 325
SWIDTH 450 0
DWIDTH 9 0
BBX 9 20 0 -4
BITMAP
0000
0000
0000
4100
4100
6100
6100
5100
5100
4900
4900
4500
4500
4300
4300
4100
0800
0400
1800
0000
ENDCHAR
STARTCHAR U+0146
ENCODING 326
SWIDTH 450 0
DWIDTH 9 0
BBX 9 20 0 -4
BITMAP
0000
0000
0000
0000
0000
0000
0000
5C00
6200
4100
4100
4100
4100
4100
4100
4100
0800
0400
1800
0000
ENDCHAR
STARTCHAR U+0147
ENCODING 327
SWIDTH 450 0
DWIDTH 9 0
BBX 9 20 0 -4
BITMAP
1400
0800
0000
4100
4100
6100
6100
5100
5100
4900
4900
4500
4500
4300
4300
4100
0000
0000
0000
0000
ENDCHAR
STARTCHAR U+0148
ENCODING 328
SWIDTH 450 0
DWIDTH 9 0
BBX 9 20 0 -4
BITMAP
0000
0000
0000
0000
1400
0800
0000
5C00
6200
4100
4100
4100
4100
4100
4100
4100
0000
0000
0000
0000
ENDCHAR
STARTCHAR U+0149
ENCODING 329
SWIDTH 450 0
DWIDTH 9 0
BBX 9 20 0 -4
BITMAP
0000
0000
0000
C000
4000
8000
0000
5C00
6200
4100
4100
4100
4100
4100
4100
4100
0000
0000
0000
0000
ENDCHAR
STARTCHAR U+014A
ENCODING 330
SWIDTH 450 0
DWIDTH 9 0
BBX 9 20 0 -4
BITMAP
0000
0000
0000
4100
4100
6100
6100
5100
5100
4900
4900
4500
4500
4300
4300
4100
0100
0100
0600
0000
ENDCHAR
STARTCHAR U+014B
ENCODING 331
SWIDTH 450 0
DWIDTH 9 0
BBX 9 20 0 -4
BITMAP
0000
0000
0000
0000
0000
0000
0000
5C00
6200
4100
4100
4100
4100
4100
4100
4100
0100
0100
0600
0000
ENDCHAR
STARTCHAR U+014C
ENCODING 332
SWIDTH 450 0
DWIDTH 9 0
BBX 9 20 0 -4
BITMAP
0000
3E00
0000
1C00
2200
4100
4100
4100
4100
4100
4100
4100
4100
4100
2200
1C00
0000
0000
0000
0000
ENDCHAR
STARTCHAR U+014D
ENCODING 333
SWIDTH 450 0
DWIDTH 9 0
BBX 9 20 0 -4
BITMAP
0000
0000
0000
0000
0000
3E00
0000
1C00
2200
4100
4100
4100
4100
4100
2200
1C00
0000
0000
0000
0000
ENDCHAR
STARTCHAR U+014E
ENCODING 334
SWIDTH 450 0
DWIDTH 9 0
BBX 9 20 0 -4
BITMAP
2200
1C00
0000
1C00
2200
4100
4100
4100
4100
4100
4100
4100
4100
4100
2200
1C00
0000
0000
0000
0000
ENDCHAR
STARTCHAR U+014F
ENCODING 335
SWIDTH 450 0
DWIDTH 9 0
BBX 9 20 0 -4
BITMAP
0000
0000
0000
0000
2200
1C00
0000
1C00
2200
4100
4100
4100
4100
4100
2200
1C00
0000
0000
0000
0000
ENDCHAR
STARTCHAR U+0150
ENCODING 336
SWIDTH 450 0
DWIDTH 9 0
BBX 9 20 0 -4
BITMAP
1200
2400
0000
1C00
2200
4100
4100
4100
4100
4100
4100
4100
4100
4100
2200
1C00
0000
0000
0000
0000
ENDCHAR
STARTCHAR U+0151
ENCODING 337
SWIDTH 450 0
DWIDTH 9 0
BBX 9 20 0 -4
BITMAP
0000
0000
0000
0000
1200
2400
0000
1C00
2200
4100
4100
4100
4100
4100
2200
1C00
0000
0000
0000
0000
ENDCHAR
STARTCHAR U+0152
ENCODING 338
SWIDTH 450 0
DWIDTH 9 0
BBX 9 20 0 -4
BITMAP
0000
0000
0000
3F80
4800
8800
8800
8800
8800
8F00
8800
8800
8800
8800
4800
3F80
0000
0000
0000
0000
ENDCHAR
STARTCHAR U+0153
ENCODING 339
SWIDTH 450 0
DWIDTH 9 0
BBX 9 20 0 -4
BITMAP
0000
0000
0000
0000
0000
0000
0000
3E00
4900
8880
8880
8F80
8800
8800
4880
3F00
0000
0000
0000
0000
ENDCHAR
STARTCHAR U+0154
ENCODING 340
SWIDTH 450 0
DWIDTH 9 0
BBX 9 20 0 -4
BITMAP
0800
1000
0000
7C00
4200
4100
4100
4100
4100
4200
7C00
4400
4200
4200
4100
4100
0000
0000
0000
0000
ENDCHAR
STARTCHAR U+0155
ENCODING 341
SWIDTH 450 0
DWIDTH 9 0
BBX 9 20 0 -4
BITMAP
0000
0000
0000
0000
0400
0800
0000
4E00
5100
6000
4000
4000
4000
4000
4000
4000
0000
0000
0000
0000
ENDCHAR
STARTCHAR U+0156
ENCODING 342
SWIDTH 450 0
DWIDTH 9 0
BBX 9 20 0 -4
BITMAP
0000
0000
0000
7C00
4200
4100
4100
4100
4100
4200
7C00
4400
4200
4200
4100
4100
0800
0400
1800
0000
ENDCHAR
STARTCHAR U+0157
ENCODING 343
SWIDTH 450 0
DWIDTH 9 0
BBX 9 20 0 -4
BITMAP
0000
0000
0000
0000
0000
0000
0000
4E00
5100
6000
4000
4000
4000
4000
4000
4000
0800
0400
1800
0000
ENDCHAR
STARTCHAR U+0158
ENCODING 344
SWIDTH 450 0
DWIDTH 9 0
BBX 9 20 0 -4
BITMAP
2800
1000
0000
7C00
4200
4100
4100
4100
4100
4200
7C00
4400
4200
4200
4100
4100
0000
0000
0000
0000
ENDCHAR
STARTCHAR U+0159
ENCODING 345
SWIDTH 450 0
DWIDTH 9 0
BBX 9 20 0 -4
BITMAP
0000
0000
0000
0000
1400
0800
0000
4E00
5100
6000
4000
4000
4000
4000
4000
4000
0000
0000
0000
0000
ENDCHAR
STARTCHAR U+015A
ENCODING 346
SWIDTH 450 0
DWIDTH 9 0
BBX 9 20 0 -4
BITMAP
0400
0800
0000
1C00
2200
4100
4000
4000
2000
1C00
0200
0100
0100
4100
2200
1C00
0000
0000
0000
0000
ENDCHAR
STARTCHAR U+015B
ENCODING 347
SWIDTH 450 0
DWIDTH 9 0
BBX 9 20 0 -4
BITMAP
0000
0000
0000
0000
0400
0800
0000
3E00
4100
4000
4000
3E00
0100
0100
4100
3E00
0000
0000
0000
0000
ENDCHAR
STARTCHAR U+015C
ENCODING 348
SWIDTH 450 0
DWIDTH 9 0
BBX 9 20 0 -4
BITMAP
0800
1400
0000
1C00
2200
4100
4000
4000
2000
1C00
0200
0100
0100
4100
2200
1C00
0000
0000
0000
0000
ENDCHAR
STARTCHAR U+015D
ENCODING 349
SWIDTH 450 0
DWIDTH 9 0
BBX 9 20 0 -4
BITMAP
0000
0000
0000
0000
0800
1400
0000
3E00
4100
4000
4000
3E00
0100
0100
4100
3E00
0000
0000
0000
0000
ENDCHAR
STARTCHAR U+015E
ENCODING 350
SWIDTH 450 0
DWIDTH 9 0
BBX 9 20 0 -4
BITMAP
0000
0000
0000
1C00
2200
4100
4000
4000
2000
1C00
0200
0100
0100
4100
2200
1C00
0800
0400
1800
0000
ENDCHAR
STARTCHAR U+015F
ENCODING 351
SWIDTH 450 0
DWIDTH 9 0
BBX 9 20 0 -4
BITMAP
0000
0000
0000
0000
0000
0000
0000
3E00
4100
4000
4000
3E00
0100
0100
4100
3E00
0800
0400
1800
0000
ENDCHAR
STARTCHAR U+0160
ENCODING 352
SWIDTH 450 0
DWIDTH 9 0
BBX 9 20 0 -4
BITMAP
1400
0800
0000
1C00
2200
4100
4000
4000
2000
1C00
0200
0100
0100
4100
2200
1C00
0000
0000
0000
0000
ENDCHAR
STARTCHAR U+0161
ENCODING 353
SWIDTH 450 0
DWIDTH 9 0
BBX 9 20 0 -4
BITMAP
0000
0000
0000
0000
1400
0800
0000
3E00
4100
4000
4000
3E00
0100
0100
4100
3E00
0000
0000
0000
0000
ENDCHAR
STARTCHAR U+0162
ENCODING 354
SWIDTH 450 0
DWIDTH 9 0
BBX 9 20 0 -4
BITMAP
0000
0000
0000
7F00
0800
0800
0800
0800
0800
0800
0800
0800
0800
0800
0800
0800
0800
0400
1800
0000
ENDCHAR
STARTCHAR U+0163
ENCODING 355
SWIDTH 450 0
DWIDTH 9 0
BBX 9 20 0 -4
BITMAP
0000
0000
0000
0000
0000
0800
0800
3E00
0800
0800
0800
0800
0800
0800
0800
0700
0400
0200
0C00
0000
ENDCHAR
STARTCHAR U+0164
ENCODING 356
SWIDTH 450 0
DWIDTH 9 0
BBX 9 20 0 -4
BITMAP
1400
0800
0000
7F00
0800
0800
0800
0800
0800
0800
0800
0800
0800
0800
0800
0800
0000
0000
0000
0000
ENDCHAR
STARTCHAR U+0165
ENCODING 357
SWIDTH 450 0
DWIDTH 9 0
BBX 9 20 0 -4
BITMAP
0000
0000
1400
0800
0000
0800
0800
3E00
0800
0800
0800
0800
0800
0800
0800
0700
0000
0000
0000
0000
ENDCHAR
STARTCHAR U+0166
ENCODING 358
SWIDTH 450 0
DWIDTH 9 0
BBX 9 20 0 -4
BITMAP
0000
0000
0000
7F00
0800
0800
0800
0800
0800
3E00
0800
0800
0800
0800
0800
0800
0000
0000
0000
0000
ENDCHAR
STARTCHAR U+0167
ENCODING 359
SWIDTH 450 0
DWIDTH 9 0
BBX 9 20 0 -4
BITMAP
0000
0000
0000
0000
0000
0800
0800
3E00
0800
1C00
0800
0800
0800
0800
0800
0700
0000
0000
0000
0000
ENDCHAR
STARTCHAR U+0168
ENCODING 360
SWIDTH 450 0
DWIDTH 9 0
BBX 9 20 0 -4
BITMAP
3300
4C00
0000
4100
4100
4100
4100
4100
4100
4100
4100
4100
4100
4100
2200
1C00
0000
0000
0000
0000
ENDCHAR
STARTCHAR U+0169
ENCODING 361
SWIDTH 450 0
DWIDTH 9 0
BBX 9 20 0 -4
BITMAP
0000
0000
0000
0000
3300
4C00
0000
4100
4100
4100
4100
4100
4100
4100
2300
1D00
0000
0000
0000
0000
ENDCHAR
STARTCHAR U+016A
ENCODING 362
SWIDTH 450 0
DWIDTH 9 0
BBX 9 20 0 -4
BITMAP
0000
3E00
0000
4100
4100
4100
4100
4100
4100
4100
4100
4100
4100
4100
2200
1C00
0000
0000
0000
0000
ENDCHAR
STARTCHAR U+016B
ENCODING 363
SWIDTH 450 0
DWIDTH 9 0
BBX 9 20 0 -4
BITMAP
0000
0000
0000
0000
0000
3E00
0000
4100
4100
4100
4100
4100
4100
4100
2300
1D00
0000
0000
0000
0000
ENDCHAR
STARTCHAR U+016C
ENCODING 364
SWIDTH 450 0
DWIDTH 9 0
BBX 9 20 0 -4
BITMAP
2200
1C00
0000
4100
4100
4100
4100
4100
4100
4100
4100
4100
4100
4100
2200
1C00
0000
0000
0000
0000
ENDCHAR
STARTCHAR U+016D
ENCODING 365
SWIDTH 450 0
DWIDTH 9 0
BBX 9 20 0 -4
BITMAP
0000
0000
0000
0000
2200
1C00
0000
4100
4100
4100
4100
4100
4100
4100
2300
1D00
0000
0000
0000
0000
ENDCHAR
STARTCHAR U+016E
ENCODING 366
SWIDTH 450 0
DWIDTH 9 0
BBX 9 20 0 -4
BITMAP
0800
1400
0800
4100
4100
4100
4100
4100
4100
4100
4100
4100
4100
4100
2200
1C00
0000
0000
0000
0000
ENDCHAR
STARTCHAR U+016F
ENCODING 367
SWIDTH 450 0
DWIDTH 9 0
BBX 9 20 0 -4
BITMAP
0000
0000
0000
0800
1400
0800
0000
4100
4100
4100
4100
4100
4100
4100
2300
1D00
0000
0000
0000
0000
ENDCHAR
STARTCHAR U+0170
ENCODING 368
SWIDTH 450 0
DWIDTH 9 0
BBX 9 20 0 -4
BITMAP
1200
2400
0000
4100
4100
4100
4100
4100
4100
4100
4100
4100
4100
4100
2200
1C00
0000
0000
0000
0000
ENDCHAR
STARTCHAR U+0171
ENCODING 369
SWIDTH 450 0
DWIDTH 9 0
BBX 9 20 0 -4
BITMAP
0000
0000
0000
0000
1200
2400
0000
4100
4100
4100
4100
4100
4100
4100
2300
1D00
0000
0000
0000
0000
ENDCHAR
STARTCHAR U+0172
ENCODING 370
SWIDTH 450 0
DWIDTH 9 0
BBX 9 20 0 -4
BITMAP
0000
0000
0000
4100
4100
4100
4100
4100
4100
4100
4100
4100
4100
4100
2200
1C00
0800
1000
0C00
0000
ENDCHAR
STARTCHAR U+0173
ENCODING 371
SWIDTH 450 0
DWIDTH 9 0
BBX 9 20 0 -4
BITMAP
0000
0000
0000
0000
0000
0000
0000
4100
4100
4100
4100
4100
4100
4100
2300
1D00
0100
0200
0180
0000
ENDCHAR
STARTCHAR U+0174
ENCODING 372
SWIDTH 450 0
DWIDTH 9 0
BBX 9 20 0 -4
BITMAP
0800
1400
0000
4100
4100
4100
4100
4100
4900
4900
5500
5500
6300
6300
4100
4100
0000
0000
0000
0000
ENDCHAR
STARTCHAR U+0175
ENCODING 373
SWIDTH 450 0
DWIDTH 9 0
BBX 9 20 0 -4
BITMAP
0000
0000
0000
0000
0800
1400
0000
4100
4900
4900
4900
5500
5500
2200
2200
2200
0000
0000
0000
0000
ENDCHAR
STARTCHAR U+0176
ENCODING 374
SWIDTH 450 0
DWIDTH 9 0
BBX 9 20 0 -4
BITMAP
0800
1400
0000
4100
4100
2200
2200
1400
1400
0800
0800
0800
0800
0800
0800
0800
0000
0000
0000
0000
ENDCHAR
STARTCHAR U+0177
ENCODING 375
SWIDTH 450 0
DWIDTH 9 0
BBX 9 20 0 -4
BITMAP
0000
0000
0000
0000
0800
1400
0000
4100
4100
4100
2200
2200
1400
1400
0800
0800
1000
1000
6000
0000
ENDCHAR
STARTCHAR U+0178
ENCODING 376
SWIDTH 450 0
DWIDTH 9 0
BBX 9 20 0 -4
BITMAP
2200
2200
0000
4100
4100
2200
2200
1400
1400
0800
0800
0800
0800
0800
0800
0800
0000
0000
0000
0000
ENDCHAR
STARTCHAR U+0179
ENCODING 377
SWIDTH 450 0
DWIDTH 9 0
BBX 9 20 0 -4
BITMAP
0400
0800
0000
7F00
0100
0100
0100
0200
0400
0800
1000
2000
4000
4000
4000
7F00
0000
0000
0000
0000
ENDCHAR
STARTCHAR U+017A
ENCODING 378
SWIDTH 450 0
DWIDTH 9 0
BBX 9 20 0 -4
BITMAP
0000
0000
0000
0000
0400
0800
0000
7F00
0100
0200
0400
0800
1000
2000
4000
7F00
0000
0000
0000
0000
ENDCHAR
STARTCHAR U+017B
ENCODING 379
SWIDTH 450 0
DWIDTH 9 0
BBX 9 20 0 -4
BITMAP
0800
0800
0000
7F00
0100
0100
0100
0200
0400
0800
1000
2000
4000
4000
4000
7F00
0000
0000
0000
0000
ENDCHAR
STARTCHAR U+017C
ENCODING 380
SWIDTH 450 0
DWIDTH 9 0
BBX 9 20 0 -4
BITMAP
0000
0000
0000
0000
0800
0800
0000
7F00
0100
0200
0400
0800
1000
2000
4000
7F00
0000
0000
0000
0000
ENDCHAR
STARTCHAR U+017D
ENCODING 381
SWIDTH 450 0
DWIDTH 9 0
BBX 9 20 0 -4
BITMAP
1400
0800
0000
7F00
0100
0100
0100
0200
0400
0800
1000
2000
4000
4000
4000
7F00
0000
0000
0000
0000
ENDCHAR
STARTCHAR U+017E
ENCODING 382
SWIDTH 450 0
DWIDTH 9 0
BBX 9 20 0 -4
BITMAP
0000
0000
0000
0000
1400
0800
0000
7F00
0100
0200
0400
0800
1000
2000
4000
7F00
0000
0000
0000
0000
ENDCHAR
STARTCHAR U+017F
ENCODING 383
SWIDTH 450 0
DWIDTH 9 0
BBX 9 20 0 -4
BITMAP
0000
0000
0000
0700
0800
0800
0800
3800
0800
0800
0800
0800
0800
0800
0800
0800
0000
0000
0000
0000
ENDCHAR
STARTCHAR U+0180
ENCODING 384
SWIDTH 450 0
DWIDTH 9 0
BBX 9 20 0 -4
BITMAP
0000
0000
0000
4000
4000
F000
4000
5C00
6200
4100
4100
4100
4100
4100
6200
5C00
0000
0000
0000
0000
ENDCHAR
STARTCHAR U+0181
ENCODING 385
SWIDTH 450 0
DWIDTH 9 0
BBX 9 20 0 -4
BITMAP
0000
0000
0000
7C00
A200
2100
2100
2200
3C00
2200
2100
2100
2100
2100
2200
3C00
0000
0000
0000
0000
ENDCHAR
STARTCHAR U+0182
ENCODING 386
SWIDTH 450 0
DWIDTH 9 0
BBX 9 20 0 -4
BITMAP
0000
0000
0000
7E00
4000
4000
4000
4000
7C00
4200
4100
4100
4100
4100
4200
7C00
0000
0000
0000
0000
ENDCHAR
STARTCHAR U+0183
ENCODING 387
SWIDTH 450 0
DWIDTH 9 0
BBX 9 20 0 -4
BITMAP
0000
0000
0000
7E00
4000
4000
4000
5C00
6200
4100
4100
4100
4100
4100
6200
5C00
0000
0000
0000
0000
ENDCHAR
STARTCHAR U+0184
ENCODING 388
SWIDTH 450 0
DWIDTH 9 0
BBX 9 20 0 -4
BITMAP
0000
0000
0000
4000
C000
C000
4000
4000
7C00
4200
4100
4100
4100
4100
4200
7C00
0000
0000
0000
0000
ENDCHAR
STARTCHAR U+0185
ENCODING 389
SWIDTH 450 0
DWIDTH 9 0
BBX 9 20 0 -4
BITMAP
0000
0000
0000
4000
C000
C000
4000
5C00
6200
4100
4100
4100
4100
4100
6200
5C00
0000
0000
0000
0000
ENDCHAR
STARTCHAR U+0186
ENCODING 390
SWIDTH 450 0
DWIDTH 9 0
BBX 9 20 0 -4
BITMAP
0000
0000
0000
1C00
2200
4100
0100
0100
0100
0100
0100
0100
0100
4100
2200
1C00
0000
0000
0000
0000
ENDCHAR
STARTCHAR U+0187
ENCODING 391
SWIDTH 450 0
DWIDTH 9 0
BBX 9 20 0 -4
BITMAP
0000
0000
0180
1A00
2600
4200
4000
4000
4000
4000
4000
4000
4000
4200
2400
1800
0000
0000
0000
0000
ENDCHAR
STARTCHAR U+0188
ENCODING 392
SWIDTH 450 0
DWIDTH 9 0
BBX 9 20 0 -4
BITMAP
0000
0000
0000
0000
0000
0180
0200
3E00
4200
8000
8000
8000
8000
8000
4200
3C00
0000
0000
0000
0000
ENDCHAR
STARTCHAR U+0189
ENCODING 393
SWIDTH 450 0
DWIDTH 9 0
BBX 9 20 0 -4
BITMAP
0000
0000
0000
7C00
4200
4100
4100
4100
4100
F100
4100
4100
4100
4100
4200
7C00
0000
0000
0000
0000
ENDCHAR
STARTCHAR U+018A
ENCODING 394
SWIDTH 450 0
DWIDTH 9 0
BBX 9 20 0 -4
BITMAP
0000
0000
0000
7C00
A200
A100
2100
2100
2100
2100
2100
2100
2100
2100
2200
3C00
0000
0000
0000
0000
ENDCHAR
STARTCHAR U+018B
ENCODING 395
SWIDTH 450 0
DWIDTH 9 0
BBX 9 20 0 -4
BITMAP
0000
0000
0000
3F00
0100
0100
0100
0100
1F00
2100
4100
4100
4100
4100
2100
1F00
0000
0000
0000
0000
ENDCHAR
STARTCHAR U+018C
ENCODING 396
SWIDTH 450 0
DWIDTH 9 0
BBX 9 20 0 -4
BITMAP
0000
0000
0000
3F00
0100
0100
0100
1D00
2300
4100
4100
4100
4100
4100
2300
1D00
0000
0000
0000
0000
ENDCHAR
STARTCHAR U+018D
ENCODING 397
SWIDTH 450 0
DWIDTH 9 0
BBX 9 20 0 -4
BITMAP
0000
0000
0000
0000
0000
0000
0000
1C00
2200
4100
4100
4100
4100
4100
2200
1C00
1000
0800
2400
1800
ENDCHAR
STARTCHAR U+018E
ENCODING 398
SWIDTH 450 0
DWIDTH 9 0
BBX 9 20 0 -4
BITMAP
0000
0000
0000
7F00
0100
0100
0100
0100
0100
1F00
0100
0100
0100
0100
0100
7F00
0000
0000
0000
0000
ENDCHAR
STARTCHAR U+018F
ENCODING 399
SWIDTH 450 0
DWIDTH 9 0
BBX 9 20 0 -4
BITMAP
0000
0000
0000
1C00
2200
4100
0100
0100
0100
7F00
4100
4100
4100
4100
2200
1C00
0000
0000
0000
0000
ENDCHAR
STARTCHAR U+0190
ENCODING 400
SWIDTH 450 0
DWIDTH 9 0
BBX 9 20 0 -4
BITMAP
0000
0000
0000
1C00
2200
4100
4000
4000
2000
1C00
2000
4000
4000
4100
2200
1C00
0000
0000
0000
0000
ENDCHAR
STARTCHAR U+0191
ENCODING 401
SWIDTH 450 0
DWIDTH 9 0
BBX 9 20 0 -4
BITMAP
0000
0000
0000
3F00
2000
2000
2000
2000
2000
3C00
2000
2000
2000
2000
2000
2000
2000
2000
C000
0000
ENDCHAR
STARTCHAR U+0192
ENCODING 402
SWIDTH 450 0
DWIDTH 9 0
BBX 9 20 0 -4
BITMAP
0000
0000
0000
0700
0800
0800
0800
3E00
0800
0800
0800
0800
0800
0800
0800
0800
0800
0800
3000
0000
ENDCHAR
STARTCHAR U+0193
ENCODING 403
SWIDTH 450 0
DWIDTH 9 0
BBX 9 20 0 -4
BITMAP
0000
0000
0180
1A00
2600
4200
4000
4000
4000
4000
4E00
4200
4200
4200
2600
1A00
0000
0000
0000
0000
ENDCHAR
STARTCHAR U+0194
ENCODING 404
SWIDTH 450 0
DWIDTH 9 0
BBX 9 20 0 -4
BITMAP
0000
0000
0000
4100
4100
4100
2200
2200
2200
2200
1400
1400
0800
1400
1400
0800
0000
0000
0000
0000
ENDCHAR
STARTCHAR U+0195
ENCODING 405
SWIDTH 450 0
DWIDTH 9 0
BBX 9 20 0 -4
BITMAP
0000
0000
0000
4000
4000
4000
4000
5000
6900
4900
4900
4900
4900
4900
4900
4600
0000
0000
0000
0000
ENDCHAR
STARTCHAR U+0196
ENCODING 406
SWIDTH 450 0
DWIDTH 9 0
BBX 9 20 0 -4
BITMAP
0000
0000
0000
1800
0800
0800
0800
0800
0800
0800
0800
0800
0800
0800
0800
0600
0000
0000
0000
0000
ENDCHAR
STARTCHAR U+0197
ENCODING 407
SWIDTH 450 0
DWIDTH 9 0
BBX 9 20 0 -4
BITMAP
0000
0000
0000
1C00
0800
0800
0800
0800
0800
3E00
0800
0800
0800
0800
0800
1C00
0000
0000
0000
0000
ENDCHAR
STARTCHAR U+0198
ENCODING 408
SWIDTH 450 0
DWIDTH 9 0
BBX 9 20 0 -4
BITMAP
0000
0000
0000
4100
4280
4400
4800
5000
6000
6000
5000
4800
4400
4200
4100
4100
0000
0000
0000
0000
ENDCHAR
STARTCHAR U+0199
ENCODING 409
SWIDTH 450 0
DWIDTH 9 0
BBX 9 20 0 -4
BITMAP
0000
0000
2000
5000
4000
4000
4000
4100
4200
4400
4800
7000
4800
4400
4200
4100
0000
0000
0000
0000
ENDCHAR
STARTCHAR U+019A
ENCODING 410
SWIDTH 450 0
DWIDTH 9 0
BBX 9 20 0 -4
BITMAP
0000
0000
0000
1800
0800
0800
0800
0800
0800
3E00
0800
0800
0800
0800
0800
0600
0000
0000
0000
0000
ENDCHAR
STARTCHAR U+019B
ENCODING 411
SWIDTH 450 0
DWIDTH 9 0
BBX 9 20 0 -4
BITMAP
0000
0000
0000
0000
6400
1800
1000
2800
4800
1400
1400
2200
2200
4100
4100
4100
0000
0000
0000
0000
ENDCHAR
STARTCHAR U+019C
ENCODING 412
SWIDTH 450 0
DWIDTH 9 0
BBX 9 20 0 -4
BITMAP
0000
0000
0000
4900
4900
4900
4900
4900
4900
4900
4900
4900
4900
4900
4900
3700
0000
0000
0000
0000
ENDCHAR
STARTCHAR U+019D
ENCODING 413
SWIDTH 450 0
DWIDTH 9 0
BBX 9 20 0 -4
BITMAP
0000
0000
0000
4100
4100
6100
6100
5100
5100
4900
4900
4500
4500
4300
4300
4100
4000
8000
0000
0000
ENDCHAR
STARTCHAR U+019E
ENCODING 414
SWIDTH 450 0
DWIDTH 9 0
BBX 9 20 0 -4
BITMAP
0000
0000
0000
0000
0000
0000
0000
5C00
6200
4100
4100
4100
4100
4100
4100
4100
0100
0100
0100
0000
ENDCHAR
STARTCHAR U+019F
ENCODING 415
SWIDTH 450 0
DWIDTH 9 0
BBX 9 20 0 -4
BITMAP
0000
0000
0000
1C00
2200
4100
4100
4100
4100
7F00
4100
4100
4100
4100
2200
1C00
0000
0000
0000
0000
ENDCHAR
STARTCHAR U+01A0
ENCODING 416
SWIDTH 450 0
DWIDTH 9 0
BBX 9 20 0 -4
BITMAP
0000
0180
0080
1900
2400
4200
4200
4200
4200
4200
4200
4200
4200
4200
2400
1800
0000
0000
0000
0000
ENDCHAR
STARTCHAR U+01A1
ENCODING 417
SWIDTH 450 0
DWIDTH 9 0
BBX 9 20 0 -4
BITMAP
0000
0000
0000
0000
0000
0180
0080
1900
2400
4200
4200
4200
4200
4200
2400
1800
0000
0000
0000
0000
ENDCHAR
STARTCHAR U+01A2
ENCODING 418
SWIDTH 450 0
DWIDTH 9 0
BBX 9 20 0 -4
BITMAP
0000
0000
0000
3080
4980
8680
8480
8480
8480
8480
8480
8480
8480
8480
4880
3080
0080
0080
0000
0000
ENDCHAR
STARTCHAR U+01A3
ENCODING 419
SWIDTH 450 0
DWIDTH 9 0
BBX 9 20 0 -4
BITMAP
0000
0000
0000
0000
0000
0000
0000
3900
4700
4500
4500
4500
4500
4500
4500
3900
0100
0100
0100
0000
ENDCHAR
STARTCHAR U+01A4
ENCODING 420
SWIDTH 450 0
DWIDTH 9 0
BBX 9 20 0 -4
BITMAP
0000
0000
0000
7C00
A200
2100
2100
2100
2100
2200
3C00
2000
2000
2000
2000
2000
0000
0000
0000
0000
ENDCHAR
STARTCHAR U+01A5
ENCODING 421
SWIDTH 450 0
DWIDTH 9 0
BBX 9 20 0 -4
BITMAP
0000
0000
0000
0000
2000
5000
4000
5C00
6200
4100
4100
4100
4100
4100
6200
5C00
4000
4000
4000
0000
ENDCHAR
STARTCHAR U+01A6
ENCODING 422
SWIDTH 450 0
DWIDTH 9 0
BBX 9 20 0 -4
BITMAP
0000
0000
0000
4000
4000
7C00
4200
4100
4100
4100
4200
7C00
5000
4800
4400
4200
0100
0080
0000
0000
ENDCHAR
STARTCHAR U+01A7
ENCODING 423
SWIDTH 450 0
DWIDTH 9 0
BBX 9 20 0 -4
BITMAP
0000
0000
0000
1C00
2200
4100
0100
0100
0200
1C00
2000
4000
4000
4100
2200
1C00
0000
0000
0000
0000
ENDCHAR
STARTCHAR U+01A8
ENCODING 424
SWIDTH 450 0
DWIDTH 9 0
BBX 9 20 0 -4
BITMAP
0000
0000
0000
0000
0000
0000
0000
3E00
4100
0100
0100
3E00
4000
4000
4100
3E00
0000
0000
0000
0000
ENDCHAR
STARTCHAR U+01A9
ENCODING 425
SWIDTH 450 0
DWIDTH 9 0
BBX 9 20 0 -4
BITMAP
0000
0000
0000
7F00
4000
2000
1000
0800
0400
0200
0400
0800
1000
2000
4000
7F00
0000
0000
0000
0000
ENDCHAR
STARTCHAR U+01AA
ENCODING 426
SWIDTH 450 0
DWIDTH 9 0
BBX 9 20 0 -4
BITMAP
0000
0000
0000
6000
9000
7800
1000
1000
1000
1000
1000
1000
1000
1000
1000
1000
1000
1000
0E00
0000
ENDCHAR
STARTCHAR U+01AB
ENCODING 427
SWIDTH 450 0
DWIDTH 9 0
BBX 9 20 0 -4
BITMAP
0000
0000
0000
0000
0000
0800
0800
3E00
0800
0800
0800
0800
0800
0800
0800
0700
0100
0100
0600
0000
ENDCHAR
STARTCHAR U+01AC
ENCODING 428
SWIDTH 450 0
DWIDTH 9 0
BBX 9 20 0 -4
BITMAP
0000
0000
0000
7F00
8800
8800
0800
0800
0800
0800
0800
0800
0800
0800
0800
0800
0000
0000
0000
0000
ENDCHAR
STARTCHAR U+01AD
ENCODING 429
SWIDTH 450 0
DWIDTH 9 0
BBX 9 20 0 -4
BITMAP
0000
0000
0000
0600
0800
0800
0800
3E00
0800
0800
0800
0800
0800
0800
0800
0700
0000
0000
0000
0000
ENDCHAR
STARTCHAR U+01AE
ENCODING 430
SWIDTH 450 0
DWIDTH 9 0
BBX 9 20 0 -4
BITMAP
0000
0000
0000
7F00
0800
0800
0800
0800
0800
0800
0800
0800
0800
0800
0800
0800
0800
0600
0000
0000
ENDCHAR
STARTCHAR U+01AF
ENCODING 431
SWIDTH 450 0
DWIDTH 9 0
BBX 9 20 0 -4
BITMAP
0000
0080
0080
4300
4200
4200
4200
4200
4200
4200
4200
4200
4200
4200
2400
1800
0000
0000
0000
0000
ENDCHAR
STARTCHAR U+01B0
ENCODING 432
SWIDTH 450 0
DWIDTH 9 0
BBX 9 20 0 -4
BITMAP
0000
0000
0000
0000
0000
0080
0080
4300
4200
4200
4200
4200
4200
4200
2600
1A00
0000
0000
0000
0000
ENDCHAR
STARTCHAR U+01B1
ENCODING 433
SWIDTH 450 0
DWIDTH 9 0
BBX 9 20 0 -4
BITMAP
0000
0000
0000
7700
1400
1400
2200
4100
4100
4100
4100
4100
4100
4100
2200
1C00
0000
0000
0000
0000
ENDCHAR
STARTCHAR U+01B2
ENCODING 434
SWIDTH 450 0
DWIDTH 9 0
BBX 9 20 0 -4
BITMAP
0000
0000
0000
4200
4200
4100
4100
4100
4080
4080
4080
4080
4080
4100
2100
1E00
0000
0000
0000
0000
ENDCHAR
STARTCHAR U+01B3
ENCODING 435
SWIDTH 450 0
DWIDTH 9 0
BBX 9 20 0 -4
BITMAP
0000
0000
0000
4300
4400
4400
2800
2800
2800
1000
1000
1000
1000
1000
1000
1000
0000
0000
0000
0000
ENDCHAR
STARTCHAR U+01B4
ENCODING 436
SWIDTH 450 0
DWIDTH 9 0
BBX 9 20 0 -4
BITMAP
0000
0000
0000
0000
0000
0180
0200
4200
4400
4400
2800
2800
2800
1000
1000
1000
2000
2000
4000
0000
ENDCHAR
STARTCHAR U+01B5
ENCODING 437
SWIDTH 450 0
DWIDTH 9 0
BBX 9 20 0 -4
BITMAP
0000
0000
0000
7F00
0100
0100
0100
0200
0400
3E00
1000
2000
4000
4000
4000
7F00
0000
0000
0000
0000
ENDCHAR
STARTCHAR U+01B6
ENCODING 438
SWIDTH 450 0
DWIDTH 9 0
BBX 9 20 0 -4
BITMAP
0000
0000
0000
0000
0000
0000
0000
7F00
0100
0200
0400
3E00
1000
2000
4000
7F00
0000
0000
0000
0000
ENDCHAR
STARTCHAR U+01B7
ENCODING 439
SWIDTH 450 0
DWIDTH 9 0
BBX 9 20 0 -4
BITMAP
0000
0000
0000
7F00
0100
0200
0400
0800
1C00
0200
0100
0100
0100
4100
2200
1C00
0000
0000
0000
0000
ENDCHAR
STARTCHAR U+01B8
ENCODING 440
SWIDTH 450 0
DWIDTH 9 0
BBX 9 20 0 -4
BITMAP
0000
0000
0000
7F00
4000
2000
1000
0800
1C00
2000
4000
4000
4000
4100
2200
1C00
0000
0000
0000
0000
ENDCHAR
STARTCHAR U+01B9
ENCODING 441
SWIDTH 450 0
DWIDTH 9 0
BBX 9 20 0 -4
BITMAP
0000
0000
0000
0000
0000
0000
0000
7F00
4000
2000
1000
0800
1C00
2000
4000
4000
4100
2200
1C00
0000
ENDCHAR
STARTCHAR U+01BA
ENCODING 442
SWIDTH 450 0
DWIDTH 9 0
BBX 9 20 0 -4
BITMAP
0000
0000
0000
0000
0000
0000
0000
7F00
0100
0200
0400
0800
1C00
0200
0100
1E00
2000
2100
1E00
0000
ENDCHAR
STARTCHAR U+01BB
ENCODING 443
SWIDTH 450 0
DWIDTH 9 0
BBX 9 20 0 -4
BITMAP
0000
0000
0000
1C00
2200
4100
4100
0100
0100
0200
3F00
0800
1000
2000
4000
7F00
0000
0000
0000
0000
ENDCHAR
STARTCHAR U+01BC
ENCODING 444
SWIDTH 450 0
DWIDTH 9 0
BBX 9 20 0 -4
BITMAP
0000
0000
0000
FF00
4100
4000
4000
4000
7C00
0200
0100
0100
0100
4100
2200
1C00
0000
0000
0000
0000
ENDCHAR
STARTCHAR U+01BD
ENCODING 445
SWIDTH 450 0
DWIDTH 9 0
BBX 9 20 0 -4
BITMAP
0000
0000
0000
0000
0000
0000
0000
7F00
2100
2000
3C00
0200
0100
0100
2200
1C00
0000
0000
0000
0000
ENDCHAR
STARTCHAR U+01BE
ENCODING 446
SWIDTH 450 0
DWIDTH 9 0
BBX 9 20 0 -4
BITMAP
0000
0000
0000
0000
0000
1000
1000
7C00
1000
1000
1000
0E00
0100
0100
4100
3E00
0000
0000
0000
0000
ENDCHAR
STARTCHAR U+01BF
ENCODING 447
SWIDTH 450 0
DWIDTH 9 0
BBX 9 20 0 -4
BITMAP
0000
0000
0000
0000
0000
0000
0000
5C00
6200
4100
4100
4100
4100
4200
4400
4800
7000
4000
4000
0000
ENDCHAR
STARTCHAR U+01C0
ENCODING 448
SWIDTH 450 0
DWIDTH 9 0
BBX 9 20 0 -4
BITMAP
0000
0000
0000
0800
0800
0800
0800
0800
0800
0800
0800
0800
0800
0800
0800
0800
0000
0000
0000
0000
ENDCHAR
STARTCHAR U+01C1
ENCODING 449
SWIDTH 450 0
DWIDTH 9 0
BBX 9 20 0 -4
BITMAP
0000
0000
0000
1400
1400
1400
1400
1400
1400
1400
1400
1400
1400
1400
1400
1400
0000
0000
0000
0000
ENDCHAR
STARTCHAR U+01C2
ENCODING 450
SWIDTH 450 0
DWIDTH 9 0
BBX 9 20 0 -4
BITMAP
0000
0000
0000
0800
0800
0800
0800
3E00
0800
3E00
0800
0800
0800
0800
0800
0800
0000
0000
0000
0000
ENDCHAR
STARTCHAR U+01C3
ENCODING 451
SWIDTH 450 0
DWIDTH 9 0
BBX 9 20 0 -4
BITMAP
0000
0000
0000
0800
0800
0800
0800
0800
0800
0800
0800
0800
0800
0000
0800
0800
0000
0000
0000
0000
ENDCHAR
STARTCHAR U+01C4
ENCODING 452
SWIDTH 450 0
DWIDTH 9 0
BBX 9 20 0 -4
BITMAP
0500
0200
0000
C780
A080
9080
9100
9100
9100
9200
9200
9200
9200
9400
A400
C780
0000
0000
0000
0000
ENDCHAR
STARTCHAR U+01C5
ENCODING 453
SWIDTH 450 0
DWIDTH 9 0
BBX 9 20 0 -4
BITMAP
0000
0000
0000
C000
A500
9200
9000
9780
9080
9100
9100
9200
9200
9400
A400
C780
0000
0000
0000
0000
ENDCHAR
STARTCHAR U+01C6
ENCODING 454
SWIDTH 450 0
DWIDTH 9 0
BBX 9 20 0 -4
BITMAP
0000
0000
0000
1000
1500
1200
1000
5780
B080
9100
9100
9200
9200
9400
B400
5780
0000
0000
0000
0000
ENDCHAR
STARTCHAR U+01C7
ENCODING 455
SWIDTH 450 0
DWIDTH 9 0
BBX 9 20 0 -4
BITMAP
0000
0000
0000
8080
8080
8080
8080
8080
8080
8080
8080
8080
8080
8080
8480
F300
0000
0000
0000
0000
ENDCHAR
STARTCHAR U+01C8
ENCODING 456
SWIDTH 450 0
DWIDTH 9 0
BBX 9 20 0 -4
BITMAP
0000
0000
0000
4000
4100
4100
4000
4100
4100
4100
4100
4100
4100
4100
4100
7D00
0100
0100
0E00
0000
ENDCHAR
STARTCHAR U+01C9
ENCODING 457
SWIDTH 450 0
DWIDTH 9 0
BBX 9 20 0 -4
BITMAP
0000
0000
0000
6000
2100
2100
2000
2100
2100
2100
2100
2100
2100
2100
2100
1900
0100
0100
0E00
0000
ENDCHAR
STARTCHAR U+01CA
ENCODING 458
SWIDTH 450 0
DWIDTH 9 0
BBX 9 20 0 -4
BITMAP
0000
0000
0000
8880
8880
C880
C880
C880
A880
A880
A880
9880
9880
9880
8A80
8900
0000
0000
0000
0000
ENDCHAR
STARTCHAR U+01CB
ENCODING 459
SWIDTH 450 0
DWIDTH 9 0
BBX 9 20 0 -4
BITMAP
0000
0000
0000
8400
8500
C500
C400
A500
A500
9500
9500
8D00
8D00
8500
8500
8500
0100
0100
0E00
0000
ENDCHAR
STARTCHAR U+01CC
ENCODING 460
SWIDTH 450 0
DWIDTH 9 0
BBX 9 20 0 -4
BITMAP
0000
0000
0000
0000
0100
0100
0000
B100
C900
8500
8500
8500
8500
8500
8500
8500
0100
0100
0E00
0000
ENDCHAR
STARTCHAR U+01CD
ENCODING 461
SWIDTH 450 0
DWIDTH 9 0
BBX 9 20 0 -4
BITMAP
1400
0800
0000
0800
0800
1400
1400
1400
2200
2200
2200
2200
7F00
4100
4100
4100
0000
0000
0000
0000
ENDCHAR
STARTCHAR U+01CE
ENCODING 462
SWIDTH 450 0
DWIDTH 9 0
BBX 9 20 0 -4
BITMAP
0000
0000
0000
0000
0A00
0400
0000
1E00
2100
0100
1F00
2100
4100
4100
2300
1D00
0000
0000
0000
0000
ENDCHAR
STARTCHAR U+01CF
ENCODING 463
SWIDTH 450 0
DWIDTH 9 0
BBX 9 20 0 -4
BITMAP
1400
0800
0000
1C00
0800
0800
0800
0800
0800
0800
0800
0800
0800
0800
0800
1C00
0000
0000
0000
0000
ENDCHAR
STARTCHAR U+01D0
ENCODING 464
SWIDTH 450 0
DWIDTH 9 0
BBX 9 20 0 -4
BITMAP
0000
0000
0000
1400
0800
0000
0000
1800
0800
0800
0800
0800
0800
0800
0800
0800
0000
0000
0000
0000
ENDCHAR
STARTCHAR U+01D1
ENCODING 465
SWIDTH 450 0
DWIDTH 9 0
BBX 9 20 0 -4
BITMAP
1400
0800
0000
1C00
2200
4100
4100
4100
4100
4100
4100
4100
4100
4100
2200
1C00
0000
0000
0000
0000
ENDCHAR
STARTCHAR U+01D2
ENCODING 466
SWIDTH 450 0
DWIDTH 9 0
BBX 9 20 0 -4
BITMAP
0000
0000
0000
0000
1400
0800
0000
1C00
2200
4100
4100
4100
4100
4100
2200
1C00
0000
0000
0000
0000
ENDCHAR
STARTCHAR U+01D3
ENCODING 467
SWIDTH 450 0
DWIDTH 9 0
BBX 9 20 0 -4
BITMAP
1400
0800
0000
4100
4100
4100
4100
4100
4100
4100
4100
4100
4100
4100
2200
1C00
0000
0000
0000
0000
ENDCHAR
STARTCHAR U+01D4
ENCODING 468
SWIDTH 450 0
DWIDTH 9 0
BBX 9 20 0 -4
BITMAP
0000
0000
0000
0000
1400
0800
0000
4100
4100
4100
4100
4100
4100
4100
2300
1D00
0000
0000
0000
0000
ENDCHAR
STARTCHAR U+01D5
ENCODING 469
SWIDTH 450 0
DWIDTH 9 0
BBX 9 20 0 -4
BITMAP
3E00
0000
1400
4100
4100
4100
4100
4100
4100
4100
4100
4100
4100
4100
2200
1C00
0000
0000
0000
0000
ENDCHAR
STARTCHAR U+01D6
ENCODING 470
SWIDTH 450 0
DWIDTH 9 0
BBX 9 20 0 -4
BITMAP
0000
0000
3E00
0000
2200
2200
0000
4100
4100
4100
4100
4100
4100
4100
2300
1D00
0000
0000
0000
0000
ENDCHAR
STARTCHAR U+01D7
ENCODING 471
SWIDTH 450 0
DWIDTH 9 0
BBX 9 20 0 -4
BITMAP
0400
0800
0000
5500
4100
4100
4100
4100
4100
4100
4100
4100
4100
4100
2200
1C00
0000
0000
0000
0000
ENDCHAR
STARTCHAR U+01D8
ENCODING 472
SWIDTH 450 0
DWIDTH 9 0
BBX 9 20 0 -4
BITMAP
0000
0000
0400
0800
2200
2200
0000
4100
4100
4100
4100
4100
4100
4100
2300
1D00
0000
0000
0000
0000
ENDCHAR
STARTCHAR U+01D9
ENCODING 473
SWIDTH 450 0
DWIDTH 9 0
BBX 9 20 0 -4
BITMAP
2200
1C00
0000
5500
4100
4100
4100
4100
4100
4100
4100
4100
4100
4100
2200
1C00
0000
0000
0000
0000
ENDCHAR
STARTCHAR U+01DA
ENCODING 474
SWIDTH 450 0
DWIDTH 9 0
BBX 9 20 0 -4
BITMAP
0000
2200
1C00
0000
2200
2200
0000
4100
4100
4100
4100
4100
4100
4100
2300
1D00
0000
0000
0000
0000
ENDCHAR
STARTCHAR U+01DB
ENCODING 475
SWIDTH 450 0
DWIDTH 9 0
BBX 9 20 0 -4
BITMAP
1000
0800
0000
5500
4100
4100
4100
4100
4100
4100
4100
4100
4100
4100
2200
1C00
0000
0000
0000
0000
ENDCHAR
STARTCHAR U+01DC
ENCODING 476
SWIDTH 450 0
DWIDTH 9 0
BBX 9 20 0 -4
BITMAP
0000
0000
1000
0800
2200
2200
0000
4100
4100
4100
4100
4100
4100
4100
2300
1D00
0000
0000
0000
0000
ENDCHAR
STARTCHAR U+01DD
ENCODING 477
SWIDTH 450 0
DWIDTH 9 0
BBX 9 20 0 -4
BITMAP
0000
0000
0000
0000
0000
0000
0000
3C00
4200
0100
0100
7F00
4100
4100
2200
1C00
0000
0000
0000
0000
ENDCHAR
STARTCHAR U+01DE
ENCODING 478
SWIDTH 450 0
DWIDTH 9 0
BBX 9 20 0 -4
BITMAP
3E00
0000
1400
0000
0800
1400
1400
1400
2200
2200
2200
2200
7F00
4100
4100
4100
0000
0000
0000
0000
ENDCHAR
STARTCHAR U+01DF
ENCODING 479
SWIDTH 450 0
DWIDTH 9 0
BBX 9 20 0 -4
BITMAP
0000
0000
0000
3E00
0000
2200
0000
1E00
2100
0100
1F00
2100
4100
4100
2300
1D00
0000
0000
0000
0000
ENDCHAR
STARTCHAR U+01E0
ENCODING 480
SWIDTH 450 0
DWIDTH 9 0
BBX 9 20 0 -4
BITMAP
3E00
0000
0800
0000
0800
1400
1400
1400
2200
2200
2200
2200
7F00
4100
4100
4100
0000
0000
0000
0000
ENDCHAR
STARTCHAR U+01E1
ENCODING 481
SWIDTH 450 0
DWIDTH 9 0
BBX 9 20 0 -4
BITMAP
0000
0000
0000
3E00
0000
0800
0000
1E00
2100
0100
1F00
2100
4100
4100
2300
1D00
0000
0000
0000
0000
ENDCHAR
STARTCHAR U+01E2
ENCODING 482
SWIDTH 450 0
DWIDTH 9 0
BBX 9 20 0 -4
BITMAP
0000
1F00
0000
1F80
2800
2800
2800
2800
4800
7F00
4800
4800
8800
8800
8800
8F80
0000
0000
0000
0000
ENDCHAR
STARTCHAR U+01E3
ENCODING 483
SWIDTH 450 0
DWIDTH 9 0
BBX 9 20 0 -4
BITMAP
0000
0000
0000
0000
0000
3E00
0000
7700
8880
0880
0880
7F00
8800
8800
8880
7700
0000
0000
0000
0000
ENDCHAR
STARTCHAR U+01E4
ENCODING 484
SWIDTH 450 0
DWIDTH 9 0
BBX 9 20 0 -4
BITMAP
0000
0000
0000
1C00
2200
4100
4000
4000
4000
4000
4700
4100
4780
4100
2300
1D00
0000
0000
0000
0000
ENDCHAR
STARTCHAR U+01E5
ENCODING 485
SWIDTH 450 0
DWIDTH 9 0
BBX 9 20 0 -4
BITMAP
0000
0000
0000
0000
0000
0000
0000
1D00
2300
4100
4100
4100
4100
4100
2300
1D00
0100
0F80
4200
3C00
ENDCHAR
STARTCHAR U+01E6
ENCODING 486
SWIDTH 450 0
DWIDTH 9 0
BBX 9 20 0 -4
BITMAP
1400
0800
0000
1C00
2200
4100
4000
4000
4000
4000
4700
4100
4100
4100
2300
1D00
0000
0000
0000
0000
ENDCHAR
STARTCHAR U+01E7
ENCODING 487
SWIDTH 450 0
DWIDTH 9 0
BBX 9 20 0 -4
BITMAP
0000
0000
0000
0000
1400
0800
0000
1D00
2300
4100
4100
4100
4100
4100
2300
1D00
0100
0100
4200
3C00
ENDCHAR
STARTCHAR U+01E8
ENCODING 488
SWIDTH 450 0
DWIDTH 9 0
BBX 9 20 0 -4
BITMAP
1400
0800
0000
4100
4100
4200
4400
4800
5000
6000
5000
4800
4400
4200
4100
4100
0000
0000
0000
0000
ENDCHAR
STARTCHAR U+01E9
ENCODING 489
SWIDTH 450 0
DWIDTH 9 0
BBX 9 20 0 -4
BITMAP
0000
1400
0800
4000
4000
4000
4000
4100
4200
4400
4800
7000
4800
4400
4200
4100
0000
0000
0000
0000
ENDCHAR
STARTCHAR U+01EA
ENCODING 490
SWIDTH 450 0
DWIDTH 9 0
BBX 9 20 0 -4
BITMAP
0000
0000
0000
1C00
2200
4100
4100
4100
4100
4100
4100
4100
4100
4100
2200
1C00
0800
1000
0C00
0000
ENDCHAR
STARTCHAR U+01EB
ENCODING 491
SWIDTH 450 0
DWIDTH 9 0
BBX 9 20 0 -4
BITMAP
0000
0000
0000
0000
0000
0000
0000
1C00
2200
4100
4100
4100
4100
4100
2200
1C00
0800
1000
0C00
0000
ENDCHAR
STARTCHAR U+01EC
ENCODING 492
SWIDTH 450 0
DWIDTH 9 0
BBX 9 20 0 -4
BITMAP
0000
3E00
0000
1C00
2200
4100
4100
4100
4100
4100
4100
4100
4100
4100
2200
1C00
0800
1000
0C00
0000
ENDCHAR
STARTCHAR U+01ED
ENCODING 493
SWIDTH 450 0
DWIDTH 9 0
BBX 9 20 0 -4
BITMAP
0000
0000
0000
0000
0000
3E00
0000
1C00
2200
4100
4100
4100
4100
4100
2200
1C00
0800
1000
0C00
0000
ENDCHAR
STARTCHAR U+01EE
ENCODING 494
SWIDTH 450 0
DWIDTH 9 0
BBX 9 20 0 -4
BITMAP
1400
0800
0000
7F00
0100
0200
0400
0800
1C00
0200
0100
0100
0100
4100
2200
1C00
0000
0000
0000
0000
ENDCHAR
STARTCHAR U+01EF
ENCODING 495
SWIDTH 450 0
DWIDTH 9 0
BBX 9 20 0 -4
BITMAP
0000
0000
0000
0000
1400
0800
0000
7F00
0100
0200
0400
0800
1C00
0200
0100
0100
4100
2200
1C00
0000
ENDCHAR
STARTCHAR U+01F0
ENCODING 496
SWIDTH 450 0
DWIDTH 9 0
BBX 9 20 0 -4
BITMAP
0000
0000
0000
0000
0500
0200
0000
0200
0200
0200
0200
0200
0200
0200
0200
0200
0200
0200
1C00
0000
ENDCHAR
STARTCHAR U+01F1
ENCODING 497
SWIDTH 450 0
DWIDTH 9 0
BBX 9 20 0 -4
BITMAP
0000
0000
0000
C780
A080
9080
9100
9100
9100
9200
9200
9200
9200
9400
A400
C780
0000
0000
0000
0000
ENDCHAR
STARTCHAR U+01F2
ENCODING 498
SWIDTH 450 0
DWIDTH 9 0
BBX 9 20 0 -4
BITMAP
0000
0000
0000
C000
A000
9000
9000
9780
9080
9100
9100
9200
9200
9400
A400
C780
0000
0000
0000
0000
ENDCHAR
STARTCHAR U+01F3
ENCODING 499
SWIDTH 450 0
DWIDTH 9 0
BBX 9 20 0 -4
BITMAP
0000
0000
0000
1000
1000
1000
1000
5780
B080
9100
9100
9200
9200
9400
B400
5780
0000
0000
0000
0000
ENDCHAR
STARTCHAR U+01F4
ENCODING 500
SWIDTH 450 0
DWIDTH 9 0
BBX 9 20 0 -4
BITMAP
0400
0800
0000
1C00
2200
4100
4000
4000
4000
4000
4700
4100
4100
4100
2300
1D00
0000
0000
0000
0000
ENDCHAR
STARTCHAR U+01F5
ENCODING 501
SWIDTH 450 0
DWIDTH 9 0
BBX 9 20 0 -4
BITMAP
0000
0000
0000
0000
0400
0800
0000
1D00
2300
4100
4100
4100
4100
4100
2300
1D00
0100
0100
4200
3C00
ENDCHAR
STARTCHAR U+01F6
ENCODING 502
SWIDTH 450 0
DWIDTH 9 0
BBX 9 20 0 -4
BITMAP
0000
0000
0000
8800
8800
8800
8800
8880
8880
F880
8880
8880
8880
8880
8880
8700
0000
0000
0000
0000
ENDCHAR
STARTCHAR U+01F7
ENCODING 503
SWIDTH 450 0
DWIDTH 9 0
BBX 9 20 0 -4
BITMAP
0000
0000
0000
3C00
2200
2100
2100
2100
2100
2100
2100
2200
2400
2800
3000
2000
2000
2000
2000
0000
ENDCHAR
STARTCHAR U+01F8
ENCODING 504
SWIDTH 450 0
DWIDTH 9 0
BBX 9 20 0 -4
BITMAP
1000
0800
0000
4100
4100
6100
6100
5100
5100
4900
4900
4500
4500
4300
4300
4100
0000
0000
0000
0000
ENDCHAR
STARTCHAR U+01F9
ENCODING 505
SWIDTH 450 0
DWIDTH 9 0
BBX 9 20 0 -4
BITMAP
0000
0000
0000
0000
1000
0800
0000
5C00
6200
4100
4100
4100
4100
4100
4100
4100
0000
0000
0000
0000
ENDCHAR
STARTCHAR U+01FA
ENCODING 506
SWIDTH 450 0
DWIDTH 9 0
BBX 9 20 0 -4
BITMAP
0400
0800
0800
1400
0800
0000
0800
1400
1400
1400
2200
2200
3F00
4100
4100
4100
0000
0000
0000
0000
ENDCHAR
STARTCHAR U+01FB
ENCODING 507
SWIDTH 450 0
DWIDTH 9 0
BBX 9 20 0 -4
BITMAP
0200
0400
0000
0400
0A00
0400
0000
1E00
2100
0100
1F00
2100
4100
4100
2300
1D00
0000
0000
0000
0000
ENDCHAR
STARTCHAR U+01FC
ENCODING 508
SWIDTH 450 0
DWIDTH 9 0
BBX 9 20 0 -4
BITMAP
0200
0400
0000
1F80
2800
2800
2800
2800
4800
7F00
4800
4800
8800
8800
8800
8F80
0000
0000
0000
0000
ENDCHAR
STARTCHAR U+01FD
ENCODING 509
SWIDTH 450 0
DWIDTH 9 0
BBX 9 20 0 -4
BITMAP
0000
0000
0000
0000
0400
0800
0000
7700
8880
0880
0880
7F00
8800
8800
8880
7700
0000
0000
0000
0000
ENDCHAR
STARTCHAR U+01FE
ENCODING 510
SWIDTH 450 0
DWIDTH 9 0
BBX 9 20 0 -4
BITMAP
0400
0800
0000
1C00
2200
4180
4100
4300
4500
4900
5100
6100
4100
C100
2200
1C00
0000
0000
0000
0000
ENDCHAR
STARTCHAR U+01FF
ENCODING 511
SWIDTH 450 0
DWIDTH 9 0
BBX 9 20 0 -4
BITMAP
0000
0000
0000
0000
0400
0800
0000
1C80
2300
4300
4500
4900
5100
6100
6200
9C00
0000
0000
0000
0000
ENDCHAR
STARTCHAR U+0200
ENCODING 512
SWIDTH 450 0
DWIDTH 9 0
BBX 9 20 0 -4
BITMAP
2400
1200
0000
0800
0800
1400
1400
1400
2200
2200
2200
2200
7F00
4100
4100
4100
0000
0000
0000
0000
ENDCHAR
STARTCHAR U+0201
ENCODING 513
SWIDTH 450 0
DWIDTH 9 0
BBX 9 20 0 -4
BITMAP
0000
0000
0000
0000
2400
1200
0000
1E00
2100
0100
1F00
2100
4100
4100
2300
1D00
0000
0000
0000
0000
ENDCHAR
STARTCHAR U+0202
ENCODING 514
SWIDTH 450 0
DWIDTH 9 0
BBX 9 20 0 -4
BITMAP
1C00
2200
0000
0800
0800
1400
1400
1400
2200
2200
2200
2200
7F00
4100
4100
4100
0000
0000
0000
0000
ENDCHAR
STARTCHAR U+0203
ENCODING 515
SWIDTH 450 0
DWIDTH 9 0
BBX 9 20 0 -4
BITMAP
0000
0000
0000
0000
1C00
2200
0000
1E00
2100
0100
1F00
2100
4100
4100
2300
1D00
0000
0000
0000
0000
ENDCHAR
STARTCHAR U+0204
ENCODING 516
SWIDTH 450 0
DWIDTH 9 0
BBX 9 20 0 -4
BITMAP
4800
2400
0000
7F00
4000
4000
4000
4000
4000
7C00
4000
4000
4000
4000
4000
7F00
0000
0000
0000
0000
ENDCHAR
STARTCHAR U+0205
ENCODING 517
SWIDTH 450 0
DWIDTH 9 0
BBX 9 20 0 -4
BITMAP
0000
0000
0000
0000
4800
2400
0000
1C00
2200
4100
4100
7F00
4000
4000
2100
1E00
0000
0000
0000
0000
ENDCHAR
STARTCHAR U+0206
ENCODING 518
SWIDTH 450 0
DWIDTH 9 0
BBX 9 20 0 -4
BITMAP
1C00
2200
0000
7F00
4000
4000
4000
4000
4000
7C00
4000
4000
4000
4000
4000
7F00
0000
0000
0000
0000
ENDCHAR
STARTCHAR U+0207
ENCODING 519
SWIDTH 450 0
DWIDTH 9 0
BBX 9 20 0 -4
BITMAP
0000
0000
0000
0000
1C00
2200
0000
1C00
2200
4100
4100
7F00
4000
4000
2100
1E00
0000
0000
0000
0000
ENDCHAR
STARTCHAR U+0208
ENCODING 520
SWIDTH 450 0
DWIDTH 9 0
BBX 9 20 0 -4
BITMAP
2400
1200
0000
1C00
0800
0800
0800
0800
0800
0800
0800
0800
0800
0800
0800
1C00
0000
0000
0000
0000
ENDCHAR
STARTCHAR U+0209
ENCODING 521
SWIDTH 450 0
DWIDTH 9 0
BBX 9 20 0 -4
BITMAP
0000
0000
0000
0000
4800
2400
0000
1800
0800
0800
0800
0800
0800
0800
0800
0800
0000
0000
0000
0000
ENDCHAR
STARTCHAR U+020A
ENCODING 522
SWIDTH 450 0
DWIDTH 9 0
BBX 9 20 0 -4
BITMAP
1C00
2200
0000
1C00
0800
0800
0800
0800
0800
0800
0800
0800
0800
0800
0800
1C00
0000
0000
0000
0000
ENDCHAR
STARTCHAR U+020B
ENCODING 523
SWIDTH 450 0
DWIDTH 9 0
BBX 9 20 0 -4
BITMAP
0000
0000
0000
0000
1C00
2200
0000
1800
0800
0800
0800
0800
0800
0800
0800
0800
0000
0000
0000
0000
ENDCHAR
STARTCHAR U+020C
ENCODING 524
SWIDTH 450 0
DWIDTH 9 0
BBX 9 20 0 -4
BITMAP
4800
2400
0000
1C00
2200
4100
4100
4100
4100
4100
4100
4100
4100
4100
2200
1C00
0000
0000
0000
0000
ENDCHAR
STARTCHAR U+020D
ENCODING 525
SWIDTH 450 0
DWIDTH 9 0
BBX 9 20 0 -4
BITMAP
0000
0000
0000
0000
4800
2400
0000
1C00
2200
4100
4100
4100
4100
4100
2200
1C00
0000
0000
0000
0000
ENDCHAR
STARTCHAR U+020E
ENCODING 526
SWIDTH 450 0
DWIDTH 9 0
BBX 9 20 0 -4
BITMAP
1C00
2200
0000
1C00
2200
4100
4100
4100
4100
4100
4100
4100
4100
4100
2200
1C00
0000
0000
0000
0000
ENDCHAR
STARTCHAR U+020F
ENCODING 527
SWIDTH 450 0
DWIDTH 9 0
BBX 9 20 0 -4
BITMAP
0000
0000
0000
0000
1C00
2200
0000
1C00
2200
4100
4100
4100
4100
4100
2200
1C00
0000
0000
0000
0000
ENDCHAR
STARTCHAR U+0210
ENCODING 528
SWIDTH 450 0
DWIDTH 9 0
BBX 9 20 0 -4
BITMAP
4800
2400
0000
7C00
4200
4100
4100
4100
4100
4200
7C00
4400
4200
4200
4100
4100
0000
0000
0000
0000
ENDCHAR
STARTCHAR U+0211
ENCODING 529
SWIDTH 450 0
DWIDTH 9 0
BBX 9 20 0 -4
BITMAP
0000
0000
0000
0000
4800
2400
0000
4E00
5100
6000
4000
4000
4000
4000
4000
4000
0000
0000
0000
0000
ENDCHAR
STARTCHAR U+0212
ENCODING 530
SWIDTH 450 0
DWIDTH 9 0
BBX 9 20 0 -4
BITMAP
1C00
2200
0000
7C00
4200
4100
4100
4100
4100
4200
7C00
4400
4200
4200
4100
4100
0000
0000
0000
0000
ENDCHAR
STARTCHAR U+0213
ENCODING 531
SWIDTH 450 0
DWIDTH 9 0
BBX 9 20 0 -4
BITMAP
0000
0000
0000
0000
1C00
2200
0000
4E00
5100
6000
4000
4000
4000
4000
4000
4000
0000
0000
0000
0000
ENDCHAR
STARTCHAR U+0214
ENCODING 532
SWIDTH 450 0
DWIDTH 9 0
BBX 9 20 0 -4
BITMAP
2400
1200
0000
4100
4100
4100
4100
4100
4100
4100
4100
4100
4100
4100
2200
1C00
0000
0000
0000
0000
ENDCHAR
STARTCHAR U+0215
ENCODING 533
SWIDTH 450 0
DWIDTH 9 0
BBX 9 20 0 -4
BITMAP
0000
0000
0000
0000
2400
1200
0000
4100
4100
4100
4100
4100
4100
4100
2300
1D00
0000
0000
0000
0000
ENDCHAR
STARTCHAR U+0216
ENCODING 534
SWIDTH 450 0
DWIDTH 9 0
BBX 9 20 0 -4
BITMAP
1C00
2200
0000
4100
4100
4100
4100
4100
4100
4100
4100
4100
4100
4100
2200
1C00
0000
0000
0000
0000
ENDCHAR
STARTCHAR U+0217
ENCODING 535
SWIDTH 450 0
DWIDTH 9 0
BBX 9 20 0 -4
BITMAP
0000
0000
0000
0000
1C00
2200
0000
4100
4100
4100
4100
4100
4100
4100
2300
1D00
0000
0000
0000
0000
ENDCHAR
STARTCHAR U+0218
ENCODING 536
SWIDTH 450 0
DWIDTH 9 0
BBX 9 20 0 -4
BITMAP
0000
0000
0000
1C00
2200
4100
4000
4000
2000
1C00
0200
0100
0100
4100
2200
1C00
0000
0800
0800
1000
ENDCHAR
STARTCHAR U+0219
ENCODING 537
SWIDTH 450 0
DWIDTH 9 0
BBX 9 20 0 -4
BITMAP
0000
0000
0000
0000
0000
0000
0000
3E00
4100
4000
4000
3E00
0100
0100
4100
3E00
0000
0800
0800
1000
ENDCHAR
STARTCHAR U+021A
ENCODING 538
SWIDTH 450 0
DWIDTH 9 0
BBX 9 20 0 -4
BITMAP
0000
0000
0000
7F00
0800
0800
0800
0800
0800
0800
0800
0800
0800
0800
0800
0800
0000
0800
0800
1000
ENDCHAR
STARTCHAR U+021B
ENCODING 539
SWIDTH 450 0
DWIDTH 9 0
BBX 9 20 0 -4
BITMAP
0000
0000
0000
0000
0000
0800
0800
3E00
0800
0800
0800
0800
0800
0800
0800
0700
0000
0200
0200
0400
ENDCHAR
STARTCHAR U+021C
ENCODING 540
SWIDTH 450 0
DWIDTH 9 0
BBX 9 20 0 -4
BITMAP
0000
0000
0000
1E00
2100
0100
0100
0200
0600
0900
1080
0080
0080
0100
0600
3800
0000
0000
0000
0000
ENDCHAR
STARTCHAR U+021D
ENCODING 541
SWIDTH 450 0
DWIDTH 9 0
BBX 9 20 0 -4
BITMAP
0000
0000
0000
0000
0000
0000
0000
1E00
2100
0100
0100
0200
0600
0900
1080
2080
0080
0100
0600
3800
ENDCHAR
STARTCHAR U+021E
ENCODING 542
SWIDTH 450 0
DWIDTH 9 0
BBX 9 20 0 -4
BITMAP
1400
0800
0000
4100
4100
4100
4100
4100
4100
7F00
4100
4100
4100
4100
4100
4100
0000
0000
0000
0000
ENDCHAR
STARTCHAR U+021F
ENCODING 543
SWIDTH 450 0
DWIDTH 9 0
BBX 9 20 0 -4
BITMAP
A000
4000
0000
4000
4000
4000
4000
5C00
6200
4100
4100
4100
4100
4100
4100
4100
0000
0000
0000
0000
ENDCHAR
STARTCHAR U+0220
ENCODING 544
SWIDTH 450 0
DWIDTH 9 0
BBX 9 20 0 -4
BITMAP
0000
0000
0000
5C00
6200
4100
4100
4100
4100
4100
4100
4100
4100
4100
4100
4100
0100
0100
0100
0000
ENDCHAR
STARTCHAR U+0221
ENCODING 545
SWIDTH 450 0
DWIDTH 9 0
BBX 9 20 0 -4
BITMAP
0000
0000
0000
0200
0200
0200
0200
1A00
2600
4200
4200
4200
4200
4200
2600
1B00
0280
0500
0000
0000
ENDCHAR
STARTCHAR U+0222
ENCODING 546
SWIDTH 450 0
DWIDTH 9 0
BBX 9 20 0 -4
BITMAP
0000
0000
0000
2200
4100
4100
4100
2200
1C00
2200
4100
4100
4100
4100
2200
1C00
0000
0000
0000
0000
ENDCHAR
STARTCHAR U+0223
ENCODING 547
SWIDTH 450 0
DWIDTH 9 0
BBX 9 20 0 -4
BITMAP
0000
0000
0000
0000
0000
0000
0000
2200
4100
2200
1C00
2200
4100
4100
2200
1C00
0000
0000
0000
0000
ENDCHAR
STARTCHAR U+0224
ENCODING 548
SWIDTH 450 0
DWIDTH 9 0
BBX 9 20 0 -4
BITMAP
0000
0000
0000
7F00
0100
0100
0100
0200
0400
0800
1000
2000
4000
4000
4000
7F00
0100
0100
0200
0000
ENDCHAR
STARTCHAR U+0225
ENCODING 549
SWIDTH 450 0
DWIDTH 9 0
BBX 9 20 0 -4
BITMAP
0000
0000
0000
0000
0000
0000
0000
7F00
0100
0200
0400
0800
1000
2000
4000
7F00
0100
0100
0200
0000
ENDCHAR
STARTCHAR U+0226
ENCODING 550
SWIDTH 450 0
DWIDTH 9 0
BBX 9 20 0 -4
BITMAP
0000
0800
0000
0800
0800
1400
1400
1400
2200
2200
2200
2200
7F00
4100
4100
4100
0000
0000
0000
0000
ENDCHAR
STARTCHAR U+0227
ENCODING 551
SWIDTH 450 0
DWIDTH 9 0
BBX 9 20 0 -4
BITMAP
0000
0000
0000
0000
0000
0800
0000
1E00
2100
0100
1F00
2100
4100
4100
2300
1D00
0000
0000
0000
0000
ENDCHAR
STARTCHAR U+0228
ENCODING 552
SWIDTH 450 0
DWIDTH 9 0
BBX 9 20 0 -4
BITMAP
0000
0000
0000
7F00
4000
4000
4000
4000
4000
7C00
4000
4000
4000
4000
4000
7F00
0800
0400
1800
0000
ENDCHAR
STARTCHAR U+0229
ENCODING 553
SWIDTH 450 0
DWIDTH 9 0
BBX 9 20 0 -4
BITMAP
0000
0000
0000
0000
0000
0000
0000
1C00
2200
4100
4100
7F00
4000
4000
2100
1E00
0800
0400
1800
0000
ENDCHAR
STARTCHAR U+022A
ENCODING 554
SWIDTH 450 0
DWIDTH 9 0
BBX 9 20 0 -4
BITMAP
3E00
0000
2200
0000
1C00
2200
4100
4100
4100
4100
4100
4100
4100
4100
2200
1C00
0000
0000
0000
0000
ENDCHAR
STARTCHAR U+022B
ENCODING 555
SWIDTH 450 0
DWIDTH 9 0
BBX 9 20 0 -4
BITMAP
0000
0000
0000
3E00
0000
2200
0000
1C00
2200
4100
4100
4100
4100
4100
2200
1C00
0000
0000
0000
0000
ENDCHAR
STARTCHAR U+022C
ENCODING 556
SWIDTH 450 0
DWIDTH 9 0
BBX 9 20 0 -4
BITMAP
3E00
0000
3300
4C00
0000
1C00
2200
4100
4100
4100
4100
4100
4100
4100
2200
1C00
0000
0000
0000
0000
ENDCHAR
STARTCHAR U+022D
ENCODING 557
SWIDTH 450 0
DWIDTH 9 0
BBX 9 20 0 -4
BITMAP
0000
0000
3E00
0000
3300
4C00
0000
1C00
2200
4100
4100
4100
4100
4100
2200
1C00
0000
0000
0000
0000
ENDCHAR
STARTCHAR U+022E
ENCODING 558
SWIDTH 450 0
DWIDTH 9 0
BBX 9 20 0 -4
BITMAP
0000
0800
0000
1C00
2200
4100
4100
4100
4100
4100
4100
4100
4100
4100
2200
1C00
0000
0000
0000
0000
ENDCHAR
STARTCHAR U+022F
ENCODING 559
SWIDTH 450 0
DWIDTH 9 0
BBX 9 20 0 -4
BITMAP
0000
0000
0000
0000
0000
0800
0000
1C00
2200
4100
4100
4100
4100
4100
2200
1C00
0000
0000
0000
0000
ENDCHAR
STARTCHAR U+0230
ENCODING 560
SWIDTH 450 0
DWIDTH 9 0
BBX 9 20 0 -4
BITMAP
3E00
0000
0800
0000
1C00
2200
4100
4100
4100
4100
4100
4100
4100
4100
2200
1C00
0000
0000
0000
0000
ENDCHAR
STARTCHAR U+0231
ENCODING 561
SWIDTH 450 0
DWIDTH 9 0
BBX 9 20 0 -4
BITMAP
0000
0000
0000
3E00
0000
0800
0000
1C00
2200
4100
4100
4100
4100
4100
2200
1C00
0000
0000
0000
0000
ENDCHAR
STARTCHAR U+0232
ENCODING 562
SWIDTH 450 0
DWIDTH 9 0
BBX 9 20 0 -4
BITMAP
0000
3E00
0000
4100
4100
2200
2200
1400
1400
0800
0800
0800
0800
0800
0800
0800
0000
0000
0000
0000
ENDCHAR
STARTCHAR U+0233
ENCODING 563
SWIDTH 450 0
DWIDTH 9 0
BBX 9 20 0 -4
BITMAP
0000
0000
0000
0000
0000
3E00
0000
4100
4100
4100
2200
2200
1400
1400
0800
0800
1000
1000
6000
0000
ENDCHAR
STARTCHAR U+0234
ENCODING 564
SWIDTH 450 0
DWIDTH 9 0
BBX 9 20 0 -4
BITMAP
0000
0000
0000
1800
0800
0800
0800
0800
0800
0800
0800
0800
0800
0900
0A80
0700
0800
0000
0000
0000
ENDCHAR
STARTCHAR U+0235
ENCODING 565
SWIDTH 450 0
DWIDTH 9 0
BBX 9 20 0 -4
BITMAP
0000
0000
0000
0000
0000
0000
0000
5800
6400
4200
4200
4200
4200
4200
4300
4280
0500
0000
0000
0000
ENDCHAR
STARTCHAR U+0236
ENCODING 566
SWIDTH 450 0
DWIDTH 9 0
BBX 9 20 0 -4
BITMAP
0000
0000
0000
0000
0000
0800
0800
3E00
0800
0800
0800
0800
0800
0900
0A80
0700
0800
0000
0000
0000
ENDCHAR
STARTCHAR U+0237
ENCODING 567
SWIDTH 450 0
DWIDTH 9 0
BBX 9 20 0 -4
BITMAP
0000
0000
0000
0000
0000
0000
0000
0200
0200
0200
0200
0200
0200
0200
0200
0200
0200
0200
1C00
0000
ENDCHAR
STARTCHAR U+0238
ENCODING 568
SWIDTH 450 0
DWIDTH 9 0
BBX 9 20 0 -4
BITMAP
0000
0000
0000
0800
0800
0800
0800
6B00
9C80
8880
8880
8880
8880
8880
9C80
6B00
0000
0000
0000
0000
ENDCHAR
STARTCHAR U+0239
ENCODING 569
SWIDTH 450 0
DWIDTH 9 0
BBX 9 20 0 -4
BITMAP
0000
0000
0000
0000
0000
0000
0000
6B00
9C80
8880
8880
8880
8880
8880
9C80
6B00
0800
0800
0800
0000
ENDCHAR
STARTCHAR U+023A
ENCODING 570
SWIDTH 450 0
DWIDTH 9 0
BBX 9 20 0 -4
BITMAP
0000
0000
0000
0800
0800
1480
1500
1600
2600
2A00
3200
2200
7F00
C100
4100
4100
0000
0000
0000
0000
ENDCHAR
STARTCHAR U+023B
ENCODING 571
SWIDTH 450 0
DWIDTH 9 0
BBX 9 20 0 -4
BITMAP
0000
0000
0000
1C00
2200
4180
4100
4200
4400
4800
5000
6000
4000
C100
2200
1C00
0000
0000
0000
0000
ENDCHAR
STARTCHAR U+023C
ENCODING 572
SWIDTH 450 0
DWIDTH 9 0
BBX 9 20 0 -4
BITMAP
0000
0000
0000
0000
0000
0000
0000
1E80
2100
4200
4400
4800
5000
6000
6100
9E00
0000
0000
0000
0000
ENDCHAR
STARTCHAR U+023D
ENCODING 573
SWIDTH 450 0
DWIDTH 9 0
BBX 9 20 0 -4
BITMAP
0000
0000
0000
4000
4000
4000
4000
4000
4000
F000
4000
4000
4000
4000
4000
7F00
0000
0000
0000
0000
ENDCHAR
STARTCHAR U+023E
ENCODING 574
SWIDTH 450 0
DWIDTH 9 0
BBX 9 20 0 -4
BITMAP
0000
0000
0080
7F00
0900
0A00
0A00
0C00
0C00
0800
0800
1800
1800
2800
2800
4800
4000
0000
0000
0000
ENDCHAR
STARTCHAR U+023F
ENCODING 575
SWIDTH 450 0
DWIDTH 9 0
BBX 9 20 0 -4
BITMAP
0000
0000
0000
0000
0000
0000
0000
3E00
4100
4000
4000
3E00
0100
0100
4100
3E00
1000
0900
0600
0000
ENDCHAR
STARTCHAR U+0240
ENCODING 576
SWIDTH 450 0
DWIDTH 9 0
BBX 9 20 0 -4
BITMAP
0000
0000
0000
0000
0000
0000
0000
7F00
0100
0200
0400
0800
1000
2000
4000
6000
1000
0900
0600
0000
ENDCHAR
STARTCHAR U+0241
ENCODING 577
SWIDTH 450 0
DWIDTH 9 0
BBX 9 20 0 -4
BITMAP
0000
0000
0000
1C00
2200
4100
4100
0100
0200
0C00
0800
0800
0800
0800
0800
0800
0000
0000
0000
0000
ENDCHAR
STARTCHAR U+0242
ENCODING 578
SWIDTH 450 0
DWIDTH 9 0
BBX 9 20 0 -4
BITMAP
0000
0000
0000
0000
0000
0000
0000
1C00
2200
4100
0100
0200
0C00
0800
0800
0800
0000
0000
0000
0000
ENDCHAR
STARTCHAR U+0243
ENCODING 579
SWIDTH 450 0
DWIDTH 9 0
BBX 9 20 0 -4
BITMAP
0000
0000
0000
7C00
4200
4100
4100
4200
7C00
4200
4100
F900
4100
4100
4200
7C00
0000
0000
0000
0000
ENDCHAR
STARTCHAR U+0244
ENCODING 580
SWIDTH 450 0
DWIDTH 9 0
BBX 9 20 0 -4
BITMAP
0000
0000
0000
4100
4100
4100
4100
4100
4100
FF80
4100
4100
4100
4100
2200
1C00
0000
0000
0000
0000
ENDCHAR
STARTCHAR U+0245
ENCODING 581
SWIDTH 450 0
DWIDTH 9 0
BBX 9 20 0 -4
BITMAP
0000
0000
0000
0800
0800
1400
1400
1400
2200
2200
2200
2200
4100
4100
4100
4100
0000
0000
0000
0000
ENDCHAR
STARTCHAR U+0246
ENCODING 582
SWIDTH 450 0
DWIDTH 9 0
BBX 9 20 0 -4
BITMAP
0000
0000
0080
7F00
4100
4200
4200
4400
4400
7C00
4800
5000
5000
6000
6000
7F00
4000
0000
0000
0000
ENDCHAR
STARTCHAR U+0247
ENCODING 583
SWIDTH 450 0
DWIDTH 9 0
BBX 9 20 0 -4
BITMAP
0000
0000
0000
0000
0000
0000
0000
1C80
2300
4300
4500
7F00
5000
6000
6100
9E00
0000
0000
0000
0000
ENDCHAR
STARTCHAR U+0248
ENCODING 584
SWIDTH 450 0
DWIDTH 9 0
BBX 9 20 0 -4
BITMAP
0000
0000
0000
0100
0100
0100
0100
0100
0100
0F80
0100
0100
0100
4100
2200
1C00
0000
0000
0000
0000
ENDCHAR
STARTCHAR U+0249
ENCODING 585
SWIDTH 450 0
DWIDTH 9 0
BBX 9 20 0 -4
BITMAP
0000
0000
0000
0000
0200
0200
0000
0200
0200
0200
0200
0200
0F00
0200
0200
0200
0200
0200
1C00
0000
ENDCHAR
STARTCHAR U+024A
ENCODING 586
SWIDTH 450 0
DWIDTH 9 0
BBX 9 20 0 -4
BITMAP
0000
0000
0000
1A00
2600
4200
4200
4200
4200
4200
4200
4200
4200
4200
2600
1A00
0200
0200
0180
0000
ENDCHAR
STARTCHAR U+024B
ENCODING 587
SWIDTH 450 0
DWIDTH 9 0
BBX 9 20 0 -4
BITMAP
0000
0000
0000
0000
0000
0000
0000
1A00
2600
4200
4200
4200
4200
4200
2600
1A00
0200
0200
0200
0180
ENDCHAR
STARTCHAR U+024C
ENCODING 588
SWIDTH 450 0
DWIDTH 9 0
BBX 9 20 0 -4
BITMAP
0000
0000
0000
7C00
4200
4100
4100
4100
4100
4200
FC00
4400
4200
4200
4100
4100
0000
0000
0000
0000
ENDCHAR
STARTCHAR U+024D
ENCODING 589
SWIDTH 450 0
DWIDTH 9 0
BBX 9 20 0 -4
BITMAP
0000
0000
0000
0000
0000
0000
0000
4E00
5100
6000
4000
4000
F000
4000
4000
4000
0000
0000
0000
0000
ENDCHAR
STARTCHAR U+024E
ENCODING 590
SWIDTH 450 0
DWIDTH 9 0
BBX 9 20 0 -4
BITMAP
0000
0000
0000
4100
4100
2200
FF80
1400
1400
0800
0800
0800
0800
0800
0800
0800
0000
0000
0000
0000
ENDCHAR
STARTCHAR U+024F
ENCODING 591
SWIDTH 450 0
DWIDTH 9 0
BBX 9 20 0 -4
BITMAP
0000
0000
0000
0000
0000
0000
0000
4100
4100
4100
2200
2200
7F00
1400
0800
0800
1000
1000
6000
0000
ENDCHAR
STARTCHAR U+0250
ENCODING 592
SWIDTH 450 0
DWIDTH 9 0
BBX 9 20 0 -4
BITMAP
0000
0000
0000
0000
0000
0000
0000
5C00
6200
4100
4100
4200
7C00
4000
4200
3C00
0000
0000
0000
0000
ENDCHAR
STARTCHAR U+0251
ENCODING 593
SWIDTH 450 0
DWIDTH 9 0
BBX 9 20 0 -4
BITMAP
0000
0000
0000
0000
0000
0000
0000
1900
2500
4200
4200
4200
4200
4200
2500
1880
0000
0000
0000
0000
ENDCHAR
STARTCHAR U+0252
ENCODING 594
SWIDTH 450 0
DWIDTH 9 0
BBX 9 20 0 -4
BITMAP
0000
0000
0000
0000
0000
0000
0000
8C00
5200
2100
2100
2100
2100
2100
5200
4C00
0000
0000
0000
0000
ENDCHAR
STARTCHAR U+0253
ENCODING 595
SWIDTH 450 0
DWIDTH 9 0
BBX 9 20 0 -4
BITMAP
0000
0000
0000
3000
4000
4000
4000
5C00
6200
4100
4100
4100
4100
4100
6200
5C00
0000
0000
0000
0000
ENDCHAR
STARTCHAR U+0254
ENCODING 596
SWIDTH 450 0
DWIDTH 9 0
BBX 9 20 0 -4
BITMAP
0000
0000
0000
0000
0000
0000
0000
3C00
4200
0100
0100
0100
0100
0100
4200
3C00
0000
0000
0000
0000
ENDCHAR
STARTCHAR U+0255
ENCODING 597
SWIDTH 450 0
DWIDTH 9 0
BBX 9 20 0 -4
BITMAP
0000
0000
0000
0000
0000
0000
0000
1E00
2100
4000
4000
4000
4000
4200
2500
1E00
1000
0000
0000
0000
ENDCHAR
STARTCHAR U+0256
ENCODING 598
SWIDTH 450 0
DWIDTH 9 0
BBX 9 20 0 -4
BITMAP
0000
0000
0000
0200
0200
0200
0200
1A00
2600
4200
4200
4200
4200
4200
2600
1A00
0200
0200
0180
0000
ENDCHAR
STARTCHAR U+0257
ENCODING 599
SWIDTH 450 0
DWIDTH 9 0
BBX 9 20 0 -4
BITMAP
0000
0000
0000
0180
0200
0200
0200
1A00
2600
4200
4200
4200
4200
4200
2600
1A00
0000
0000
0000
0000
ENDCHAR
STARTCHAR U+0258
ENCODING 600
SWIDTH 450 0
DWIDTH 9 0
BBX 9 20 0 -4
BITMAP
0000
0000
0000
0000
0000
0000
0000
1C00
2200
4100
4100
7F00
0100
0100
4200
3C00
0000
0000
0000
0000
ENDCHAR
STARTCHAR U+0259
ENCODING 601
SWIDTH 450 0
DWIDTH 9 0
BBX 9 20 0 -4
BITMAP
0000
0000
0000
0000
0000
0000
0000
3C00
4200
0100
0100
7F00
4100
4100
2200
1C00
0000
0000
0000
0000
ENDCHAR
STARTCHAR U+025A
ENCODING 602
SWIDTH 450 0
DWIDTH 9 0
BBX 9 20 0 -4
BITMAP
0000
0000
0000
0000
0000
0000
0000
3800
4500
8280
0600
0A00
1200
2200
4400
3800
0000
0000
0000
0000
ENDCHAR
STARTCHAR U+025B
ENCODING 603
SWIDTH 450 0
DWIDTH 9 0
BBX 9 20 0 -4
BITMAP
0000
0000
0000
0000
0000
0000
0000
1E00
2100
4000
2000
1C00
2000
4000
2100
1E00
0000
0000
0000
0000
ENDCHAR
STARTCHAR U+025C
ENCODING 604
SWIDTH 450 0
DWIDTH 9 0
BBX 9 20 0 -4
BITMAP
0000
0000
0000
0000
0000
0000
0000
3C00
4200
0100
0200
1C00
0200
0100
4200
3C00
0000
0000
0000
0000
ENDCHAR
STARTCHAR U+025D
ENCODING 605
SWIDTH 450 0
DWIDTH 9 0
BBX 9 20 0 -4
BITMAP
0000
0000
0000
0000
0000
0000
0000
3800
4400
0280
0500
1800
0400
0200
4400
3800
0000
0000
0000
0000
ENDCHAR
STARTCHAR U+025E
ENCODING 606
SWIDTH 450 0
DWIDTH 9 0
BBX 9 20 0 -4
BITMAP
0000
0000
0000
0000
0000
0000
0000
1C00
2200
4100
4200
5C00
4200
4100
2200
1C00
0000
0000
0000
0000
ENDCHAR
STARTCHAR U+025F
ENCODING 607
SWIDTH 450 0
DWIDTH 9 0
BBX 9 20 0 -4
BITMAP
0000
0000
0000
0000
0000
0000
0000
0200
0200
0200
0200
0200
0F00
0200
0200
0200
0200
0200
1C00
0000
ENDCHAR
STARTCHAR U+0260
ENCODING 608
SWIDTH 450 0
DWIDTH 9 0
BBX 9 20 0 -4
BITMAP
0000
0000
0000
0000
0000
0180
0200
1A00
2600
4200
4200
4200
4200
4200
2600
1A00
0200
0200
4400
3800
ENDCHAR
STARTCHAR U+0261
ENCODING 609
SWIDTH 450 0
DWIDTH 9 0
BBX 9 20 0 -4
BITMAP
0000
0000
0000
0000
0000
0000
0000
1D00
2300
4100
4100
4100
4100
4100
2300
1D00
0100
0100
4200
3C00
ENDCHAR
STARTCHAR U+0262
ENCODING 610
SWIDTH 450 0
DWIDTH 9 0
BBX 9 20 0 -4
BITMAP
0000
0000
0000
0000
0000
0000
0000
1E00
2100
4000
4000
4000
4300
4100
2100
1F00
0000
0000
0000
0000
ENDCHAR
STARTCHAR U+0263
ENCODING 611
SWIDTH 450 0
DWIDTH 9 0
BBX 9 20 0 -4
BITMAP
0000
0000
0000
0000
0000
0000
0000
4100
4100
4100
2200
2200
1400
1400
0800
0800
1400
1400
0800
0000
ENDCHAR
STARTCHAR U+0264
ENCODING 612
SWIDTH 450 0
DWIDTH 9 0
BBX 9 20 0 -4
BITMAP
0000
0000
0000
0000
0000
0000
0000
2200
5500
0800
1400
2200
2200
2200
1400
0800
0000
0000
0000
0000
ENDCHAR
STARTCHAR U+0265
ENCODING 613
SWIDTH 450 0
DWIDTH 9 0
BBX 9 20 0 -4
BITMAP
0000
0000
0000
0000
0000
0000
0000
4100
4100
4100
4100
4100
4100
4100
6200
5C00
4000
4000
4000
4000
ENDCHAR
STARTCHAR U+0266
ENCODING 614
SWIDTH 450 0
DWIDTH 9 0
BBX 9 20 0 -4
BITMAP
0000
0000
0000
3000
4000
4000
4000
5C00
6200
4100
4100
4100
4100
4100
4100
4100
0000
0000
0000
0000
ENDCHAR
STARTCHAR U+0267
ENCODING 615
SWIDTH 450 0
DWIDTH 9 0
BBX 9 20 0 -4
BITMAP
0000
0000
0000
3000
4000
4000
4000
5C00
6200
4100
4100
4100
4100
4100
4100
4100
0100
0100
0600
0000
ENDCHAR
STARTCHAR U+0268
ENCODING 616
SWIDTH 450 0
DWIDTH 9 0
BBX 9 20 0 -4
BITMAP
0000
0000
0000
0800
0800
0000
0000
1800
0800
0800
0800
3E00
0800
0800
0800
0800
0000
0000
0000
0000
ENDCHAR
STARTCHAR U+0269
ENCODING 617
SWIDTH 450 0
DWIDTH 9 0
BBX 9 20 0 -4
BITMAP
0000
0000
0000
0000
0000
0000
0000
1800
0800
0800
0800
0800
0800
0800
0800
0600
0000
0000
0000
0000
ENDCHAR
STARTCHAR U+026A
ENCODING 618
SWIDTH 450 0
DWIDTH 9 0
BBX 9 20 0 -4
BITMAP
0000
0000
0000
0000
0000
0000
0000
1C00
0800
0800
0800
0800
0800
0800
0800
1C00
0000
0000
0000
0000
ENDCHAR
STARTCHAR U+026B
ENCODING 619
SWIDTH 450 0
DWIDTH 9 0
BBX 9 20 0 -4
BITMAP
0000
0000
0000
1800
0800
0800
0800
0800
0800
1900
2E00
0800
0800
0800
0800
0600
0000
0000
0000
0000
ENDCHAR
STARTCHAR U+026C
ENCODING 620
SWIDTH 450 0
DWIDTH 9 0
BBX 9 20 0 -4
BITMAP
0000
0000
0000
1800
0800
0800
0800
0800
1800
2800
1E00
0800
0800
0800
0800
0600
0000
0000
0000
0000
ENDCHAR
STARTCHAR U+026D
ENCODING 621
SWIDTH 450 0
DWIDTH 9 0
BBX 9 20 0 -4
BITMAP
0000
0000
0000
1800
0800
0800
0800
0800
0800
0800
0800
0800
0800
0800
0800
0600
0000
0000
0000
0000
ENDCHAR
STARTCHAR U+026E
ENCODING 622
SWIDTH 450 0
DWIDTH 9 0
BBX 9 20 0 -4
BITMAP
0000
0000
0000
C000
4000
4000
4000
7F00
4100
4200
4400
4800
5C00
4200
4100
3100
0100
2200
1C00
0000
ENDCHAR
STARTCHAR U+026F
ENCODING 623
SWIDTH 450 0
DWIDTH 9 0
BBX 9 20 0 -4
BITMAP
0000
0000
0000
0000
0000
0000
0000
4900
4900
4900
4900
4900
4900
4900
4900
3700
0000
0000
0000
0000
ENDCHAR
STARTCHAR U+0270
ENCODING 624
SWIDTH 450 0
DWIDTH 9 0
BBX 9 20 0 -4
BITMAP
0000
0000
0000
0000
0000
0000
0000
4900
4900
4900
4900
4900
4900
4900
4900
3700
0100
0100
0100
0000
ENDCHAR
STARTCHAR U+0271
ENCODING 625
SWIDTH 450 0
DWIDTH 9 0
BBX 9 20 0 -4
BITMAP
0000
0000
0000
0000
0000
0000
0000
7600
4900
4900
4900
4900
4900
4900
4900
4900
0100
0100
0600
0000
ENDCHAR
STARTCHAR U+0272
ENCODING 626
SWIDTH 450 0
DWIDTH 9 0
BBX 9 20 0 -4
BITMAP
0000
0000
0000
0000
0000
0000
0000
2C00
3200
2100
2100
2100
2100
2100
2100
2100
2000
2000
C000
0000
ENDCHAR
STARTCHAR U+0273
ENCODING 627
SWIDTH 450 0
DWIDTH 9 0
BBX 9 20 0 -4
BITMAP
0000
0000
0000
0000
0000
0000
0000
5800
6400
4200
4200
4200
4200
4200
4200
4200
0200
0200
0180
0000
ENDCHAR
STARTCHAR U+0274
ENCODING 628
SWIDTH 450 0
DWIDTH 9 0
BBX 9 20 0 -4
BITMAP
0000
0000
0000
0000
0000
0000
0000
4100
6100
5100
5100
4900
4500
4500
4300
4100
0000
0000
0000
0000
ENDCHAR
STARTCHAR U+0275
ENCODING 629
SWIDTH 450 0
DWIDTH 9 0
BBX 9 20 0 -4
BITMAP
0000
0000
0000
0000
0000
0000
0000
1C00
2200
4100
4100
7F00
4100
4100
2200
1C00
0000
0000
0000
0000
ENDCHAR
STARTCHAR U+0276
ENCODING 630
SWIDTH 450 0
DWIDTH 9 0
BBX 9 20 0 -4
BITMAP
0000
0000
0000
0000
0000
0000
0000
3E00
4900
8880
8880
8F80
8800
8800
4880
3F00
0000
0000
0000
0000
ENDCHAR
STARTCHAR U+0277
ENCODING 631
SWIDTH 450 0
DWIDTH 9 0
BBX 9 20 0 -4
BITMAP
0000
0000
0000
0000
0000
0000
0000
1C00
2200
4100
4900
4900
4900
4900
4900
3600
0000
0000
0000
0000
ENDCHAR
STARTCHAR U+0278
ENCODING 632
SWIDTH 450 0
DWIDTH 9 0
BBX 9 20 0 -4
BITMAP
0000
0000
0000
0800
0800
0800
0800
1C00
2A00
4900
4900
4900
4900
4900
2A00
1C00
0800
0800
0800
0000
ENDCHAR
STARTCHAR U+0279
ENCODING 633
SWIDTH 450 0
DWIDTH 9 0
BBX 9 20 0 -4
BITMAP
0000
0000
0000
0000
0000
0000
0000
0100
0100
0100
0100
0100
0100
0300
4500
3900
0000
0000
0000
0000
ENDCHAR
STARTCHAR U+027A
ENCODING 634
SWIDTH 450 0
DWIDTH 9 0
BBX 9 20 0 -4
BITMAP
0000
0000
0000
0100
0100
0100
0100
0100
0100
0100
0100
0100
0100
0300
4500
3900
0000
0000
0000
0000
ENDCHAR
STARTCHAR U+027B
ENCODING 635
SWIDTH 450 0
DWIDTH 9 0
BBX 9 20 0 -4
BITMAP
0000
0000
0000
0000
0000
0000
0000
0200
0200
0200
0200
0200
0200
0600
4A00
3200
0200
0180
0000
0000
ENDCHAR
STARTCHAR U+027C
ENCODING 636
SWIDTH 450 0
DWIDTH 9 0
BBX 9 20 0 -4
BITMAP
0000
0000
0000
0000
0000
0000
0000
4E00
5100
6000
4000
4000
4000
4000
4000
4000
4000
4000
4000
0000
ENDCHAR
STARTCHAR U+027D
ENCODING 637
SWIDTH 450 0
DWIDTH 9 0
BBX 9 20 0 -4
BITMAP
0000
0000
0000
0000
0000
0000
0000
4E00
5100
6000
4000
4000
4000
4000
4000
4000
4000
4000
3000
0000
ENDCHAR
STARTCHAR U+027E
ENCODING 638
SWIDTH 450 0
DWIDTH 9 0
BBX 9 20 0 -4
BITMAP
0000
0000
0000
0000
0000
0000
0000
0E00
1100
2000
4000
4000
4000
4000
4000
4000
0000
0000
0000
0000
ENDCHAR
STARTCHAR U+027F
ENCODING 639
SWIDTH 450 0
DWIDTH 9 0
BBX 9 20 0 -4
BITMAP
0000
0000
0000
0000
0000
0000
0000
3800
4400
0200
0100
0100
0100
0100
0100
0100
0100
0100
0100
0000
ENDCHAR
STARTCHAR U+0280
ENCODING 640
SWIDTH 450 0
DWIDTH 9 0
BBX 9 20 0 -4
BITMAP
0000
0000
0000
0000
0000
0000
0000
7E00
4100
4100
4100
7E00
4800
4400
4200
4100
0000
0000
0000
0000
ENDCHAR
STARTCHAR U+0281
ENCODING 641
SWIDTH 450 0
DWIDTH 9 0
BBX 9 20 0 -4
BITMAP
0000
0000
0000
0000
0000
0000
0000
4100
4200
4400
4800
7E00
4100
4100
4100
7E00
0000
0000
0000
0000
ENDCHAR
STARTCHAR U+0282
ENCODING 642
SWIDTH 450 0
DWIDTH 9 0
BBX 9 20 0 -4
BITMAP
0000
0000
0000
0000
0000
0000
0000
3E00
4100
4000
4000
3E00
0100
0100
4100
3E00
1000
0900
0600
0000
ENDCHAR
STARTCHAR U+0283
ENCODING 643
SWIDTH 450 0
DWIDTH 9 0
BBX 9 20 0 -4
BITMAP
0000
0000
0000
0700
0800
0800
0800
0800
0800
0800
0800
0800
0800
0800
0800
0800
0800
0800
3000
0000
ENDCHAR
STARTCHAR U+0284
ENCODING 644
SWIDTH 450 0
DWIDTH 9 0
BBX 9 20 0 -4
BITMAP
0000
0000
0000
0000
0300
0400
0400
0400
0400
0400
0400
0400
0400
0400
0400
1F00
0400
0400
1800
0000
ENDCHAR
STARTCHAR U+0285
ENCODING 645
SWIDTH 450 0
DWIDTH 9 0
BBX 9 20 0 -4
BITMAP
0000
0000
0000
0000
0000
0000
0000
3000
0800
0800
0800
0800
0800
0800
0800
0800
0800
0800
0600
0000
ENDCHAR
STARTCHAR U+0286
ENCODING 646
SWIDTH 450 0
DWIDTH 9 0
BBX 9 20 0 -4
BITMAP
0000
0000
0000
0700
0800
0800
0800
0800
0800
0800
0800
0800
0800
0800
0800
0800
1800
2800
1400
0000
ENDCHAR
STARTCHAR U+0287
ENCODING 647
SWIDTH 450 0
DWIDTH 9 0
BBX 9 20 0 -4
BITMAP
0000
0000
0000
0000
0000
0000
0000
3800
0400
0400
0400
0400
0400
0400
0400
1F00
0400
0400
0000
0000
ENDCHAR
STARTCHAR U+0288
ENCODING 648
SWIDTH 450 0
DWIDTH 9 0
BBX 9 20 0 -4
BITMAP
0000
0000
0000
0000
0000
0800
0800
3E00
0800
0800
0800
0800
0800
0800
0800
0800
0800
0800
0600
0000
ENDCHAR
STARTCHAR U+0289
ENCODING 649
SWIDTH 450 0
DWIDTH 9 0
BBX 9 20 0 -4
BITMAP
0000
0000
0000
0000
0000
0000
0000
4100
4100
4100
4100
FF80
4100
4100
2300
1D00
0000
0000
0000
0000
ENDCHAR
STARTCHAR U+028A
ENCODING 650
SWIDTH 450 0
DWIDTH 9 0
BBX 9 20 0 -4
BITMAP
0000
0000
0000
0000
0000
0000
0000
7700
1400
2200
4100
4100
4100
4100
2200
1C00
0000
0000
0000
0000
ENDCHAR
STARTCHAR U+028B
ENCODING 651
SWIDTH 450 0
DWIDTH 9 0
BBX 9 20 0 -4
BITMAP
0000
0000
0000
0000
0000
0000
0000
4400
4200
4100
4100
4100
4100
4200
2200
1C00
0000
0000
0000
0000
ENDCHAR
STARTCHAR U+028C
ENCODING 652
SWIDTH 450 0
DWIDTH 9 0
BBX 9 20 0 -4
BITMAP
0000
0000
0000
0000
0000
0000
0000
0800
0800
1400
1400
2200
2200
4100
4100
4100
0000
0000
0000
0000
ENDCHAR
STARTCHAR U+028D
ENCODING 653
SWIDTH 450 0
DWIDTH 9 0
BBX 9 20 0 -4
BITMAP
0000
0000
0000
0000
0000
0000
0000
2200
2200
2200
5500
5500
4900
4900
4900
4100
0000
0000
0000
0000
ENDCHAR
STARTCHAR U+028E
ENCODING 654
SWIDTH 450 0
DWIDTH 9 0
BBX 9 20 0 -4
BITMAP
0000
0000
0000
0000
0300
0400
0400
0800
0800
1400
1400
2200
2200
4100
4100
4100
0000
0000
0000
0000
ENDCHAR
STARTCHAR U+028F
ENCODING 655
SWIDTH 450 0
DWIDTH 9 0
BBX 9 20 0 -4
BITMAP
0000
0000
0000
0000
0000
0000
0000
4100
2200
1400
0800
0800
0800
0800
0800
0800
0000
0000
0000
0000
ENDCHAR
STARTCHAR U+0290
ENCODING 656
SWIDTH 450 0
DWIDTH 9 0
BBX 9 20 0 -4
BITMAP
0000
0000
0000
0000
0000
0000
0000
7F00
0100
0200
0400
0800
1000
2000
4000
7F00
0200
0200
0180
0000
ENDCHAR
STARTCHAR U+0291
ENCODING 657
SWIDTH 450 0
DWIDTH 9 0
BBX 9 20 0 -4
BITMAP
0000
0000
0000
0000
0000
0000
0000
7F00
0100
0200
0400
0800
1000
2300
4480
7F00
1000
0000
0000
0000
ENDCHAR
STARTCHAR U+0292
ENCODING 658
SWIDTH 450 0
DWIDTH 9 0
BBX 9 20 0 -4
BITMAP
0000
0000
0000
0000
0000
0000
0000
7F00
0100
0200
0400
0800
1C00
0200
0100
0100
4100
2200
1C00
0000
ENDCHAR
STARTCHAR U+0293
ENCODING 659
SWIDTH 450 0
DWIDTH 9 0
BBX 9 20 0 -4
BITMAP
0000
0000
0000
0000
0000
0000
0000
7F00
0100
0200
0400
0800
1C00
0200
0100
0100
1900
2600
1E00
0000
ENDCHAR
STARTCHAR U+0294
ENCODING 660
SWIDTH 450 0
DWIDTH 9 0
BBX 9 20 0 -4
BITMAP
0000
0000
0000
1C00
2200
4100
4100
0100
0200
0C00
0800
0800
0800
0800
0800
0800
0000
0000
0000
0000
ENDCHAR
STARTCHAR U+0295
ENCODING 661
SWIDTH 450 0
DWIDTH 9 0
BBX 9 20 0 -4
BITMAP
0000
0000
0000
1C00
2200
4100
4100
4000
2000
1800
0800
0800
0800
0800
0800
0800
0000
0000
0000
0000
ENDCHAR
STARTCHAR U+0296
ENCODING 662
SWIDTH 450 0
DWIDTH 9 0
BBX 9 20 0 -4
BITMAP
0000
0000
0000
0000
0000
0000
0000
0800
0800
0800
0800
0800
0800
0C00
0200
0100
4100
4100
2200
1C00
ENDCHAR
STARTCHAR U+0297
ENCODING 663
SWIDTH 450 0
DWIDTH 9 0
BBX 9 20 0 -4
BITMAP
0000
0000
0000
0000
0000
0000
0000
1E00
2100
4000
4000
4000
4000
4000
2100
1E00
0000
0000
0000
0000
ENDCHAR
STARTCHAR U+0298
ENCODING 664
SWIDTH 450 0
DWIDTH 9 0
BBX 9 20 0 -4
BITMAP
0000
0000
0000
1C00
2200
4100
4100
4100
4100
4900
4100
4100
4100
4100
2200
1C00
0000
0000
0000
0000
ENDCHAR
STARTCHAR U+0299
ENCODING 665
SWIDTH 450 0
DWIDTH 9 0
BBX 9 20 0 -4
BITMAP
0000
0000
0000
0000
0000
0000
0000
7E00
4100
4100
4100
7E00
4100
4100
4100
7E00
0000
0000
0000
0000
ENDCHAR
STARTCHAR U+029A
ENCODING 666
SWIDTH 450 0
DWIDTH 9 0
BBX 9 20 0 -4
BITMAP
0000
0000
0000
0000
0000
0000
0000
1C00
2200
4100
2100
1900
2100
4100
2200
1C00
0000
0000
0000
0000
ENDCHAR
STARTCHAR U+029B
ENCODING 667
SWIDTH 450 0
DWIDTH 9 0
BBX 9 20 0 -4
BITMAP
0000
0000
0000
0000
0000
0000
0180
1E00
2200
4000
4000
4000
4600
4200
2200
1E00
0000
0000
0000
0000
ENDCHAR
STARTCHAR U+029C
ENCODING 668
SWIDTH 450 0
DWIDTH 9 0
BBX 9 20 0 -4
BITMAP
0000
0000
0000
0000
0000
0000
0000
4100
4100
4100
4100
7F00
4100
4100
4100
4100
0000
0000
0000
0000
ENDCHAR
STARTCHAR U+029D
ENCODING 669
SWIDTH 450 0
DWIDTH 9 0
BBX 9 20 0 -4
BITMAP
0000
0000
0000
0800
0800
0000
0000
0800
0800
0800
0800
0800
0800
0800
0800
3C00
4800
4800
3000
0000
ENDCHAR
STARTCHAR U+029E
ENCODING 670
SWIDTH 450 0
DWIDTH 9 0
BBX 9 20 0 -4
BITMAP
0000
0000
0000
0000
0000
0000
0000
4100
2100
1100
0900
0700
0900
1100
2100
4100
0100
0100
0100
0100
ENDCHAR
STARTCHAR U+029F
ENCODING 671
SWIDTH 450 0
DWIDTH 9 0
BBX 9 20 0 -4
BITMAP
0000
0000
0000
0000
0000
0000
0000
4000
4000
4000
4000
4000
4000
4000
4000
7F00
0000
0000
0000
0000
ENDCHAR
STARTCHAR U+02A0
ENCODING 672
SWIDTH 450 0
DWIDTH 9 0
BBX 9 20 0 -4
BITMAP
0000
0000
0000
0000
0180
0200
0200
1A00
2600
4200
4200
4200
4200
4200
2600
1A00
0200
0200
0200
0000
ENDCHAR
STARTCHAR U+02A1
ENCODING 673
SWIDTH 450 0
DWIDTH 9 0
BBX 9 20 0 -4
BITMAP
0000
0000
0000
1C00
2200
4100
4100
0100
0200
0C00
0800
3E00
0800
0800
0800
0800
0000
0000
0000
0000
ENDCHAR
STARTCHAR U+02A2
ENCODING 674
SWIDTH 450 0
DWIDTH 9 0
BBX 9 20 0 -4
BITMAP
0000
0000
0000
1C00
2200
4100
4100
4000
2000
1800
0800
3E00
0800
0800
0800
0800
0000
0000
0000
0000
ENDCHAR
STARTCHAR U+02A3
ENCODING 675
SWIDTH 450 0
DWIDTH 9 0
BBX 9 20 0 -4
BITMAP
0000
0000
0000
0800
0800
0800
0800
2F80
5880
8880
8900
8900
8A00
8A00
5C00
2F80
0000
0000
0000
0000
ENDCHAR
STARTCHAR U+02A4
ENCODING 676
SWIDTH 450 0
DWIDTH 9 0
BBX 9 20 0 -4
BITMAP
0000
0000
0000
0800
0800
0800
0800
2F80
5880
8900
8900
8A00
8A00
8900
5880
2880
0080
0900
0600
0000
ENDCHAR
STARTCHAR U+02A5
ENCODING 677
SWIDTH 450 0
DWIDTH 9 0
BBX 9 20 0 -4
BITMAP
0000
0000
0000
0800
0800
0800
0800
2F80
5880
8880
8900
8900
8A00
8B00
5E80
2F80
0400
0000
0000
0000
ENDCHAR
STARTCHAR U+02A6
ENCODING 678
SWIDTH 450 0
DWIDTH 9 0
BBX 9 20 0 -4
BITMAP
0000
0000
0000
0000
0000
4000
4000
EE00
5100
5000
5000
4E00
4100
4100
4100
3E00
0000
0000
0000
0000
ENDCHAR
STARTCHAR U+02A7
ENCODING 679
SWIDTH 450 0
DWIDTH 9 0
BBX 9 20 0 -4
BITMAP
0000
0000
0000
0180
0200
2200
2200
FA00
2200
2200
2200
2200
2200
2200
2200
1E00
0200
0200
0C00
0000
ENDCHAR
STARTCHAR U+02A8
ENCODING 680
SWIDTH 450 0
DWIDTH 9 0
BBX 9 20 0 -4
BITMAP
0000
0000
0000
0000
0000
4000
4000
EE00
5100
5000
5000
5000
5000
5600
5900
3E00
0000
0000
0000
0000
ENDCHAR
STARTCHAR U+02A9
ENCODING 681
SWIDTH 450 0
DWIDTH 9 0
BBX 9 20 0 -4
BITMAP
0000
0000
0000
3800
4000
4000
4000
FA00
4D00
4900
4900
4900
4900
4900
4900
4900
0100
0900
0600
0000
ENDCHAR
STARTCHAR U+02AA
ENCODING 682
SWIDTH 450 0
DWIDTH 9 0
BBX 9 20 0 -4
BITMAP
0000
0000
0000
C000
4000
4000
4000
4E00
5100
5000
5000
4E00
4100
4100
4100
3E00
0000
0000
0000
0000
ENDCHAR
STARTCHAR U+02AB
ENCODING 683
SWIDTH 450 0
DWIDTH 9 0
BBX 9 20 0 -4
BITMAP
0000
0000
0000
C000
4000
4000
4000
7F00
4100
4200
4400
4800
5000
6000
4000
7F00
0000
0000
0000
0000
ENDCHAR
STARTCHAR U+02AC
ENCODING 684
SWIDTH 450 0
DWIDTH 9 0
BBX 9 20 0 -4
BITMAP
0000
0000
0000
4900
4900
4900
4900
5500
2200
0000
4900
4900
4900
4900
5500
2200
0000
0000
0000
0000
ENDCHAR
STARTCHAR U+02AD
ENCODING 685
SWIDTH 450 0
DWIDTH 9 0
BBX 9 20 0 -4
BITMAP
0000
0000
0000
0000
0000
0000
7F00
4100
4100
0000
0000
7F00
4100
4100
0000
0000
0000
0000
0000
0000
ENDCHAR
STARTCHAR U+02AE
ENCODING 686
SWIDTH 450 0
DWIDTH 9 0
BBX 9 20 0 -4
BITMAP
0000
0000
0000
0000
0000
0000
0000
C100
2100
2100
2100
2100
2100
2100
1300
0D00
0100
0100
0100
0100
ENDCHAR
STARTCHAR U+02AF
ENCODING 687
SWIDTH 450 0
DWIDTH 9 0
BBX 9 20 0 -4
BITMAP
0000
0000
0000
0000
0000
0000
0000
C200
2200
2200
2200
2200
2200
2200
2600
1A00
0200
0200
0200
0180
ENDCHAR
STARTCHAR U+02B0
ENCODING 688
SWIDTH 450 0
DWIDTH 9 0
BBX 9 20 0 -4
BITMAP
0000
0000
2000
2000
3C00
2200
2200
2200
2200
0000
0000
0000
0000
0000
0000
0000
0000
0000
0000
0000
ENDCHAR
STARTCHAR U+02B1
ENCODING 689
SWIDTH 450 0
DWIDTH 9 0
BBX 9 20 0 -4
BITMAP
0000
0000
1800
2000
3C00
2200
2200
2200
2200
0000
0000
0000
0000
0000
0000
0000
0000
0000
0000
0000
ENDCHAR
STARTCHAR U+02B2
ENCODING 690
SWIDTH 450 0
DWIDTH 9 0
BBX 9 20 0 -4
BITMAP
0000
0000
0000
0000
0400
0000
0400
0400
0400
1800
0000
0000
0000
0000
0000
0000
0000
0000
0000
0000
ENDCHAR
STARTCHAR U+02B3
ENCODING 691
SWIDTH 450 0
DWIDTH 9 0
BBX 9 20 0 -4
BITMAP
0000
0000
0000
0000
2C00
3000
2000
2000
2000
0000
0000
0000
0000
0000
0000
0000
0000
0000
0000
0000
ENDCHAR
STARTCHAR U+02B4
ENCODING 692
SWIDTH 450 0
DWIDTH 9 0
BBX 9 20 0 -4
BITMAP
0000
0000
0000
0000
0400
0400
0400
0C00
3400
0000
0000
0000
0000
0000
0000
0000
0000
0000
0000
0000
ENDCHAR
STARTCHAR U+02B5
ENCODING 693
SWIDTH 450 0
DWIDTH 9 0
BBX 9 20 0 -4
BITMAP
0000
0000
0000
0000
0400
0400
0400
0C00
3400
0400
0200
0000
0000
0000
0000
0000
0000
0000
0000
0000
ENDCHAR
STARTCHAR U+02B6
ENCODING 694
SWIDTH 450 0
DWIDTH 9 0
BBX 9 20 0 -4
BITMAP
0000
0000
0000
0000
2400
2800
3800
2400
3800
0000
0000
0000
0000
0000
0000
0000
0000
0000
0000
0000
ENDCHAR
STARTCHAR U+02B7
ENCODING 695
SWIDTH 450 0
DWIDTH 9 0
BBX 9 20 0 -4
BITMAP
0000
0000
0000
0000
2200
2A00
2A00
1400
1400
0000
0000
0000
0000
0000
0000
0000
0000
0000
0000
0000
ENDCHAR
STARTCHAR U+02B8
ENCODING 696
SWIDTH 450 0
DWIDTH 9 0
BBX 9 20 0 -4
BITMAP
0000
0000
0000
0000
2200
2200
1400
1400
0800
0800
3000
0000
0000
0000
0000
0000
0000
0000
0000
0000
ENDCHAR
STARTCHAR U+02B9
ENCODING 697
SWIDTH 450 0
DWIDTH 9 0
BBX 9 20 0 -4
BITMAP
0000
0800
0800
0800
1000
1000
1000
0000
0000
0000
0000
0000
0000
0000
0000
0000
0000
0000
0000
0000
ENDCHAR
STARTCHAR U+02BA
ENCODING 698
SWIDTH 450 0
DWIDTH 9 0
BBX 9 20 0 -4
BITMAP
0000
1200
1200
1200
2400
2400
2400
0000
0000
0000
0000
0000
0000
0000
0000
0000
0000
0000
0000
0000
ENDCHAR
STARTCHAR U+02BB
ENCODING 699
SWIDTH 450 0
DWIDTH 9 0
BBX 9 20 0 -4
BITMAP
0000
0000
0400
0800
0800
0800
0000
0000
0000
0000
0000
0000
0000
0000
0000
0000
0000
0000
0000
0000
ENDCHAR
STARTCHAR U+02BC
ENCODING 700
SWIDTH 450 0
DWIDTH 9 0
BBX 9 20 0 -4
BITMAP
0000
0000
0800
0800
0800
1000
0000
0000
0000
0000
0000
0000
0000
0000
0000
0000
0000
0000
0000
0000
ENDCHAR
STARTCHAR U+02BD
ENCODING 701
SWIDTH 450 0
DWIDTH 9 0
BBX 9 20 0 -4
BITMAP
0000
0000
0800
0800
0800
0400
0000
0000
0000
0000
0000
0000
0000
0000
0000
0000
0000
0000
0000
0000
ENDCHAR
STARTCHAR U+02BE
ENCODING 702
SWIDTH 450 0
DWIDTH 9 0
BBX 9 20 0 -4
BITMAP
0000
0000
1800
0400
0400
1800
0000
0000
0000
0000
0000
0000
0000
0000
0000
0000
0000
0000
0000
0000
ENDCHAR
STARTCHAR U+02BF
ENCODING 703
SWIDTH 450 0
DWIDTH 9 0
BBX 9 20 0 -4
BITMAP
0000
0000
0C00
1000
1000
0C00
0000
0000
0000
0000
0000
0000
0000
0000
0000
0000
0000
0000
0000
0000
ENDCHAR
STARTCHAR U+02C0
ENCODING 704
SWIDTH 450 0
DWIDTH 9 0
BBX 9 20 0 -4
BITMAP
0000
0000
1C00
2200
2200
0200
0C00
0800
0800
0000
0000
0000
0000
0000
0000
0000
0000
0000
0000
0000
ENDCHAR
STARTCHAR U+02C1
ENCODING 705
SWIDTH 450 0
DWIDTH 9 0
BBX 9 20 0 -4
BITMAP
0000
0000
1C00
2200
2200
2000
1800
0800
0800
0000
0000
0000
0000
0000
0000
0000
0000
0000
0000
0000
ENDCHAR
STARTCHAR U+02C2
ENCODING 706
SWIDTH 450 0
DWIDTH 9 0
BBX 9 20 0 -4
BITMAP
0000
0000
0000
0000
0400
0800
1000
0800
0400
0000
0000
0000
0000
0000
0000
0000
0000
0000
0000
0000
ENDCHAR
STARTCHAR U+02C3
ENCODING 707
SWIDTH 450 0
DWIDTH 9 0
BBX 9 20 0 -4
BITMAP
0000
0000
0000
0000
1000
0800
0400
0800
1000
0000
0000
0000
0000
0000
0000
0000
0000
0000
0000
0000
ENDCHAR
STARTCHAR U+02C4
ENCODING 708
SWIDTH 450 0
DWIDTH 9 0
BBX 9 20 0 -4
BITMAP
0000
0000
0000
0000
0000
0000
0800
1400
2200
0000
0000
0000
0000
0000
0000
0000
0000
0000
0000
0000
ENDCHAR
STARTCHAR U+02C5
ENCODING 709
SWIDTH 450 0
DWIDTH 9 0
BBX 9 20 0 -4
BITMAP
0000
0000
0000
0000
0000
0000
2200
1400
0800
0000
0000
0000
0000
0000
0000
0000
0000
0000
0000
0000
ENDCHAR
STARTCHAR U+02C6
ENCODING 710
SWIDTH 450 0
DWIDTH 9 0
BBX 9 20 0 -4
BITMAP
0000
0000
0000
0000
0800
1400
0000
0000
0000
0000
0000
0000
0000
0000
0000
0000
0000
0000
0000
0000
ENDCHAR
STARTCHAR U+02C7
ENCODING 711
SWIDTH 450 0
DWIDTH 9 0
BBX 9 20 0 -4
BITMAP
0000
0000
0000
0000
1400
0800
0000
0000
0000
0000
0000
0000
0000
0000
0000
0000
0000
0000
0000
0000
ENDCHAR
STARTCHAR U+02C8
ENCODING 712
SWIDTH 450 0
DWIDTH 9 0
BBX 9 20 0 -4
BITMAP
0000
0000
0000
0800
0800
0800
0800
0000
0000
0000
0000
0000
0000
0000
0000
0000
0000
0000
0000
0000
ENDCHAR
STARTCHAR U+02C9
ENCODING 713
SWIDTH 450 0
DWIDTH 9 0
BBX 9 20 0 -4
BITMAP
0000
0000
0000
3E00
0000
0000
0000
0000
0000
0000
0000
0000
0000
0000
0000
0000
0000
0000
0000
0000
ENDCHAR
STARTCHAR U+02CA
ENCODING 714
SWIDTH 450 0
DWIDTH 9 0
BBX 9 20 0 -4
BITMAP
0000
0000
0000
0400
0800
1000
0000
0000
0000
0000
0000
0000
0000
0000
0000
0000
0000
0000
0000
0000
ENDCHAR
STARTCHAR U+02CB
ENCODING 715
SWIDTH 450 0
DWIDTH 9 0
BBX 9 20 0 -4
BITMAP
0000
0000
0000
0800
0400
0200
0000
0000
0000
0000
0000
0000
0000
0000
0000
0000
0000
0000
0000
0000
ENDCHAR
STARTCHAR U+02CC
ENCODING 716
SWIDTH 450 0
DWIDTH 9 0
BBX 9 20 0 -4
BITMAP
0000
0000
0000
0000
0000
0000
0000
0000
0000
0000
0000
0000
0000
0000
0000
0800
0800
0800
0800
0000
ENDCHAR
STARTCHAR U+02CD
ENCODING 717
SWIDTH 450 0
DWIDTH 9 0
BBX 9 20 0 -4
BITMAP
0000
0000
0000
0000
0000
0000
0000
0000
0000
0000
0000
0000
0000
0000
0000
0000
0000
0000
3E00
0000
ENDCHAR
STARTCHAR U+02CE
ENCODING 718
SWIDTH 450 0
DWIDTH 9 0
BBX 9 20 0 -4
BITMAP
0000
0000
0000
0000
0000
0000
0000
0000
0000
0000
0000
0000
0000
0000
0000
0000
0000
1000
0800
0400
ENDCHAR
STARTCHAR U+02CF
ENCODING 719
SWIDTH 450 0
DWIDTH 9 0
BBX 9 20 0 -4
BITMAP
0000
0000
0000
0000
0000
0000
0000
0000
0000
0000
0000
0000
0000
0000
0000
0000
0000
0400
0800
1000
ENDCHAR
STARTCHAR U+02D0
ENCODING 720
SWIDTH 450 0
DWIDTH 9 0
BBX 9 20 0 -4
BITMAP
0000
0000
0000
0000
0000
0000
0000
1C00
0800
0000
0000
0000
0000
0000
0800
1C00
0000
0000
0000
0000
ENDCHAR
STARTCHAR U+02D1
ENCODING 721
SWIDTH 450 0
DWIDTH 9 0
BBX 9 20 0 -4
BITMAP
0000
0000
0000
0000
0000
0000
0000
1C00
0800
0000
0000
0000
0000
0000
0000
0000
0000
0000
0000
0000
ENDCHAR
STARTCHAR U+02D2
ENCODING 722
SWIDTH 450 0
DWIDTH 9 0
BBX 9 20 0 -4
BITMAP
0000
0000
0000
0000
0000
0000
0000
0000
0000
3000
0800
0400
0400
0800
3000
0000
0000
0000
0000
0000
ENDCHAR
STARTCHAR U+02D3
ENCODING 723
SWIDTH 450 0
DWIDTH 9 0
BBX 9 20 0 -4
BITMAP
0000
0000
0000
0000
0000
0000
0000
0000
0000
0C00
1000
2000
2000
1000
0C00
0000
0000
0000
0000
0000
ENDCHAR
STARTCHAR U+02D4
ENCODING 724
SWIDTH 450 0
DWIDTH 9 0
BBX 9 20 0 -4
BITMAP
0000
0000
0000
0000
0000
0000
0000
0000
0000
0000
0800
0800
0800
3E00
0000
0000
0000
0000
0000
0000
ENDCHAR
STARTCHAR U+02D5
ENCODING 725
SWIDTH 450 0
DWIDTH 9 0
BBX 9 20 0 -4
BITMAP
0000
0000
0000
0000
0000
0000
0000
0000
0000
0000
3E00
0800
0800
0800
0000
0000
0000
0000
0000
0000
ENDCHAR
STARTCHAR U+02D6
ENCODING 726
SWIDTH 450 0
DWIDTH 9 0
BBX 9 20 0 -4
BITMAP
0000
0000
0000
0000
0000
0000
0000
0000
0000
0800
0800
3E00
0800
0800
0000
0000
0000
0000
0000
0000
ENDCHAR
STARTCHAR U+02D7
ENCODING 727
SWIDTH 450 0
DWIDTH 9 0
BBX 9 20 0 -4
BITMAP
0000
0000
0000
0000
0000
0000
0000
0000
0000
0000
0000
3E00
0000
0000
0000
0000
0000
0000
0000
0000
ENDCHAR
STARTCHAR U+02D8
ENCODING 728
SWIDTH 450 0
DWIDTH 9 0
BBX 9 20 0 -4
BITMAP
2200
1C00
0000
0000
0000
0000
0000
0000
0000
0000
0000
0000
0000
0000
0000
0000
0000
0000
0000
0000
ENDCHAR
STARTCHAR U+02D9
ENCODING 729
SWIDTH 450 0
DWIDTH 9 0
BBX 9 20 0 -4
BITMAP
0800
0800
0000
0000
0000
0000
0000
0000
0000
0000
0000
0000
0000
0000
0000
0000
0000
0000
0000
0000
ENDCHAR
STARTCHAR U+02DA
ENCODING 730
SWIDTH 450 0
DWIDTH 9 0
BBX 9 20 0 -4
BITMAP
0800
1400
0800
0000
0000
0000
0000
0000
0000
0000
0000
0000
0000
0000
0000
0000
0000
0000
0000
0000
ENDCHAR
STARTCHAR U+02DB
ENCODING 731
SWIDTH 450 0
DWIDTH 9 0
BBX 9 20 0 -4
BITMAP
0000
0000
0000
0000
0000
0000
0000
0000
0000
0000
0000
0000
0000
0000
0000
0000
0800
1000
0C00
0000
ENDCHAR
STARTCHAR U+02DC
ENCODING 732
SWIDTH 450 0
DWIDTH 9 0
BBX 9 20 0 -4
BITMAP
3300
4C00
0000
0000
0000
0000
0000
0000
0000
0000
0000
0000
0000
0000
0000
0000
0000
0000
0000
0000
ENDCHAR
STARTCHAR U+02DD
ENCODING 733
SWIDTH 450 0
DWIDTH 9 0
BBX 9 20 0 -4
BITMAP
1200
2400
0000
0000
0000
0000
0000
0000
0000
0000
0000
0000
0000
0000
0000
0000
0000
0000
0000
0000
ENDCHAR
STARTCHAR U+02DE
ENCODING 734
SWIDTH 450 0
DWIDTH 9 0
BBX 9 20 0 -4
BITMAP
0000
0000
0000
0000
0000
0000
0000
2000
6000
9800
0000
0000
0000
0000
0000
0000
0000
0000
0000
0000
ENDCHAR
STARTCHAR U+02DF
ENCODING 735
SWIDTH 450 0
DWIDTH 9 0
BBX 9 20 0 -4
BITMAP
1400
0800
1400
0000
0000
0000
0000
0000
0000
0000
0000
0000
0000
0000
0000
0000
0000
0000
0000
0000
ENDCHAR
STARTCHAR U+02E0
ENCODING 736
SWIDTH 450 0
DWIDTH 9 0
BBX 9 20 0 -4
BITMAP
0000
0000
0000
0000
2200
2200
1400
1400
0800
1400
0800
0000
0000
0000
0000
0000
0000
0000
0000
0000
ENDCHAR
STARTCHAR U+02E1
ENCODING 737
SWIDTH 450 0
DWIDTH 9 0
BBX 9 20 0 -4
BITMAP
0000
0000
3000
1000
1000
1000
1000
1000
0C00
0000
0000
0000
0000
0000
0000
0000
0000
0000
0000
0000
ENDCHAR
STARTCHAR U+02E2
ENCODING 738
SWIDTH 450 0
DWIDTH 9 0
BBX 9 20 0 -4
BITMAP
0000
0000
0000
0000
1C00
2000
1800
0400
3800
0000
0000
0000
0000
0000
0000
0000
0000
0000
0000
0000
ENDCHAR
STARTCHAR U+02E3
ENCODING 739
SWIDTH 450 0
DWIDTH 9 0
BBX 9 20 0 -4
BITMAP
0000
0000
0000
0000
2400
2400
1800
2400
2400
0000
0000
0000
0000
0000
0000
0000
0000
0000
0000
0000
ENDCHAR
STARTCHAR U+02E4
ENCODING 740
SWIDTH 450 0
DWIDTH 9 0
BBX 9 20 0 -4
BITMAP
0000
0000
0000
1C00
2200
2000
1800
0800
0800
0800
0000
0000
0000
0000
0000
0000
0000
0000
0000
0000
ENDCHAR
STARTCHAR U+02E5
ENCODING 741
SWIDTH 450 0
DWIDTH 9 0
BBX 9 20 0 -4
BITMAP
0000
0000
0000
7F00
0100
0100
0100
0100
0100
0100
0100
0100
0100
0100
0100
0100
0000
0000
0000
0000
ENDCHAR
STARTCHAR U+02E6
ENCODING 742
SWIDTH 450 0
DWIDTH 9 0
BBX 9 20 0 -4
BITMAP
0000
0000
0000
0100
0100
0100
7F00
0100
0100
0100
0100
0100
0100
0100
0100
0100
0000
0000
0000
0000
ENDCHAR
STARTCHAR U+02E7
ENCODING 743
SWIDTH 450 0
DWIDTH 9 0
BBX 9 20 0 -4
BITMAP
0000
0000
0000
0100
0100
0100
0100
0100
0100
7F00
0100
0100
0100
0100
0100
0100
0000
0000
0000
0000
ENDCHAR
STARTCHAR U+02E8
ENCODING 744
SWIDTH 450 0
DWIDTH 9 0
BBX 9 20 0 -4
BITMAP
0000
0000
0000
0100
0100
0100
0100
0100
0100
0100
0100
0100
7F00
0100
0100
0100
0000
0000
0000
0000
ENDCHAR
STARTCHAR U+02E9
ENCODING 745
SWIDTH 450 0
DWIDTH 9 0
BBX 9 20 0 -4
BITMAP
0000
0000
0000
0100
0100
0100
0100
0100
0100
0100
0100
0100
0100
0100
0100
7F00
0000
0000
0000
0000
ENDCHAR
STARTCHAR U+02EA
ENCODING 746
SWIDTH 450 0
DWIDTH 9 0
BBX 9 20 0 -4
BITMAP
0000
0000
0000
0000
0000
0000
0000
0000
0000
4000
4000
4000
4000
4000
4000
7F00
0000
0000
0000
0000
ENDCHAR
STARTCHAR U+02EB
ENCODING 747
SWIDTH 450 0
DWIDTH 9 0
BBX 9 20 0 -4
BITMAP
0000
0000
0000
0000
0000
0000
0000
0000
2000
2000
2000
3F00
2000
2000
2000
0000
0000
0000
0000
0000
ENDCHAR
STARTCHAR U+02EC
ENCODING 748
SWIDTH 450 0
DWIDTH 9 0
BBX 9 20 0 -4
BITMAP
0000
0000
0000
0000
0000
0000
0000
0000
0000
0000
0000
0000
0000
0000
0000
0000
2200
1400
0800
0000
ENDCHAR
STARTCHAR U+02ED
ENCODING 749
SWIDTH 450 0
DWIDTH 9 0
BBX 9 20 0 -4
BITMAP
0000
0000
0000
3E00
0000
3E00
0000
0000
0000
0000
0000
0000
0000
0000
0000
0000
0000
0000
0000
0000
ENDCHAR
STARTCHAR U+02EE
ENCODING 750
SWIDTH 450 0
DWIDTH 9 0
BBX 9 20 0 -4
BITMAP
0000
0000
0000
1200
1200
1200
2400
0000
0000
0000
0000
0000
0000
0000
0000
0000
0000
0000
0000
0000
ENDCHAR
STARTCHAR U+02EF
ENCODING 751
SWIDTH 450 0
DWIDTH 9 0
BBX 9 20 0 -4
BITMAP
0000
0000
0000
0000
0000
0000
0000
0000
0000
0000
0000
0000
0000
0000
0000
0000
2200
1400
0800
0000
ENDCHAR
STARTCHAR U+02F0
ENCODING 752
SWIDTH 450 0
DWIDTH 9 0
BBX 9 20 0 -4
BITMAP
0000
0000
0000
0000
0000
0000
0000
0000
0000
0000
0000
0000
0000
0000
0000
0000
0800
1400
2200
0000
ENDCHAR
STARTCHAR U+02F1
ENCODING 753
SWIDTH 450 0
DWIDTH 9 0
BBX 9 20 0 -4
BITMAP
0000
0000
0000
0000
0000
0000
0000
0000
0000
0000
0000
0000
0000
0000
0400
0800
1000
0800
0400
0000
ENDCHAR
STARTCHAR U+02F2
ENCODING 754
SWIDTH 450 0
DWIDTH 9 0
BBX 9 20 0 -4
BITMAP
0000
0000
0000
0000
0000
0000
0000
0000
0000
0000
0000
0000
0000
0000
1000
0800
0400
0800
1000
0000
ENDCHAR
STARTCHAR U+02F3
ENCODING 755
SWIDTH 450 0
DWIDTH 9 0
BBX 9 20 0 -4
BITMAP
0000
0000
0000
0000
0000
0000
0000
0000
0000
0000
0000
0000
0000
0000
0000
0000
1800
2400
2400
1800
ENDCHAR
STARTCHAR U+02F4
ENCODING 756
SWIDTH 450 0
DWIDTH 9 0
BBX 9 20 0 -4
BITMAP
0000
0000
0000
0000
0000
0000
0000
0000
0000
0000
1000
0800
0400
0000
0000
0000
0000
0000
0000
0000
ENDCHAR
STARTCHAR U+02F5
ENCODING 757
SWIDTH 450 0
DWIDTH 9 0
BBX 9 20 0 -4
BITMAP
0000
0000
0000
0000
0000
0000
0000
0000
0000
0000
4800
2400
1200
0000
0000
0000
0000
0000
0000
0000
ENDCHAR
STARTCHAR U+02F6
ENCODING 758
SWIDTH 450 0
DWIDTH 9 0
BBX 9 20 0 -4
BITMAP
0000
0000
0000
0000
0000
0000
0000
0000
0000
0000
1200
2400
4800
0000
0000
0000
0000
0000
0000
0000
ENDCHAR
STARTCHAR U+02F7
ENCODING 759
SWIDTH 450 0
DWIDTH 9 0
BBX 9 20 0 -4
BITMAP
0000
0000
0000
0000
0000
0000
0000
0000
0000
0000
0000
0000
0000
0000
0000
0000
0000
3000
4900
0600
ENDCHAR
STARTCHAR U+02F8
ENCODING 760
SWIDTH 450 0
DWIDTH 9 0
BBX 9 20 0 -4
BITMAP
0000
0000
0000
0800
0800
0000
0000
0000
0000
0000
0800
0800
0000
0000
0000
0000
0000
0000
0000
0000
ENDCHAR
STARTCHAR U+02F9
ENCODING 761
SWIDTH 450 0
DWIDTH 9 0
BBX 9 20 0 -4
BITMAP
0000
0000
0000
3C00
2000
2000
2000
2000
0000
0000
0000
0000
0000
0000
0000
0000
0000
0000
0000
0000
ENDCHAR
STARTCHAR U+02FA
ENCODING 762
SWIDTH 450 0
DWIDTH 9 0
BBX 9 20 0 -4
BITMAP
0000
0000
0000
3C00
0400
0400
0400
0400
0000
0000
0000
0000
0000
0000
0000
0000
0000
0000
0000
0000
ENDCHAR
STARTCHAR U+02FB
ENCODING 763
SWIDTH 450 0
DWIDTH 9 0
BBX 9 20 0 -4
BITMAP
0000
0000
0000
0000
0000
0000
0000
0000
0000
0000
0000
2000
2000
2000
2000
3C00
0000
0000
0000
0000
ENDCHAR
STARTCHAR U+02FC
ENCODING 764
SWIDTH 450 0
DWIDTH 9 0
BBX 9 20 0 -4
BITMAP
0000
0000
0000
0000
0000
0000
0000
0000
0000
0000
0000
0400
0400
0400
0400
3C00
0000
0000
0000
0000
ENDCHAR
STARTCHAR U+02FD
ENCODING 765
SWIDTH 450 0
DWIDTH 9 0
BBX 9 20 0 -4
BITMAP
0000
0000
0000
0000
0000
0000
0000
0000
0000
0000
0000
0000
0000
0000
0000
0000
4100
7F00
0000
0000
ENDCHAR
STARTCHAR U+02FE
ENCODING 766
SWIDTH 450 0
DWIDTH 9 0
BBX 9 20 0 -4
BITMAP
0000
0000
0000
0000
0000
0000
0000
0000
0000
0000
0000
0000
0000
0000
0000
0000
4000
7F00
0000
0000
ENDCHAR
STARTCHAR U+02FF
ENCODING 767
SWIDTH 450 0
DWIDTH 9 0
BBX 9 20 0 -4
BITMAP
0000
0000
0000
0000
0000
0000
0000
0000
0000
0000
0000
0000
0000
0000
1000
2000
7F00
2000
1000
0000
ENDCHAR
STARTCHAR U+0300
ENCODING 768
SWIDTH 450 0
DWIDTH 9 0
BBX 9 20 0 -4
BITMAP
0000
0000
0000
0000
0400
0800
0000
0000
0000
0000
0000
0000
0000
0000
0000
0000
0000
0000
0000
0000
ENDCHAR
STARTCHAR U+0301
ENCODING 769
SWIDTH 450 0
DWIDTH 9 0
BBX 9 20 0 -4
BITMAP
0000
0000
0000
0000
1000
0800
0000
0000
0000
0000
0000
0000
0000
0000
0000
0000
0000
0000
0000
0000
ENDCHAR
STARTCHAR U+0302
ENCODING 770
SWIDTH 450 0
DWIDTH 9 0
BBX 9 20 0 -4
BITMAP
0000
0000
0000
0000
0800
1400
0000
0000
0000
0000
0000
0000
0000
0000
0000
0000
0000
0000
0000
0000
ENDCHAR
STARTCHAR U+0303
ENCODING 771
SWIDTH 450 0
DWIDTH 9 0
BBX 9 20 0 -4
BITMAP
0000
0000
0000
0000
3300
4C00
0000
0000
0000
0000
0000
0000
0000
0000
0000
0000
0000
0000
0000
0000
ENDCHAR
STARTCHAR U+0304
ENCODING 772
SWIDTH 450 0
DWIDTH 9 0
BBX 9 20 0 -4
BITMAP
0000
0000
0000
0000
0000
3E00
0000
0000
0000
0000
0000
0000
0000
0000
0000
0000
0000
0000
0000
0000
ENDCHAR
STARTCHAR U+0305
ENCODING 773
SWIDTH 450 0
DWIDTH 9 0
BBX 9 20 0 -4
BITMAP
0000
0000
0000
0000
0000
FF80
0000
0000
0000
0000
0000
0000
0000
0000
0000
0000
0000
0000
0000
0000
ENDCHAR
STARTCHAR U+0306
ENCODING 774
SWIDTH 450 0
DWIDTH 9 0
BBX 9 20 0 -4
BITMAP
0000
0000
0000
0000
2200
1C00
0000
0000
0000
0000
0000
0000
0000
0000
0000
0000
0000
0000
0000
0000
ENDCHAR
STARTCHAR U+0307
ENCODING 775
SWIDTH 450 0
DWIDTH 9 0
BBX 9 20 0 -4
BITMAP
0000
0000
0000
0000
0800
0800
0000
0000
0000
0000
0000
0000
0000
0000
0000
0000
0000
0000
0000
0000
ENDCHAR
STARTCHAR U+0308
ENCODING 776
SWIDTH 450 0
DWIDTH 9 0
BBX 9 20 0 -4
BITMAP
0000
0000
0000
0000
2400
2400
0000
0000
0000
0000
0000
0000
0000
0000
0000
0000
0000
0000
0000
0000
ENDCHAR
STARTCHAR U+0309
ENCODING 777
SWIDTH 450 0
DWIDTH 9 0
BBX 9 20 0 -4
BITMAP
0000
0000
0000
1800
0400
0800
0800
0000
0000
0000
0000
0000
0000
0000
0000
0000
0000
0000
0000
0000
ENDCHAR
STARTCHAR U+030A
ENCODING 778
SWIDTH 450 0
DWIDTH 9 0
BBX 9 20 0 -4
BITMAP
0000
0000
0000
0800
1400
0800
0000
0000
0000
0000
0000
0000
0000
0000
0000
0000
0000
0000
0000
0000
ENDCHAR
STARTCHAR U+030B
ENCODING 779
SWIDTH 450 0
DWIDTH 9 0
BBX 9 20 0 -4
BITMAP
0000
0000
0000
0000
1200
2400
0000
0000
0000
0000
0000
0000
0000
0000
0000
0000
0000
0000
0000
0000
ENDCHAR
STARTCHAR U+030C
ENCODING 780
SWIDTH 450 0
DWIDTH 9 0
BBX 9 20 0 -4
BITMAP
0000
0000
0000
0000
1400
0800
0000
0000
0000
0000
0000
0000
0000
0000
0000
0000
0000
0000
0000
0000
ENDCHAR
STARTCHAR U+030D
ENCODING 781
SWIDTH 450 0
DWIDTH 9 0
BBX 9 20 0 -4
BITMAP
0000
0000
0000
0800
0800
0800
0000
0000
0000
0000
0000
0000
0000
0000
0000
0000
0000
0000
0000
0000
ENDCHAR
STARTCHAR U+030E
ENCODING 782
SWIDTH 450 0
DWIDTH 9 0
BBX 9 20 0 -4
BITMAP
0000
0000
0000
2400
2400
2400
0000
0000
0000
0000
0000
0000
0000
0000
0000
0000
0000
0000
0000
0000
ENDCHAR
STARTCHAR U+030F
ENCODING 783
SWIDTH 450 0
DWIDTH 9 0
BBX 9 20 0 -4
BITMAP
0000
0000
0000
0000
2400
1200
0000
0000
0000
0000
0000
0000
0000
0000
0000
0000
0000
0000
0000
0000
ENDCHAR
STARTCHAR U+0310
ENCODING 784
SWIDTH 450 0
DWIDTH 9 0
BBX 9 20 0 -4
BITMAP
0000
0000
0000
0800
2200
1C00
0000
0000
0000
0000
0000
0000
0000
0000
0000
0000
0000
0000
0000
0000
ENDCHAR
STARTCHAR U+0311
ENCODING 785
SWIDTH 450 0
DWIDTH 9 0
BBX 9 20 0 -4
BITMAP
0000
0000
0000
0000
1C00
2200
0000
0000
0000
0000
0000
0000
0000
0000
0000
0000
0000
0000
0000
0000
ENDCHAR
STARTCHAR U+0312
ENCODING 786
SWIDTH 450 0
DWIDTH 9 0
BBX 9 20 0 -4
BITMAP
0000
0000
0000
0400
0800
0800
0000
0000
0000
0000
0000
0000
0000
0000
0000
0000
0000
0000
0000
0000
ENDCHAR
STARTCHAR U+0313
ENCODING 787
SWIDTH 450 0
DWIDTH 9 0
BBX 9 20 0 -4
BITMAP
0000
0000
0000
0400
0400
0800
0000
0000
0000
0000
0000
0000
0000
0000
0000
0000
0000
0000
0000
0000
ENDCHAR
STARTCHAR U+0314
ENCODING 788
SWIDTH 450 0
DWIDTH 9 0
BBX 9 20 0 -4
BITMAP
0000
0000
0000
0800
0800
0400
0000
0000
0000
0000
0000
0000
0000
0000
0000
0000
0000
0000
0000
0000
ENDCHAR
STARTCHAR U+0315
ENCODING 789
SWIDTH 450 0
DWIDTH 9 0
BBX 9 20 0 -4
BITMAP
0000
0000
0000
0100
0100
0200
0000
0000
0000
0000
0000
0000
0000
0000
0000
0000
0000
0000
0000
0000
ENDCHAR
STARTCHAR U+0316
ENCODING 790
SWIDTH 450 0
DWIDTH 9 0
BBX 9 20 0 -4
BITMAP
0000
0000
0000
0000
0000
0000
0000
0000
0000
0000
0000
0000
0000
0000
0000
0000
0000
0800
0400
0000
ENDCHAR
STARTCHAR U+0317
ENCODING 791
SWIDTH 450 0
DWIDTH 9 0
BBX 9 20 0 -4
BITMAP
0000
0000
0000
0000
0000
0000
0000
0000
0000
0000
0000
0000
0000
0000
0000
0000
0000
0800
1000
0000
ENDCHAR
STARTCHAR U+0318
ENCODING 792
SWIDTH 450 0
DWIDTH 9 0
BBX 9 20 0 -4
BITMAP
0000
0000
0000
0000
0000
0000
0000
0000
0000
0000
0000
0000
0000
0000
0000
0000
0000
0400
1C00
0400
ENDCHAR
STARTCHAR U+0319
ENCODING 793
SWIDTH 450 0
DWIDTH 9 0
BBX 9 20 0 -4
BITMAP
0000
0000
0000
0000
0000
0000
0000
0000
0000
0000
0000
0000
0000
0000
0000
0000
0000
1000
1C00
1000
ENDCHAR
STARTCHAR U+031A
ENCODING 794
SWIDTH 450 0
DWIDTH 9 0
BBX 9 20 0 -4
BITMAP
0380
0080
0080
0000
0000
0000
0000
0000
0000
0000
0000
0000
0000
0000
0000
0000
0000
0000
0000
0000
ENDCHAR
STARTCHAR U+031B
ENCODING 795
SWIDTH 450 0
DWIDTH 9 0
BBX 9 20 0 -4
BITMAP
0000
0000
0000
0000
0000
0080
0080
0100
0000
0000
0000
0000
0000
0000
0000
0000
0000
0000
0000
0000
ENDCHAR
STARTCHAR U+031C
ENCODING 796
SWIDTH 450 0
DWIDTH 9 0
BBX 9 20 0 -4
BITMAP
0000
0000
0000
0000
0000
0000
0000
0000
0000
0000
0000
0000
0000
0000
0000
0000
0000
0C00
1000
0C00
ENDCHAR
STARTCHAR U+031D
ENCODING 797
SWIDTH 450 0
DWIDTH 9 0
BBX 9 20 0 -4
BITMAP
0000
0000
0000
0000
0000
0000
0000
0000
0000
0000
0000
0000
0000
0000
0000
0000
0000
0800
0800
1C00
ENDCHAR
STARTCHAR U+031E
ENCODING 798
SWIDTH 450 0
DWIDTH 9 0
BBX 9 20 0 -4
BITMAP
0000
0000
0000
0000
0000
0000
0000
0000
0000
0000
0000
0000
0000
0000
0000
0000
0000
1C00
0800
0800
ENDCHAR
STARTCHAR U+031F
ENCODING 799
SWIDTH 450 0
DWIDTH 9 0
BBX 9 20 0 -4
BITMAP
0000
0000
0000
0000
0000
0000
0000
0000
0000
0000
0000
0000
0000
0000
0000
0000
0000
0800
1C00
0800
ENDCHAR
STARTCHAR U+0320
ENCODING 800
SWIDTH 450 0
DWIDTH 9 0
BBX 9 20 0 -4
BITMAP
0000
0000
0000
0000
0000
0000
0000
0000
0000
0000
0000
0000
0000
0000
0000
0000
0000
1C00
0000
0000
ENDCHAR
STARTCHAR U+0321
ENCODING 801
SWIDTH 450 0
DWIDTH 9 0
BBX 9 20 0 -4
BITMAP
0000
0000
0000
0000
0000
0000
0000
0000
0000
0000
0000
0000
0000
0000
0000
0080
0080
0080
0300
0000
ENDCHAR
STARTCHAR U+0322
ENCODING 802
SWIDTH 450 0
DWIDTH 9 0
BBX 9 20 0 -4
BITMAP
0000
0000
0000
0000
0000
0000
0000
0000
0000
0000
0000
0000
0000
0000
0000
0200
0200
0200
0180
0000
ENDCHAR
STARTCHAR U+0323
ENCODING 803
SWIDTH 450 0
DWIDTH 9 0
BBX 9 20 0 -4
BITMAP
0000
0000
0000
0000
0000
0000
0000
0000
0000
0000
0000
0000
0000
0000
0000
0000
0000
0800
0800
0000
ENDCHAR
STARTCHAR U+0324
ENCODING 804
SWIDTH 450 0
DWIDTH 9 0
BBX 9 20 0 -4
BITMAP
0000
0000
0000
0000
0000
0000
0000
0000
0000
0000
0000
0000
0000
0000
0000
0000
0000
2400
2400
0000
ENDCHAR
STARTCHAR U+0325
ENCODING 805
SWIDTH 450 0
DWIDTH 9 0
BBX 9 20 0 -4
BITMAP
0000
0000
0000
0000
0000
0000
0000
0000
0000
0000
0000
0000
0000
0000
0000
0000
0000
0800
1400
0800
ENDCHAR
STARTCHAR U+0326
ENCODING 806
SWIDTH 450 0
DWIDTH 9 0
BBX 9 20 0 -4
BITMAP
0000
0000
0000
0000
0000
0000
0000
0000
0000
0000
0000
0000
0000
0000
0000
0000
0000
0800
0800
1000
ENDCHAR
STARTCHAR U+0327
ENCODING 807
SWIDTH 450 0
DWIDTH 9 0
BBX 9 20 0 -4
BITMAP
0000
0000
0000
0000
0000
0000
0000
0000
0000
0000
0000
0000
0000
0000
0000
0000
0800
0400
1800
0000
ENDCHAR
STARTCHAR U+0328
ENCODING 808
SWIDTH 450 0
DWIDTH 9 0
BBX 9 20 0 -4
BITMAP
0000
0000
0000
0000
0000
0000
0000
0000
0000
0000
0000
0000
0000
0000
0000
0000
0800
1000
0C00
0000
ENDCHAR
STARTCHAR U+0329
ENCODING 809
SWIDTH 450 0
DWIDTH 9 0
BBX 9 20 0 -4
BITMAP
0000
0000
0000
0000
0000
0000
0000
0000
0000
0000
0000
0000
0000
0000
0000
0000
0000
0800
0800
0800
ENDCHAR
STARTCHAR U+032A
ENCODING 810
SWIDTH 450 0
DWIDTH 9 0
BBX 9 20 0 -4
BITMAP
0000
0000
0000
0000
0000
0000
0000
0000
0000
0000
0000
0000
0000
0000
0000
0000
0000
7F00
4100
0000
ENDCHAR
STARTCHAR U+032B
ENCODING 811
SWIDTH 450 0
DWIDTH 9 0
BBX 9 20 0 -4
BITMAP
0000
0000
0000
0000
0000
0000
0000
0000
0000
0000
0000
0000
0000
0000
0000
0000
0000
4900
3600
0000
ENDCHAR
STARTCHAR U+032C
ENCODING 812
SWIDTH 450 0
DWIDTH 9 0
BBX 9 20 0 -4
BITMAP
0000
0000
0000
0000
0000
0000
0000
0000
0000
0000
0000
0000
0000
0000
0000
0000
0000
1400
0800
0000
ENDCHAR
STARTCHAR U+032D
ENCODING 813
SWIDTH 450 0
DWIDTH 9 0
BBX 9 20 0 -4
BITMAP
0000
0000
0000
0000
0000
0000
0000
0000
0000
0000
0000
0000
0000
0000
0000
0000
0000
0800
1400
0000
ENDCHAR
STARTCHAR U+032E
ENCODING 814
SWIDTH 450 0
DWIDTH 9 0
BBX 9 20 0 -4
BITMAP
0000
0000
0000
0000
0000
0000
0000
0000
0000
0000
0000
0000
0000
0000
0000
0000
0000
2200
1C00
0000
ENDCHAR
STARTCHAR U+032F
ENCODING 815
SWIDTH 450 0
DWIDTH 9 0
BBX 9 20 0 -4
BITMAP
0000
0000
0000
0000
0000
0000
0000
0000
0000
0000
0000
0000
0000
0000
0000
0000
0000
1C00
2200
0000
ENDCHAR
STARTCHAR U+0330
ENCODING 816
SWIDTH 450 0
DWIDTH 9 0
BBX 9 20 0 -4
BITMAP
0000
0000
0000
0000
0000
0000
0000
0000
0000
0000
0000
0000
0000
0000
0000
0000
0000
3000
4900
0600
ENDCHAR
STARTCHAR U+0331
ENCODING 817
SWIDTH 450 0
DWIDTH 9 0
BBX 9 20 0 -4
BITMAP
0000
0000
0000
0000
0000
0000
0000
0000
0000
0000
0000
0000
0000
0000
0000
0000
0000
3E00
0000
0000
ENDCHAR
STARTCHAR U+0332
ENCODING 818
SWIDTH 450 0
DWIDTH 9 0
BBX 9 20 0 -4
BITMAP
0000
0000
0000
0000
0000
0000
0000
0000
0000
0000
0000
0000
0000
0000
0000
0000
0000
FF80
0000
0000
ENDCHAR
STARTCHAR U+0333
ENCODING 819
SWIDTH 450 0
DWIDTH 9 0
BBX 9 20 0 -4
BITMAP
0000
0000
0000
0000
0000
0000
0000
0000
0000
0000
0000
0000
0000
0000
0000
0000
0000
FF80
0000
FF80
ENDCHAR
STARTCHAR U+0334
ENCODING 820
SWIDTH 450 0
DWIDTH 9 0
BBX 9 20 0 -4
BITMAP
0000
0000
0000
0000
0000
0000
0000
0000
0000
0000
3000
4900
0600
0000
0000
0000
0000
0000
0000
0000
ENDCHAR
STARTCHAR U+0335
ENCODING 821
SWIDTH 450 0
DWIDTH 9 0
BBX 9 20 0 -4
BITMAP
0000
0000
0000
0000
0000
0000
0000
0000
0000
0000
0000
3E00
0000
0000
0000
0000
0000
0000
0000
0000
ENDCHAR
STARTCHAR U+0336
ENCODING 822
SWIDTH 450 0
DWIDTH 9 0
BBX 9 20 0 -4
BITMAP
0000
0000
0000
0000
0000
0000
0000
0000
0000
0000
0000
FF80
0000
0000
0000
0000
0000
0000
0000
0000
ENDCHAR
STARTCHAR U+0337
ENCODING 823
SWIDTH 450 0
DWIDTH 9 0
BBX 9 20 0 -4
BITMAP
0000
0000
0000
0000
0000
0000
0000
0000
0000
0200
0400
0800
1000
2000
0000
0000
0000
0000
0000
0000
ENDCHAR
STARTCHAR U+0338
ENCODING 824
SWIDTH 450 0
DWIDTH 9 0
BBX 9 20 0 -4
BITMAP
0000
0000
0000
0000
0000
0000
0000
0080
0100
0200
0400
0800
1000
2000
4000
8000
0000
0000
0000
0000
ENDCHAR
STARTCHAR U+0339
ENCODING 825
SWIDTH 450 0
DWIDTH 9 0
BBX 9 20 0 -4
BITMAP
0000
0000
0000
0000
0000
0000
0000
0000
0000
0000
0000
0000
0000
0000
0000
0000
0000
1800
0400
1800
ENDCHAR
STARTCHAR U+033A
ENCODING 826
SWIDTH 450 0
DWIDTH 9 0
BBX 9 20 0 -4
BITMAP
0000
0000
0000
0000
0000
0000
0000
0000
0000
0000
0000
0000
0000
0000
0000
0000
0000
4100
7F00
0000
ENDCHAR
STARTCHAR U+033B
ENCODING 827
SWIDTH 450 0
DWIDTH 9 0
BBX 9 20 0 -4
BITMAP
0000
0000
0000
0000
0000
0000
0000
0000
0000
0000
0000
0000
0000
0000
0000
0000
0000
1C00
1400
1C00
ENDCHAR
STARTCHAR U+033C
ENCODING 828
SWIDTH 450 0
DWIDTH 9 0
BBX 9 20 0 -4
BITMAP
0000
0000
0000
0000
0000
0000
0000
0000
0000
0000
0000
0000
0000
0000
0000
0000
0000
3600
4900
0000
ENDCHAR
STARTCHAR U+033D
ENCODING 829
SWIDTH 450 0
DWIDTH 9 0
BBX 9 20 0 -4
BITMAP
0000
0000
0000
1400
0800
1400
0000
0000
0000
0000
0000
0000
0000
0000
0000
0000
0000
0000
0000
0000
ENDCHAR
STARTCHAR U+033E
ENCODING 830
SWIDTH 450 0
DWIDTH 9 0
BBX 9 20 0 -4
BITMAP
0000
0000
0400
0800
0400
0800
0000
0000
0000
0000
0000
0000
0000
0000
0000
0000
0000
0000
0000
0000
ENDCHAR
STARTCHAR U+033F
ENCODING 831
SWIDTH 450 0
DWIDTH 9 0
BBX 9 20 0 -4
BITMAP
FF80
0000
FF80
0000
0000
0000
0000
0000
0000
0000
0000
0000
0000
0000
0000
0000
0000
0000
0000
0000
ENDCHAR
STARTCHAR U+0340
ENCODING 832
SWIDTH 450 0
DWIDTH 9 0
BBX 9 20 0 -4
BITMAP
0000
0000
0000
0000
1000
0800
0000
0000
0000
0000
0000
0000
0000
0000
0000
0000
0000
0000
0000
0000
ENDCHAR
STARTCHAR U+0341
ENCODING 833
SWIDTH 450 0
DWIDTH 9 0
BBX 9 20 0 -4
BITMAP
0000
0000
0000
0000
0400
0800
0000
0000
0000
0000
0000
0000
0000
0000
0000
0000
0000
0000
0000
0000
ENDCHAR
STARTCHAR U+0342
ENCODING 834
SWIDTH 450 0
DWIDTH 9 0
BBX 9 20 0 -4
BITMAP
0000
0000
0000
0000
3300
4C00
0000
0000
0000
0000
0000
0000
0000
0000
0000
0000
0000
0000
0000
0000
ENDCHAR
STARTCHAR U+0343
ENCODING 835
SWIDTH 450 0
DWIDTH 9 0
BBX 9 20 0 -4
BITMAP
0000
0000
0000
0400
0400
0800
0000
0000
0000
0000
0000
0000
0000
0000
0000
0000
0000
0000
0000
0000
ENDCHAR
STARTCHAR U+0344
ENCODING 836
SWIDTH 450 0
DWIDTH 9 0
BBX 9 20 0 -4
BITMAP
0000
0000
0000
0400
0800
2200
0000
0000
0000
0000
0000
0000
0000
0000
0000
0000
0000
0000
0000
0000
ENDCHAR
STARTCHAR U+0345
ENCODING 837
SWIDTH 450 0
DWIDTH 9 0
BBX 9 20 0 -4
BITMAP
0000
0000
0000
0000
0000
0000
0000
0000
0000
0000
0000
0000
0000
0000
0000
0000
0000
0800
0800
0400
ENDCHAR
STARTCHAR U+0346
ENCODING 838
SWIDTH 450 0
DWIDTH 9 0
BBX 9 20 0 -4
BITMAP
0000
0000
0000
0000
7F00
4100
0000
0000
0000
0000
0000
0000
0000
0000
0000
0000
0000
0000
0000
0000
ENDCHAR
STARTCHAR U+0347
ENCODING 839
SWIDTH 450 0
DWIDTH 9 0
BBX 9 20 0 -4
BITMAP
0000
0000
0000
0000
0000
0000
0000
0000
0000
0000
0000
0000
0000
0000
0000
0000
0000
3E00
0000
3E00
ENDCHAR
STARTCHAR U+0348
ENCODING 840
SWIDTH 450 0
DWIDTH 9 0
BBX 9 20 0 -4
BITMAP
0000
0000
0000
0000
0000
0000
0000
0000
0000
0000
0000
0000
0000
0000
0000
0000
0000
1400
1400
1400
ENDCHAR
STARTCHAR U+0349
ENCODING 841
SWIDTH 450 0
DWIDTH 9 0
BBX 9 20 0 -4
BITMAP
0000
0000
0000
0000
0000
0000
0000
0000
0000
0000
0000
0000
0000
0000
0000
0000
0000
1C00
0400
0400
ENDCHAR
STARTCHAR U+034A
ENCODING 842
SWIDTH 450 0
DWIDTH 9 0
BBX 9 20 0 -4
BITMAP
0000
0000
0400
3B00
5C00
2000
0000
0000
0000
0000
0000
0000
0000
0000
0000
0000
0000
0000
0000
0000
ENDCHAR
STARTCHAR U+034B
ENCODING 843
SWIDTH 450 0
DWIDTH 9 0
BBX 9 20 0 -4
BITMAP
0000
0800
3300
4C00
0000
0800
0000
0000
0000
0000
0000
0000
0000
0000
0000
0000
0000
0000
0000
0000
ENDCHAR
STARTCHAR U+034C
ENCODING 844
SWIDTH 450 0
DWIDTH 9 0
BBX 9 20 0 -4
BITMAP
0000
0000
3300
4C00
3300
4C00
0000
0000
0000
0000
0000
0000
0000
0000
0000
0000
0000
0000
0000
0000
ENDCHAR
STARTCHAR U+034D
ENCODING 845
SWIDTH 450 0
DWIDTH 9 0
BBX 9 20 0 -4
BITMAP
0000
0000
0000
0000
0000
0000
0000
0000
0000
0000
0000
0000
0000
0000
0000
0000
0000
2200
7F00
2200
ENDCHAR
STARTCHAR U+034E
ENCODING 846
SWIDTH 450 0
DWIDTH 9 0
BBX 9 20 0 -4
BITMAP
0000
0000
0000
0000
0000
0000
0000
0000
0000
0000
0000
0000
0000
0000
0000
0000
0000
0800
1C00
2A00
ENDCHAR
STARTCHAR U+0350
ENCODING 848
SWIDTH 450 0
DWIDTH 9 0
BBX 9 20 0 -4
BITMAP
0000
1000
0800
0400
0800
1000
0000
0000
0000
0000
0000
0000
0000
0000
0000
0000
0000
0000
0000
0000
ENDCHAR
STARTCHAR U+0351
ENCODING 849
SWIDTH 450 0
DWIDTH 9 0
BBX 9 20 0 -4
BITMAP
0000
0000
0C00
1000
1000
0C00
0000
0000
0000
0000
0000
0000
0000
0000
0000
0000
0000
0000
0000
0000
ENDCHAR
STARTCHAR U+0352
ENCODING 850
SWIDTH 450 0
DWIDTH 9 0
BBX 9 20 0 -4
BITMAP
0000
0000
0000
1C00
2200
0800
0000
0000
0000
0000
0000
0000
0000
0000
0000
0000
0000
0000
0000
0000
ENDCHAR
STARTCHAR U+0353
ENCODING 851
SWIDTH 450 0
DWIDTH 9 0
BBX 9 20 0 -4
BITMAP
0000
0000
0000
0000
0000
0000
0000
0000
0000
0000
0000
0000
0000
0000
0000
0000
0000
1400
0800
1400
ENDCHAR
STARTCHAR U+0354
ENCODING 852
SWIDTH 450 0
DWIDTH 9 0
BBX 9 20 0 -4
BITMAP
0000
0000
0000
0000
0000
0000
0000
0000
0000
0000
0000
0000
0000
0000
0000
0000
0000
0C00
3000
0C00
ENDCHAR
STARTCHAR U+0355
ENCODING 853
SWIDTH 450 0
DWIDTH 9 0
BBX 9 20 0 -4
BITMAP
0000
0000
0000
0000
0000
0000
0000
0000
0000
0000
0000
0000
0000
0000
0000
0000
0000
3000
0C00
3000
ENDCHAR
STARTCHAR U+0356
ENCODING 854
SWIDTH 450 0
DWIDTH 9 0
BBX 9 20 0 -4
BITMAP
0000
0000
0000
0000
0000
0000
0000
0000
0000
0000
0000
0000
0000
0000
0000
0000
0200
C200
3500
C500
ENDCHAR
STARTCHAR U+0357
ENCODING 855
SWIDTH 450 0
DWIDTH 9 0
BBX 9 20 0 -4
BITMAP
0000
0000
1800
0400
0400
1800
0000
0000
0000
0000
0000
0000
0000
0000
0000
0000
0000
0000
0000
0000
ENDCHAR
STARTCHAR U+0358
ENCODING 856
SWIDTH 450 0
DWIDTH 9 0
BBX 9 20 0 -4
BITMAP
0000
0000
0000
0000
0080
0080
0000
0000
0000
0000
0000
0000
0000
0000
0000
0000
0000
0000
0000
0000
ENDCHAR
STARTCHAR U+0359
ENCODING 857
SWIDTH 450 0
DWIDTH 9 0
BBX 9 20 0 -4
BITMAP
0000
0000
0000
0000
0000
0000
0000
0000
0000
0000
0000
0000
0000
0000
0000
0000
0000
2A00
1C00
2A00
ENDCHAR
STARTCHAR U+035A
ENCODING 858
SWIDTH 450 0
DWIDTH 9 0
BBX 9 20 0 -4
BITMAP
0000
0000
0000
0000
0000
0000
0000
0000
0000
0000
0000
0000
0000
0000
0000
0000
0000
3600
4900
3600
ENDCHAR
STARTCHAR U+035B
ENCODING 859
SWIDTH 450 0
DWIDTH 9 0
BBX 9 20 0 -4
BITMAP
0000
0400
0800
1E00
0400
0800
0000
0000
0000
0000
0000
0000
0000
0000
0000
0000
0000
0000
0000
0000
ENDCHAR
STARTCHAR U+035C
ENCODING 860
SWIDTH 450 0
DWIDTH 9 0
BBX 9 20 0 -4
BITMAP
0000
0000
0000
0000
0000
0000
0000
0000
0000
0000
0000
0000
0000
0000
0000
0000
0000
1000
0880
0700
ENDCHAR
STARTCHAR U+035D
ENCODING 861
SWIDTH 450 0
DWIDTH 9 0
BBX 9 20 0 -4
BITMAP
0000
0000
0000
1000
0880
0700
0000
0000
0000
0000
0000
0000
0000
0000
0000
0000
0000
0000
0000
0000
ENDCHAR
STARTCHAR U+035E
ENCODING 862
SWIDTH 450 0
DWIDTH 9 0
BBX 9 20 0 -4
BITMAP
0000
0000
0000
0000
0000
0F80
0000
0000
0000
0000
0000
0000
0000
0000
0000
0000
0000
0000
0000
0000
ENDCHAR
STARTCHAR U+035F
ENCODING 863
SWIDTH 450 0
DWIDTH 9 0
BBX 9 20 0 -4
BITMAP
0000
0000
0000
0000
0000
0000
0000
0000
0000
0000
0000
0000
0000
0000
0000
0000
0000
0F80
0000
0000
ENDCHAR
STARTCHAR U+0360
ENCODING 864
SWIDTH 450 0
DWIDTH 9 0
BBX 9 20 0 -4
BITMAP
0000
0000
0000
0000
0C80
1300
0000
0000
0000
0000
0000
0000
0000
0000
0000
0000
0000
0000
0000
0000
ENDCHAR
STARTCHAR U+0361
ENCODING 865
SWIDTH 450 0
DWIDTH 9 0
BBX 9 20 0 -4
BITMAP
0000
0000
0000
0700
0880
1000
0000
0000
0000
0000
0000
0000
0000
0000
0000
0000
0000
0000
0000
0000
ENDCHAR
STARTCHAR U+0362
ENCODING 866
SWIDTH 450 0
DWIDTH 9 0
BBX 9 20 0 -4
BITMAP
0000
0000
0000
0000
0000
0000
0000
0000
0000
0000
0000
0000
0000
0000
0000
0000
0000
0100
0F80
0100
ENDCHAR
STARTCHAR U+0363
ENCODING 867
SWIDTH 450 0
DWIDTH 9 0
BBX 9 20 0 -4
BITMAP
0000
1800
0400
1C00
2400
1C00
0000
0000
0000
0000
0000
0000
0000
0000
0000
0000
0000
0000
0000
0000
ENDCHAR
STARTCHAR U+0364
ENCODING 868
SWIDTH 450 0
DWIDTH 9 0
BBX 9 20 0 -4
BITMAP
0000
1800
2400
3C00
2000
1C00
0000
0000
0000
0000
0000
0000
0000
0000
0000
0000
0000
0000
0000
0000
ENDCHAR
STARTCHAR U+0365
ENCODING 869
SWIDTH 450 0
DWIDTH 9 0
BBX 9 20 0 -4
BITMAP
0000
0800
0000
1800
0800
1C00
0000
0000
0000
0000
0000
0000
0000
0000
0000
0000
0000
0000
0000
0000
ENDCHAR
STARTCHAR U+0366
ENCODING 870
SWIDTH 450 0
DWIDTH 9 0
BBX 9 20 0 -4
BITMAP
0000
1800
2400
2400
2400
1800
0000
0000
0000
0000
0000
0000
0000
0000
0000
0000
0000
0000
0000
0000
ENDCHAR
STARTCHAR U+0367
ENCODING 871
SWIDTH 450 0
DWIDTH 9 0
BBX 9 20 0 -4
BITMAP
0000
2400
2400
2400
2400
1C00
0000
0000
0000
0000
0000
0000
0000
0000
0000
0000
0000
0000
0000
0000
ENDCHAR
STARTCHAR U+0368
ENCODING 872
SWIDTH 450 0
DWIDTH 9 0
BBX 9 20 0 -4
BITMAP
0000
1800
2400
2000
2400
1800
0000
0000
0000
0000
0000
0000
0000
0000
0000
0000
0000
0000
0000
0000
ENDCHAR
STARTCHAR U+0369
ENCODING 873
SWIDTH 450 0
DWIDTH 9 0
BBX 9 20 0 -4
BITMAP
0000
0400
1C00
2400
2400
1C00
0000
0000
0000
0000
0000
0000
0000
0000
0000
0000
0000
0000
0000
0000
ENDCHAR
STARTCHAR U+036A
ENCODING 874
SWIDTH 450 0
DWIDTH 9 0
BBX 9 20 0 -4
BITMAP
0000
2000
3800
2400
2400
2400
0000
0000
0000
0000
0000
0000
0000
0000
0000
0000
0000
0000
0000
0000
ENDCHAR
STARTCHAR U+036B
ENCODING 875
SWIDTH 450 0
DWIDTH 9 0
BBX 9 20 0 -4
BITMAP
0000
3400
2A00
2A00
2A00
2A00
0000
0000
0000
0000
0000
0000
0000
0000
0000
0000
0000
0000
0000
0000
ENDCHAR
STARTCHAR U+036C
ENCODING 876
SWIDTH 450 0
DWIDTH 9 0
BBX 9 20 0 -4
BITMAP
0000
1400
1A00
1000
1000
1000
0000
0000
0000
0000
0000
0000
0000
0000
0000
0000
0000
0000
0000
0000
ENDCHAR
STARTCHAR U+036D
ENCODING 877
SWIDTH 450 0
DWIDTH 9 0
BBX 9 20 0 -4
BITMAP
0000
1000
3800
1000
1000
0C00
0000
0000
0000
0000
0000
0000
0000
0000
0000
0000
0000
0000
0000
0000
ENDCHAR
STARTCHAR U+036E
ENCODING 878
SWIDTH 450 0
DWIDTH 9 0
BBX 9 20 0 -4
BITMAP
0000
2200
2200
1400
1400
0800
0000
0000
0000
0000
0000
0000
0000
0000
0000
0000
0000
0000
0000
0000
ENDCHAR
STARTCHAR U+036F
ENCODING 879
SWIDTH 450 0
DWIDTH 9 0
BBX 9 20 0 -4
BITMAP
0000
2200
1400
0800
1400
2200
0000
0000
0000
0000
0000
0000
0000
0000
0000
0000
0000
0000
0000
0000
ENDCHAR
STARTCHAR U+0370
ENCODING 880
SWIDTH 450 0
DWIDTH 9 0
BBX 9 20 0 -4
BITMAP
0000
0000
0000
2000
2000
2000
2000
2000
2000
3F00
2000
2000
2000
2000
2000
2000
0000
0000
0000
0000
ENDCHAR
STARTCHAR U+0371
ENCODING 881
SWIDTH 450 0
DWIDTH 9 0
BBX 9 20 0 -4
BITMAP
0000
0000
0000
0000
0000
0000
0000
C000
2000
2000
2000
3F00
2000
2000
2000
2000
0000
0000
0000
0000
ENDCHAR
STARTCHAR U+0372
ENCODING 882
SWIDTH 450 0
DWIDTH 9 0
BBX 9 20 0 -4
BITMAP
0000
0000
0000
7F00
4900
4900
4900
0800
0800
0800
0800
0800
0800
0800
0800
0800
0000
0000
0000
0000
ENDCHAR
STARTCHAR U+0373
ENCODING 883
SWIDTH 450 0
DWIDTH 9 0
BBX 9 20 0 -4
BITMAP
0000
0000
0000
1E00
2A00
2A00
2A00
0800
0800
0800
0800
0800
0800
0800
0800
0800
0000
0000
0000
0000
ENDCHAR
STARTCHAR U+0374
ENCODING 884
SWIDTH 450 0
DWIDTH 9 0
BBX 9 20 0 -4
BITMAP
0000
0000
0000
0000
0400
0800
0000
0000
0000
0000
0000
0000
0000
0000
0000
0000
0000
0000
0000
0000
ENDCHAR
STARTCHAR U+0375
ENCODING 885
SWIDTH 450 0
DWIDTH 9 0
BBX 9 20 0 -4
BITMAP
0000
0000
0000
0000
0000
0000
0000
0000
0000
0000
0000
0000
0000
0000
0000
0000
0000
0800
1000
0000
ENDCHAR
STARTCHAR U+0376
ENCODING 886
SWIDTH 450 0
DWIDTH 9 0
BBX 9 20 0 -4
BITMAP
0000
0000
0000
4100
4100
4300
4300
4500
4500
4900
4900
5100
5100
6100
6100
4100
0000
0000
0000
0000
ENDCHAR
STARTCHAR U+0377
ENCODING 887
SWIDTH 450 0
DWIDTH 9 0
BBX 9 20 0 -4
BITMAP
0000
0000
0000
0000
0000
0000
0000
4100
4100
4300
4500
4900
5100
6100
4100
4080
0000
0000
0000
0000
ENDCHAR
STARTCHAR U+037A
ENCODING 890
SWIDTH 450 0
DWIDTH 9 0
BBX 9 20 0 -4
BITMAP
0000
0000
0000
0000
0000
0000
0000
0000
0000
0000
0000
0000
0000
0000
0000
0000
0000
0800
0800
0400
ENDCHAR
STARTCHAR U+037B
ENCODING 891
SWIDTH 450 0
DWIDTH 9 0
BBX 9 20 0 -4
BITMAP
0000
0000
0000
0000
0000
0000
0000
3C00
4200
0100
0100
0100
0100
0100
4200
3C00
0000
0000
0000
0000
ENDCHAR
STARTCHAR U+037C
ENCODING 892
SWIDTH 450 0
DWIDTH 9 0
BBX 9 20 0 -4
BITMAP
0000
0000
0000
0000
0000
0000
0000
1E00
2100
4000
4000
4C00
4000
4000
2100
1E00
0000
0000
0000
0000
ENDCHAR
STARTCHAR U+037D
ENCODING 893
SWIDTH 450 0
DWIDTH 9 0
BBX 9 20 0 -4
BITMAP
0000
0000
0000
0000
0000
0000
0000
3C00
4200
0100
0100
1900
0100
0100
4200
3C00
0000
0000
0000
0000
ENDCHAR
STARTCHAR U+037E
ENCODING 894
SWIDTH 450 0
DWIDTH 9 0
BBX 9 20 0 -4
BITMAP
0000
0000
0000
0000
0000
0000
0000
0800
0800
0000
0000
0000
0000
0000
0800
0800
1000
0000
0000
0000
ENDCHAR
STARTCHAR U+0384
ENCODING 900
SWIDTH 450 0
DWIDTH 9 0
BBX 9 20 0 -4
BITMAP
0000
0000
0000
0000
0400
0800
0000
0000
0000
0000
0000
0000
0000
0000
0000
0000
0000
0000
0000
0000
ENDCHAR
STARTCHAR U+0385
ENCODING 901
SWIDTH 450 0
DWIDTH 9 0
BBX 9 20 0 -4
BITMAP
0000
0000
0400
0800
2200
2200
0000
0000
0000
0000
0000
0000
0000
0000
0000
0000
0000
0000
0000
0000
ENDCHAR
STARTCHAR U+0386
ENCODING 902
SWIDTH 450 0
DWIDTH 9 0
BBX 9 20 0 -4
BITMAP
0000
0000
0000
4800
8800
1400
1400
1400
2200
2200
2200
2200
7F00
4100
4100
4100
0000
0000
0000
0000
ENDCHAR
STARTCHAR U+0387
ENCODING 903
SWIDTH 450 0
DWIDTH 9 0
BBX 9 20 0 -4
BITMAP
0000
0000
0000
0000
0000
0000
0000
0000
0000
0000
0800
0800
0000
0000
0000
0000
0000
0000
0000
0000
ENDCHAR
STARTCHAR U+0388
ENCODING 904
SWIDTH 450 0
DWIDTH 9 0
BBX 9 20 0 -4
BITMAP
0000
0000
0000
5F00
9000
1000
1000
1000
1000
1E00
1000
1000
1000
1000
1000
1F00
0000
0000
0000
0000
ENDCHAR
STARTCHAR U+0389
ENCODING 905
SWIDTH 450 0
DWIDTH 9 0
BBX 9 20 0 -4
BITMAP
0000
0000
0000
5100
9100
1100
1100
1100
1100
1F00
1100
1100
1100
1100
1100
1100
0000
0000
0000
0000
ENDCHAR
STARTCHAR U+038A
ENCODING 906
SWIDTH 450 0
DWIDTH 9 0
BBX 9 20 0 -4
BITMAP
0000
0000
0000
5C00
8800
0800
0800
0800
0800
0800
0800
0800
0800
0800
0800
1C00
0000
0000
0000
0000
ENDCHAR
STARTCHAR U+038C
ENCODING 908
SWIDTH 450 0
DWIDTH 9 0
BBX 9 20 0 -4
BITMAP
0000
0000
0000
4C00
9200
2100
2100
2100
2100
2100
2100
2100
2100
2100
1200
0C00
0000
0000
0000
0000
ENDCHAR
STARTCHAR U+038E
ENCODING 910
SWIDTH 450 0
DWIDTH 9 0
BBX 9 20 0 -4
BITMAP
0000
0000
0000
5100
9100
1100
0A00
0A00
0A00
0400
0400
0400
0400
0400
0400
0400
0000
0000
0000
0000
ENDCHAR
STARTCHAR U+038F
ENCODING 911
SWIDTH 450 0
DWIDTH 9 0
BBX 9 20 0 -4
BITMAP
0000
0000
0000
4E00
9100
1100
1100
1100
1100
1100
1100
1100
0A00
0A00
0A00
1B00
0000
0000
0000
0000
ENDCHAR
STARTCHAR U+0390
ENCODING 912
SWIDTH 450 0
DWIDTH 9 0
BBX 9 20 0 -4
BITMAP
0000
0000
0400
0800
2200
2200
0000
1800
0800
0800
0800
0800
0800
0800
0800
0600
0000
0000
0000
0000
ENDCHAR
STARTCHAR U+0391
ENCODING 913
SWIDTH 450 0
DWIDTH 9 0
BBX 9 20 0 -4
BITMAP
0000
0000
0000
0800
0800
1400
1400
1400
2200
2200
2200
2200
7F00
4100
4100
4100
0000
0000
0000
0000
ENDCHAR
STARTCHAR U+0392
ENCODING 914
SWIDTH 450 0
DWIDTH 9 0
BBX 9 20 0 -4
BITMAP
0000
0000
0000
7C00
4200
4100
4100
4200
7C00
4200
4100
4100
4100
4100
4200
7C00
0000
0000
0000
0000
ENDCHAR
STARTCHAR U+0393
ENCODING 915
SWIDTH 450 0
DWIDTH 9 0
BBX 9 20 0 -4
BITMAP
0000
0000
0000
7F00
4000
4000
4000
4000
4000
4000
4000
4000
4000
4000
4000
4000
0000
0000
0000
0000
ENDCHAR
STARTCHAR U+0394
ENCODING 916
SWIDTH 450 0
DWIDTH 9 0
BBX 9 20 0 -4
BITMAP
0000
0000
0000
0800
0800
0800
1400
1400
1400
2200
2200
2200
4100
4100
4100
7F00
0000
0000
0000
0000
ENDCHAR
STARTCHAR U+0395
ENCODING 917
SWIDTH 450 0
DWIDTH 9 0
BBX 9 20 0 -4
BITMAP
0000
0000
0000
7F00
4000
4000
4000
4000
4000
7C00
4000
4000
4000
4000
4000
7F00
0000
0000
0000
0000
ENDCHAR
STARTCHAR U+0396
ENCODING 918
SWIDTH 450 0
DWIDTH 9 0
BBX 9 20 0 -4
BITMAP
0000
0000
0000
7F00
0100
0100
0100
0200
0400
0800
1000
2000
4000
4000
4000
7F00
0000
0000
0000
0000
ENDCHAR
STARTCHAR U+0397
ENCODING 919
SWIDTH 450 0
DWIDTH 9 0
BBX 9 20 0 -4
BITMAP
0000
0000
0000
4100
4100
4100
4100
4100
4100
7F00
4100
4100
4100
4100
4100
4100
0000
0000
0000
0000
ENDCHAR
STARTCHAR U+0398
ENCODING 920
SWIDTH 450 0
DWIDTH 9 0
BBX 9 20 0 -4
BITMAP
0000
0000
0000
1C00
2200
4100
4100
4100
4100
5D00
4100
4100
4100
4100
2200
1C00
0000
0000
0000
0000
ENDCHAR
STARTCHAR U+0399
ENCODING 921
SWIDTH 450 0
DWIDTH 9 0
BBX 9 20 0 -4
BITMAP
0000
0000
0000
1C00
0800
0800
0800
0800
0800
0800
0800
0800
0800
0800
0800
1C00
0000
0000
0000
0000
ENDCHAR
STARTCHAR U+039A
ENCODING 922
SWIDTH 450 0
DWIDTH 9 0
BBX 9 20 0 -4
BITMAP
0000
0000
0000
4100
4100
4200
4400
4800
5000
6000
5000
4800
4400
4200
4100
4100
0000
0000
0000
0000
ENDCHAR
STARTCHAR U+039B
ENCODING 923
SWIDTH 450 0
DWIDTH 9 0
BBX 9 20 0 -4
BITMAP
0000
0000
0000
0800
0800
0800
1400
1400
1400
2200
2200
2200
4100
4100
4100
4100
0000
0000
0000
0000
ENDCHAR
STARTCHAR U+039C
ENCODING 924
SWIDTH 450 0
DWIDTH 9 0
BBX 9 20 0 -4
BITMAP
0000
0000
0000
4100
4100
6300
6300
5500
5500
4900
4900
4100
4100
4100
4100
4100
0000
0000
0000
0000
ENDCHAR
STARTCHAR U+039D
ENCODING 925
SWIDTH 450 0
DWIDTH 9 0
BBX 9 20 0 -4
BITMAP
0000
0000
0000
4100
4100
6100
6100
5100
5100
4900
4900
4500
4500
4300
4300
4100
0000
0000
0000
0000
ENDCHAR
STARTCHAR U+039E
ENCODING 926
SWIDTH 450 0
DWIDTH 9 0
BBX 9 20 0 -4
BITMAP
0000
0000
0000
7F00
0000
0000
0000
0000
0000
3E00
0000
0000
0000
0000
0000
7F00
0000
0000
0000
0000
ENDCHAR
STARTCHAR U+039F
ENCODING 927
SWIDTH 450 0
DWIDTH 9 0
BBX 9 20 0 -4
BITMAP
0000
0000
0000
1C00
2200
4100
4100
4100
4100
4100
4100
4100
4100
4100
2200
1C00
0000
0000
0000
0000
ENDCHAR
STARTCHAR U+03A0
ENCODING 928
SWIDTH 450 0
DWIDTH 9 0
BBX 9 20 0 -4
BITMAP
0000
0000
0000
7F00
4100
4100
4100
4100
4100
4100
4100
4100
4100
4100
4100
4100
0000
0000
0000
0000
ENDCHAR
STARTCHAR U+03A1
ENCODING 929
SWIDTH 450 0
DWIDTH 9 0
BBX 9 20 0 -4
BITMAP
0000
0000
0000
7C00
4200
4100
4100
4100
4100
4200
7C00
4000
4000
4000
4000
4000
0000
0000
0000
0000
ENDCHAR
STARTCHAR U+03A3
ENCODING 931
SWIDTH 450 0
DWIDTH 9 0
BBX 9 20 0 -4
BITMAP
0000
0000
0000
7F00
4000
2000
1000
0800
0400
0200
0400
0800
1000
2000
4000
7F00
0000
0000
0000
0000
ENDCHAR
STARTCHAR U+03A4
ENCODING 932
SWIDTH 450 0
DWIDTH 9 0
BBX 9 20 0 -4
BITMAP
0000
0000
0000
7F00
0800
0800
0800
0800
0800
0800
0800
0800
0800
0800
0800
0800
0000
0000
0000
0000
ENDCHAR
STARTCHAR U+03A5
ENCODING 933
SWIDTH 450 0
DWIDTH 9 0
BBX 9 20 0 -4
BITMAP
0000
0000
0000
4100
4100
2200
2200
1400
1400
0800
0800
0800
0800
0800
0800
0800
0000
0000
0000
0000
ENDCHAR
STARTCHAR U+03A6
ENCODING 934
SWIDTH 450 0
DWIDTH 9 0
BBX 9 20 0 -4
BITMAP
0000
0000
0000
1C00
2A00
4900
4900
4900
4900
4900
4900
2A00
1C00
0800
0800
0800
0000
0000
0000
0000
ENDCHAR
STARTCHAR U+03A7
ENCODING 935
SWIDTH 450 0
DWIDTH 9 0
BBX 9 20 0 -4
BITMAP
0000
0000
0000
4100
4100
2200
2200
1400
1400
0800
1400
1400
2200
2200
4100
4100
0000
0000
0000
0000
ENDCHAR
STARTCHAR U+03A8
ENCODING 936
SWIDTH 450 0
DWIDTH 9 0
BBX 9 20 0 -4
BITMAP
0000
0000
0000
4900
4900
4900
4900
4900
4900
3E00
0800
0800
0800
0800
0800
0800
0000
0000
0000
0000
ENDCHAR
STARTCHAR U+03A9
ENCODING 937
SWIDTH 450 0
DWIDTH 9 0
BBX 9 20 0 -4
BITMAP
0000
0000
0000
1C00
2200
4100
4100
4100
4100
4100
4100
4100
2200
1400
1400
7700
0000
0000
0000
0000
ENDCHAR
STARTCHAR U+03AA
ENCODING 938
SWIDTH 450 0
DWIDTH 9 0
BBX 9 20 0 -4
BITMAP
2200
2200
0000
1C00
0800
0800
0800
0800
0800
0800
0800
0800
0800
0800
0800
1C00
0000
0000
0000
0000
ENDCHAR
STARTCHAR U+03AB
ENCODING 939
SWIDTH 450 0
DWIDTH 9 0
BBX 9 20 0 -4
BITMAP
2200
2200
0000
4100
4100
2200
2200
1400
1400
0800
0800
0800
0800
0800
0800
0800
0000
0000
0000
0000
ENDCHAR
STARTCHAR U+03AC
ENCODING 940
SWIDTH 450 0
DWIDTH 9 0
BBX 9 20 0 -4
BITMAP
0000
0000
0000
0000
0400
0800
0000
1900
2500
4200
4200
4200
4200
4200
2500
1880
0000
0000
0000
0000
ENDCHAR
STARTCHAR U+03AD
ENCODING 941
SWIDTH 450 0
DWIDTH 9 0
BBX 9 20 0 -4
BITMAP
0000
0000
0000
0000
0400
0800
0000
1E00
2100
4000
2000
1C00
2000
4000
2100
1E00
0000
0000
0000
0000
ENDCHAR
STARTCHAR U+03AE
ENCODING 942
SWIDTH 450 0
DWIDTH 9 0
BBX 9 20 0 -4
BITMAP
0000
0000
0000
0000
0400
0800
0000
5C00
6200
4100
4100
4100
4100
4100
4100
4100
0100
0100
0100
0000
ENDCHAR
STARTCHAR U+03AF
ENCODING 943
SWIDTH 450 0
DWIDTH 9 0
BBX 9 20 0 -4
BITMAP
0000
0000
0000
0000
0400
0800
0000
1800
0800
0800
0800
0800
0800
0800
0800
0600
0000
0000
0000
0000
ENDCHAR
STARTCHAR U+03B0
ENCODING 944
SWIDTH 450 0
DWIDTH 9 0
BBX 9 20 0 -4
BITMAP
0000
0000
0400
0800
2200
2200
0000
4200
4200
4100
4100
4100
4100
4200
2200
1C00
0000
0000
0000
0000
ENDCHAR
STARTCHAR U+03B1
ENCODING 945
SWIDTH 450 0
DWIDTH 9 0
BBX 9 20 0 -4
BITMAP
0000
0000
0000
0000
0000
0000
0000
1900
2500
4200
4200
4200
4200
4200
2500
1880
0000
0000
0000
0000
ENDCHAR
STARTCHAR U+03B2
ENCODING 946
SWIDTH 450 0
DWIDTH 9 0
BBX 9 20 0 -4
BITMAP
0000
0000
0000
1800
2400
4200
4200
4400
7C00
4200
4100
4100
4100
4100
4200
7C00
4000
4000
4000
0000
ENDCHAR
STARTCHAR U+03B3
ENCODING 947
SWIDTH 450 0
DWIDTH 9 0
BBX 9 20 0 -4
BITMAP
0000
0000
0000
0000
0000
0000
0000
4100
4100
4100
2200
2200
2200
1400
1400
0800
0800
0800
0800
0000
ENDCHAR
STARTCHAR U+03B4
ENCODING 948
SWIDTH 450 0
DWIDTH 9 0
BBX 9 20 0 -4
BITMAP
0000
0000
0000
1C00
2000
1000
0800
1C00
2200
4100
4100
4100
4100
4100
2200
1C00
0000
0000
0000
0000
ENDCHAR
STARTCHAR U+03B5
ENCODING 949
SWIDTH 450 0
DWIDTH 9 0
BBX 9 20 0 -4
BITMAP
0000
0000
0000
0000
0000
0000
0000
1E00
2100
4000
2000
1C00
2000
4000
2100
1E00
0000
0000
0000
0000
ENDCHAR
STARTCHAR U+03B6
ENCODING 950
SWIDTH 450 0
DWIDTH 9 0
BBX 9 20 0 -4
BITMAP
0000
0000
0000
7F00
0200
0400
0800
1000
2000
4000
4000
4000
4000
4000
2000
1E00
0100
0100
0200
0000
ENDCHAR
STARTCHAR U+03B7
ENCODING 951
SWIDTH 450 0
DWIDTH 9 0
BBX 9 20 0 -4
BITMAP
0000
0000
0000
0000
0000
0000
0000
5C00
6200
4100
4100
4100
4100
4100
4100
4100
0100
0100
0100
0000
ENDCHAR
STARTCHAR U+03B8
ENCODING 952
SWIDTH 450 0
DWIDTH 9 0
BBX 9 20 0 -4
BITMAP
0000
0000
0000
1800
2400
4200
4200
4200
4200
7E00
4200
4200
4200
4200
2400
1800
0000
0000
0000
0000
ENDCHAR
STARTCHAR U+03B9
ENCODING 953
SWIDTH 450 0
DWIDTH 9 0
BBX 9 20 0 -4
BITMAP
0000
0000
0000
0000
0000
0000
0000
1800
0800
0800
0800
0800
0800
0800
0800
0600
0000
0000
0000
0000
ENDCHAR
STARTCHAR U+03BA
ENCODING 954
SWIDTH 450 0
DWIDTH 9 0
BBX 9 20 0 -4
BITMAP
0000
0000
0000
0000
0000
0000
0000
4100
4200
4400
4800
7000
4800
4400
4200
4100
0000
0000
0000
0000
ENDCHAR
STARTCHAR U+03BB
ENCODING 955
SWIDTH 450 0
DWIDTH 9 0
BBX 9 20 0 -4
BITMAP
0000
0000
0000
0000
6000
1000
1000
0800
0800
1400
1400
2200
2200
4100
4100
4100
0000
0000
0000
0000
ENDCHAR
STARTCHAR U+03BC
ENCODING 956
SWIDTH 450 0
DWIDTH 9 0
BBX 9 20 0 -4
BITMAP
0000
0000
0000
0000
0000
0000
0000
4100
4100
4100
4100
4100
4100
4100
6300
5D00
4000
4000
4000
0000
ENDCHAR
STARTCHAR U+03BD
ENCODING 957
SWIDTH 450 0
DWIDTH 9 0
BBX 9 20 0 -4
BITMAP
0000
0000
0000
0000
0000
0000
0000
4200
4100
4100
2200
2200
1400
1400
0800
0800
0000
0000
0000
0000
ENDCHAR
STARTCHAR U+03BE
ENCODING 958
SWIDTH 450 0
DWIDTH 9 0
BBX 9 20 0 -4
BITMAP
0000
0000
4000
3E00
4000
4000
4000
2000
1C00
2000
4000
4000
4000
4000
2000
1E00
0100
0100
0000
0000
ENDCHAR
STARTCHAR U+03BF
ENCODING 959
SWIDTH 450 0
DWIDTH 9 0
BBX 9 20 0 -4
BITMAP
0000
0000
0000
0000
0000
0000
0000
1C00
2200
4100
4100
4100
4100
4100
2200
1C00
0000
0000
0000
0000
ENDCHAR
STARTCHAR U+03C0
ENCODING 960
SWIDTH 450 0
DWIDTH 9 0
BBX 9 20 0 -4
BITMAP
0000
0000
0000
0000
0000
0000
0000
3F80
5200
1200
1200
1200
1200
1200
1200
2100
0000
0000
0000
0000
ENDCHAR
STARTCHAR U+03C1
ENCODING 961
SWIDTH 450 0
DWIDTH 9 0
BBX 9 20 0 -4
BITMAP
0000
0000
0000
0000
0000
0000
0000
1C00
2200
4100
4100
4100
4100
4100
6200
5C00
4000
4000
4000
0000
ENDCHAR
STARTCHAR U+03C2
ENCODING 962
SWIDTH 450 0
DWIDTH 9 0
BBX 9 20 0 -4
BITMAP
0000
0000
0000
0000
0000
0000
0000
1E00
2100
4000
4000
4000
4000
4000
2000
1E00
0100
0100
0000
0000
ENDCHAR
STARTCHAR U+03C3
ENCODING 963
SWIDTH 450 0
DWIDTH 9 0
BBX 9 20 0 -4
BITMAP
0000
0000
0000
0000
0000
0000
0000
1F80
2200
4100
4100
4100
4100
4100
2200
1C00
0000
0000
0000
0000
ENDCHAR
STARTCHAR U+03C4
ENCODING 964
SWIDTH 450 0
DWIDTH 9 0
BBX 9 20 0 -4
BITMAP
0000
0000
0000
0000
0000
0000
0000
3F00
4800
0800
0800
0800
0800
0800
0800
0600
0000
0000
0000
0000
ENDCHAR
STARTCHAR U+03C5
ENCODING 965
SWIDTH 450 0
DWIDTH 9 0
BBX 9 20 0 -4
BITMAP
0000
0000
0000
0000
0000
0000
0000
4200
4200
4100
4100
4100
4100
4200
2200
1C00
0000
0000
0000
0000
ENDCHAR
STARTCHAR U+03C6
ENCODING 966
SWIDTH 450 0
DWIDTH 9 0
BBX 9 20 0 -4
BITMAP
0000
0000
0000
0000
0000
0000
0000
2400
4A00
4900
4900
4900
4900
4900
2A00
1C00
0800
0800
0000
0000
ENDCHAR
STARTCHAR U+03C7
ENCODING 967
SWIDTH 450 0
DWIDTH 9 0
BBX 9 20 0 -4
BITMAP
0000
0000
0000
0000
0000
0000
0000
4100
4100
2200
2200
1400
0800
0800
1400
2200
2200
4100
4100
0000
ENDCHAR
STARTCHAR U+03C8
ENCODING 968
SWIDTH 450 0
DWIDTH 9 0
BBX 9 20 0 -4
BITMAP
0000
0000
0000
0000
0000
0000
0000
4900
4900
4900
4900
4900
4900
4900
2A00
1C00
0800
0800
0000
0000
ENDCHAR
STARTCHAR U+03C9
ENCODING 969
SWIDTH 450 0
DWIDTH 9 0
BBX 9 20 0 -4
BITMAP
0000
0000
0000
0000
0000
0000
0000
2200
4100
4100
4900
4900
4900
4900
4900
3600
0000
0000
0000
0000
ENDCHAR
STARTCHAR U+03CA
ENCODING 970
SWIDTH 450 0
DWIDTH 9 0
BBX 9 20 0 -4
BITMAP
0000
0000
0000
0000
2200
2200
0000
1800
0800
0800
0800
0800
0800
0800
0800
0600
0000
0000
0000
0000
ENDCHAR
STARTCHAR U+03CB
ENCODING 971
SWIDTH 450 0
DWIDTH 9 0
BBX 9 20 0 -4
BITMAP
0000
0000
0000
0000
2200
2200
0000
4200
4200
4100
4100
4100
4100
4200
2200
1C00
0000
0000
0000
0000
ENDCHAR
STARTCHAR U+03CC
ENCODING 972
SWIDTH 450 0
DWIDTH 9 0
BBX 9 20 0 -4
BITMAP
0000
0000
0000
0000
0400
0800
0000
1C00
2200
4100
4100
4100
4100
4100
2200
1C00
0000
0000
0000
0000
ENDCHAR
STARTCHAR U+03CD
ENCODING 973
SWIDTH 450 0
DWIDTH 9 0
BBX 9 20 0 -4
BITMAP
0000
0000
0000
0000
0400
0800
0000
4200
4200
4100
4100
4100
4100
4200
2200
1C00
0000
0000
0000
0000
ENDCHAR
STARTCHAR U+03CE
ENCODING 974
SWIDTH 450 0
DWIDTH 9 0
BBX 9 20 0 -4
BITMAP
0000
0000
0000
0000
0400
0800
0000
2200
4100
4100
4900
4900
4900
4900
4900
3600
0000
0000
0000
0000
ENDCHAR
STARTCHAR U+03CF
ENCODING 975
SWIDTH 450 0
DWIDTH 9 0
BBX 9 20 0 -4
BITMAP
0000
0000
0000
4100
4100
4200
4400
4800
5000
6000
5000
4800
4400
4200
4100
4100
0200
0400
0000
0000
ENDCHAR
STARTCHAR U+03D0
ENCODING 976
SWIDTH 450 0
DWIDTH 9 0
BBX 9 20 0 -4
BITMAP
0000
0000
0000
1E00
2100
3E00
4000
5C00
6200
4100
4100
4100
4100
4100
2200
1C00
0000
0000
0000
0000
ENDCHAR
STARTCHAR U+03D1
ENCODING 977
SWIDTH 450 0
DWIDTH 9 0
BBX 9 20 0 -4
BITMAP
0000
0000
0000
1C00
2200
2100
2100
1F80
C100
2100
2100
2100
2100
2100
2200
1C00
0000
0000
0000
0000
ENDCHAR
STARTCHAR U+03D2
ENCODING 978
SWIDTH 450 0
DWIDTH 9 0
BBX 9 20 0 -4
BITMAP
0000
0000
0000
4100
A280
2200
1400
1400
1400
0800
0800
0800
0800
0800
0800
0800
0000
0000
0000
0000
ENDCHAR
STARTCHAR U+03D3
ENCODING 979
SWIDTH 450 0
DWIDTH 9 0
BBX 9 20 0 -4
BITMAP
0000
0000
0000
4880
9500
0500
0500
0500
0500
0200
0200
0200
0200
0200
0200
0200
0000
0000
0000
0000
ENDCHAR
STARTCHAR U+03D4
ENCODING 980
SWIDTH 450 0
DWIDTH 9 0
BBX 9 20 0 -4
BITMAP
2200
2200
0000
4100
A280
2200
1400
1400
1400
0800
0800
0800
0800
0800
0800
0800
0000
0000
0000
0000
ENDCHAR
STARTCHAR U+03D5
ENCODING 981
SWIDTH 450 0
DWIDTH 9 0
BBX 9 20 0 -4
BITMAP
0000
0000
0000
0000
0000
0800
0800
1C00
2A00
4900
4900
4900
4900
4900
2A00
1C00
0800
0800
0000
0000
ENDCHAR
STARTCHAR U+03D6
ENCODING 982
SWIDTH 450 0
DWIDTH 9 0
BBX 9 20 0 -4
BITMAP
0000
0000
0000
0000
0000
0000
0080
7F00
A200
4100
4900
4900
4900
4900
4900
3600
0000
0000
0000
0000
ENDCHAR
STARTCHAR U+03D7
ENCODING 983
SWIDTH 450 0
DWIDTH 9 0
BBX 9 20 0 -4
BITMAP
0000
0000
0000
0000
0000
0000
0000
4100
2200
2200
2600
2A00
3200
2200
2200
4100
0100
0100
0600
0000
ENDCHAR
STARTCHAR U+03D8
ENCODING 984
SWIDTH 450 0
DWIDTH 9 0
BBX 9 20 0 -4
BITMAP
0000
0000
0000
1C00
2200
4100
4100
4100
4100
4100
4100
4100
4100
4100
2200
1C00
0800
0800
0000
0000
ENDCHAR
STARTCHAR U+03D9
ENCODING 985
SWIDTH 450 0
DWIDTH 9 0
BBX 9 20 0 -4
BITMAP
0000
0000
0000
0000
0000
0000
0000
1C00
2200
4100
4100
4100
4100
4100
2200
1C00
0800
0800
0000
0000
ENDCHAR
STARTCHAR U+03DA
ENCODING 986
SWIDTH 450 0
DWIDTH 9 0
BBX 9 20 0 -4
BITMAP
0000
0000
0000
1C00
2200
4100
4000
4000
4000
4000
4000
4000
4000
4000
2000
1800
0800
0800
0000
0000
ENDCHAR
STARTCHAR U+03DB
ENCODING 987
SWIDTH 450 0
DWIDTH 9 0
BBX 9 20 0 -4
BITMAP
0000
0000
0000
0000
0000
0000
0100
1E00
2000
4000
4000
4000
4000
4000
2000
1E00
0100
0100
0000
0000
ENDCHAR
STARTCHAR U+03DC
ENCODING 988
SWIDTH 450 0
DWIDTH 9 0
BBX 9 20 0 -4
BITMAP
0000
0000
0000
7F00
4000
4000
4000
4000
4000
7C00
4000
4000
4000
4000
4000
4000
0000
0000
0000
0000
ENDCHAR
STARTCHAR U+03DD
ENCODING 989
SWIDTH 450 0
DWIDTH 9 0
BBX 9 20 0 -4
BITMAP
0000
0000
0000
0000
0000
0000
0000
1F00
2000
2000
2000
2000
3F00
2000
2000
2000
2000
2000
2000
2000
ENDCHAR
STARTCHAR U+03DE
ENCODING 990
SWIDTH 450 0
DWIDTH 9 0
BBX 9 20 0 -4
BITMAP
0000
0000
0000
0800
1000
1000
2000
2000
4000
7F00
0100
0200
0200
0400
0400
0800
0000
0000
0000
0000
ENDCHAR
STARTCHAR U+03DF
ENCODING 991
SWIDTH 450 0
DWIDTH 9 0
BBX 9 20 0 -4
BITMAP
0000
0000
0000
0000
0000
0000
0000
4000
2000
2000
2100
2300
4500
5900
6200
4200
0200
0200
0100
0000
ENDCHAR
STARTCHAR U+03E0
ENCODING 992
SWIDTH 450 0
DWIDTH 9 0
BBX 9 20 0 -4
BITMAP
0000
0000
0000
7000
2C00
2200
2200
2600
0900
0900
0900
0900
0900
0900
0900
0900
0100
0100
0000
0000
ENDCHAR
STARTCHAR U+03E1
ENCODING 993
SWIDTH 450 0
DWIDTH 9 0
BBX 9 20 0 -4
BITMAP
0000
0000
0000
0000
0000
0000
0000
6000
1800
0400
0400
0600
0A00
1200
2500
4900
0100
0100
0000
0000
ENDCHAR
STARTCHAR U+03E2
ENCODING 994
SWIDTH 450 0
DWIDTH 9 0
BBX 9 20 0 -4
BITMAP
0000
0000
0000
2200
4100
4900
4900
4900
4900
4900
4900
4900
4900
4900
4900
3600
0400
0800
1000
0000
ENDCHAR
STARTCHAR U+03E3
ENCODING 995
SWIDTH 450 0
DWIDTH 9 0
BBX 9 20 0 -4
BITMAP
0000
0000
0000
0000
0000
0000
0000
2200
4100
4100
4900
4900
4900
4900
4900
3600
0400
0800
1000
0000
ENDCHAR
STARTCHAR U+03E4
ENCODING 996
SWIDTH 450 0
DWIDTH 9 0
BBX 9 20 0 -4
BITMAP
0000
0000
0000
1100
2100
4100
4100
4100
4100
4100
4100
4100
4100
4100
2300
1D00
0100
0100
0100
0000
ENDCHAR
STARTCHAR U+03E5
ENCODING 997
SWIDTH 450 0
DWIDTH 9 0
BBX 9 20 0 -4
BITMAP
0000
0000
0000
0000
0000
0000
0000
1100
2100
4100
4100
4100
4100
4100
2300
1D00
0100
0100
0100
0000
ENDCHAR
STARTCHAR U+03E6
ENCODING 998
SWIDTH 450 0
DWIDTH 9 0
BBX 9 20 0 -4
BITMAP
0000
0000
0000
4000
4000
4000
4000
5C00
6200
4100
4100
4100
4100
4100
4100
4100
0600
1800
0000
0000
ENDCHAR
STARTCHAR U+03E7
ENCODING 999
SWIDTH 450 0
DWIDTH 9 0
BBX 9 20 0 -4
BITMAP
0000
0000
0000
0000
0000
0000
0000
4000
4000
4000
5C00
6200
4100
4100
4100
4100
0100
0600
1800
0000
ENDCHAR
STARTCHAR U+03E8
ENCODING 1000
SWIDTH 450 0
DWIDTH 9 0
BBX 9 20 0 -4
BITMAP
0000
0000
0000
1C00
2200
4100
4100
0100
0100
0100
0200
0400
0800
1000
2000
4000
2100
1E00
0000
0000
ENDCHAR
STARTCHAR U+03E9
ENCODING 1001
SWIDTH 450 0
DWIDTH 9 0
BBX 9 20 0 -4
BITMAP
0000
0000
0000
0000
0000
0000
0000
1C00
2200
4100
0100
0100
0200
0C00
3000
4000
2100
1E00
0000
0000
ENDCHAR
STARTCHAR U+03EA
ENCODING 1002
SWIDTH 450 0
DWIDTH 9 0
BBX 9 20 0 -4
BITMAP
0000
0000
0000
4100
2200
2200
1400
1400
0800
0800
1400
1400
2200
2200
4100
7F00
0000
0000
0000
0000
ENDCHAR
STARTCHAR U+03EB
ENCODING 1003
SWIDTH 450 0
DWIDTH 9 0
BBX 9 20 0 -4
BITMAP
0000
0000
0000
0000
0000
0000
0000
6300
1400
1400
0800
1400
1400
2200
2200
7F00
0000
0000
0000
0000
ENDCHAR
STARTCHAR U+03EC
ENCODING 1004
SWIDTH 450 0
DWIDTH 9 0
BBX 9 20 0 -4
BITMAP
0000
0000
0000
1F00
2000
4000
4000
7C00
4200
4100
4100
4100
4100
4100
2200
1C00
0000
0000
0000
0000
ENDCHAR
STARTCHAR U+03ED
ENCODING 1005
SWIDTH 450 0
DWIDTH 9 0
BBX 9 20 0 -4
BITMAP
0000
0000
0000
0000
0000
0000
0000
1F00
2000
4000
7C00
4200
4100
4100
2200
1C00
0000
0000
0000
0000
ENDCHAR
STARTCHAR U+03EE
ENCODING 1006
SWIDTH 450 0
DWIDTH 9 0
BBX 9 20 0 -4
BITMAP
0000
0000
0000
0800
0800
7F00
4900
0800
0800
0800
0800
0800
0800
0800
0800
0800
0000
0000
0000
0000
ENDCHAR
STARTCHAR U+03EF
ENCODING 1007
SWIDTH 450 0
DWIDTH 9 0
BBX 9 20 0 -4
BITMAP
0000
0000
0000
0000
0000
0800
0800
7F00
4900
0800
0800
0800
0800
0800
0800
0800
0800
0800
0800
0000
ENDCHAR
STARTCHAR U+03F0
ENCODING 1008
SWIDTH 450 0
DWIDTH 9 0
BBX 9 20 0 -4
BITMAP
0000
0000
0000
0000
0000
0000
0000
4100
2200
2200
2600
2A00
3200
2200
2200
4100
0000
0000
0000
0000
ENDCHAR
STARTCHAR U+03F1
ENCODING 1009
SWIDTH 450 0
DWIDTH 9 0
BBX 9 20 0 -4
BITMAP
0000
0000
0000
0000
0000
0000
0000
1C00
2200
4100
4100
4100
4100
4100
6200
5C00
4000
2000
1E00
0000
ENDCHAR
STARTCHAR U+03F2
ENCODING 1010
SWIDTH 450 0
DWIDTH 9 0
BBX 9 20 0 -4
BITMAP
0000
0000
0000
0000
0000
0000
0000
1E00
2100
4000
4000
4000
4000
4000
2100
1E00
0000
0000
0000
0000
ENDCHAR
STARTCHAR U+03F3
ENCODING 1011
SWIDTH 450 0
DWIDTH 9 0
BBX 9 20 0 -4
BITMAP
0000
0000
0000
0000
0800
0800
0000
0800
0800
0800
0800
0800
0800
0800
0800
0800
0800
0800
3000
0000
ENDCHAR
STARTCHAR U+03F4
ENCODING 1012
SWIDTH 450 0
DWIDTH 9 0
BBX 9 20 0 -4
BITMAP
0000
0000
0000
1C00
2200
4100
4100
4100
4100
7F00
4100
4100
4100
4100
2200
1C00
0000
0000
0000
0000
ENDCHAR
STARTCHAR U+03F5
ENCODING 1013
SWIDTH 450 0
DWIDTH 9 0
BBX 9 20 0 -4
BITMAP
0000
0000
0000
0000
0000
0000
0000
1E00
2000
4000
4000
7E00
4000
4000
2000
1E00
0000
0000
0000
0000
ENDCHAR
STARTCHAR U+03F6
ENCODING 1014
SWIDTH 450 0
DWIDTH 9 0
BBX 9 20 0 -4
BITMAP
0000
0000
0000
0000
0000
0000
0000
3C00
0200
0100
0100
3F00
0100
0100
0200
3C00
0000
0000
0000
0000
ENDCHAR
STARTCHAR U+03F7
ENCODING 1015
SWIDTH 450 0
DWIDTH 9 0
BBX 9 20 0 -4
BITMAP
0000
0000
0000
4000
4000
7C00
4200
4100
4100
4100
4100
4200
7C00
4000
4000
4000
0000
0000
0000
0000
ENDCHAR
STARTCHAR U+03F8
ENCODING 1016
SWIDTH 450 0
DWIDTH 9 0
BBX 9 20 0 -4
BITMAP
0000
0000
0000
0000
0000
4000
4000
5C00
6200
4100
4100
4100
4100
4100
6200
5C00
4000
4000
4000
0000
ENDCHAR
STARTCHAR U+03F9
ENCODING 1017
SWIDTH 450 0
DWIDTH 9 0
BBX 9 20 0 -4
BITMAP
0000
0000
0000
1C00
2200
4100
4000
4000
4000
4000
4000
4000
4000
4100
2200
1C00
0000
0000
0000
0000
ENDCHAR
STARTCHAR U+03FA
ENCODING 1018
SWIDTH 450 0
DWIDTH 9 0
BBX 9 20 0 -4
BITMAP
0000
0000
0000
4100
4100
6300
6300
5500
5500
4900
4900
4100
4100
4100
4100
4100
0000
0000
0000
0000
ENDCHAR
STARTCHAR U+03FB
ENCODING 1019
SWIDTH 450 0
DWIDTH 9 0
BBX 9 20 0 -4
BITMAP
0000
0000
0000
0000
0000
0000
0000
4100
4100
6300
6300
5500
5500
4900
4900
4100
4000
4000
4000
0000
ENDCHAR
STARTCHAR U+03FC
ENCODING 1020
SWIDTH 450 0
DWIDTH 9 0
BBX 9 20 0 -4
BITMAP
0000
0000
0000
0000
0000
0000
0000
1C00
2200
4100
4100
4100
4100
4100
6200
5C00
4000
F800
4000
0000
ENDCHAR
STARTCHAR U+03FD
ENCODING 1021
SWIDTH 450 0
DWIDTH 9 0
BBX 9 20 0 -4
BITMAP
0000
0000
0000
1C00
2200
4100
0100
0100
0100
0100
0100
0100
0100
4100
2200
1C00
0000
0000
0000
0000
ENDCHAR
STARTCHAR U+03FE
ENCODING 1022
SWIDTH 450 0
DWIDTH 9 0
BBX 9 20 0 -4
BITMAP
0000
0000
0000
1C00
2200
4100
4000
4000
4000
4800
4000
4000
4000
4100
2200
1C00
0000
0000
0000
0000
ENDCHAR
STARTCHAR U+03FF
ENCODING 1023
SWIDTH 450 0
DWIDTH 9 0
BBX 9 20 0 -4
BITMAP
0000
0000
0000
1C00
2200
4100
0100
0100
0100
0900
0100
0100
0100
4100
2200
1C00
0000
0000
0000
0000
ENDCHAR
STARTCHAR U+0400
ENCODING 1024
SWIDTH 450 0
DWIDTH 9 0
BBX 9 20 0 -4
BITMAP
1000
0800
0000
7F00
4000
4000
4000
4000
4000
7C00
4000
4000
4000
4000
4000
7F00
0000
0000
0000
0000
ENDCHAR
STARTCHAR U+0401
ENCODING 1025
SWIDTH 450 0
DWIDTH 9 0
BBX 9 20 0 -4
BITMAP
2200
2200
0000
7F00
4000
4000
4000
4000
4000
7C00
4000
4000
4000
4000
4000
7F00
0000
0000
0000
0000
ENDCHAR
STARTCHAR U+0402
ENCODING 1026
SWIDTH 450 0
DWIDTH 9 0
BBX 9 20 0 -4
BITMAP
0000
0000
0000
F800
2000
2000
2000
2C00
3200
2100
2100
2100
2100
2100
2200
2400
0000
0000
0000
0000
ENDCHAR
STARTCHAR U+0403
ENCODING 1027
SWIDTH 450 0
DWIDTH 9 0
BBX 9 20 0 -4
BITMAP
0400
0800
0000
7F00
4000
4000
4000
4000
4000
4000
4000
4000
4000
4000
4000
4000
0000
0000
0000
0000
ENDCHAR
STARTCHAR U+0404
ENCODING 1028
SWIDTH 450 0
DWIDTH 9 0
BBX 9 20 0 -4
BITMAP
0000
0000
0000
1C00
2200
4100
4000
4000
4000
7C00
4000
4000
4000
4100
2200
1C00
0000
0000
0000
0000
ENDCHAR
STARTCHAR U+0405
ENCODING 1029
SWIDTH 450 0
DWIDTH 9 0
BBX 9 20 0 -4
BITMAP
0000
0000
0000
1C00
2200
4100
4000
4000
2000
1C00
0200
0100
0100
4100
2200
1C00
0000
0000
0000
0000
ENDCHAR
STARTCHAR U+0406
ENCODING 1030
SWIDTH 450 0
DWIDTH 9 0
BBX 9 20 0 -4
BITMAP
0000
0000
0000
1C00
0800
0800
0800
0800
0800
0800
0800
0800
0800
0800
0800
1C00
0000
0000
0000
0000
ENDCHAR
STARTCHAR U+0407
ENCODING 1031
SWIDTH 450 0
DWIDTH 9 0
BBX 9 20 0 -4
BITMAP
2200
2200
0000
1C00
0800
0800
0800
0800
0800
0800
0800
0800
0800
0800
0800
1C00
0000
0000
0000
0000
ENDCHAR
STARTCHAR U+0408
ENCODING 1032
SWIDTH 450 0
DWIDTH 9 0
BBX 9 20 0 -4
BITMAP
0000
0000
0000
0100
0100
0100
0100
0100
0100
0100
0100
0100
0100
4100
2200
1C00
0000
0000
0000
0000
ENDCHAR
STARTCHAR U+0409
ENCODING 1033
SWIDTH 450 0
DWIDTH 9 0
BBX 9 20 0 -4
BITMAP
0000
0000
0000
1800
2800
4800
4800
4800
4C00
4A00
4900
4900
4900
4900
4A00
8C00
0000
0000
0000
0000
ENDCHAR
STARTCHAR U+040A
ENCODING 1034
SWIDTH 450 0
DWIDTH 9 0
BBX 9 20 0 -4
BITMAP
0000
0000
0000
4800
4800
4800
4800
4800
4800
7C00
4A00
4900
4900
4900
4A00
4C00
0000
0000
0000
0000
ENDCHAR
STARTCHAR U+040B
ENCODING 1035
SWIDTH 450 0
DWIDTH 9 0
BBX 9 20 0 -4
BITMAP
0000
0000
0000
F800
2000
2000
2000
2C00
3200
2100
2100
2100
2100
2100
2100
2100
0000
0000
0000
0000
ENDCHAR
STARTCHAR U+040C
ENCODING 1036
SWIDTH 450 0
DWIDTH 9 0
BBX 9 20 0 -4
BITMAP
0400
0800
0000
4100
4100
4200
4400
4800
5000
6000
5000
4800
4400
4200
4100
4100
0000
0000
0000
0000
ENDCHAR
STARTCHAR U+040D
ENCODING 1037
SWIDTH 450 0
DWIDTH 9 0
BBX 9 20 0 -4
BITMAP
1000
0800
0000
4100
4100
4300
4300
4500
4500
4900
4900
5100
5100
6100
6100
4100
0000
0000
0000
0000
ENDCHAR
STARTCHAR U+040E
ENCODING 1038
SWIDTH 450 0
DWIDTH 9 0
BBX 9 20 0 -4
BITMAP
2200
1C00
0000
4100
4100
4100
4200
2200
2200
2400
1C00
0400
0800
0800
1000
6000
0000
0000
0000
0000
ENDCHAR
STARTCHAR U+040F
ENCODING 1039
SWIDTH 450 0
DWIDTH 9 0
BBX 9 20 0 -4
BITMAP
0000
0000
0000
4100
4100
4100
4100
4100
4100
4100
4100
4100
4100
4100
4100
7F00
0800
0800
0000
0000
ENDCHAR
STARTCHAR U+0410
ENCODING 1040
SWIDTH 450 0
DWIDTH 9 0
BBX 9 20 0 -4
BITMAP
0000
0000
0000
0800
0800
1400
1400
1400
2200
2200
2200
2200
7F00
4100
4100
4100
0000
0000
0000
0000
ENDCHAR
STARTCHAR U+0411
ENCODING 1041
SWIDTH 450 0
DWIDTH 9 0
BBX 9 20 0 -4
BITMAP
0000
0000
0000
7E00
4000
4000
4000
4000
7C00
4200
4100
4100
4100
4100
4200
7C00
0000
0000
0000
0000
ENDCHAR
STARTCHAR U+0412
ENCODING 1042
SWIDTH 450 0
DWIDTH 9 0
BBX 9 20 0 -4
BITMAP
0000
0000
0000
7C00
4200
4100
4100
4200
7C00
4200
4100
4100
4100
4100
4200
7C00
0000
0000
0000
0000
ENDCHAR
STARTCHAR U+0413
ENCODING 1043
SWIDTH 450 0
DWIDTH 9 0
BBX 9 20 0 -4
BITMAP
0000
0000
0000
7F00
4000
4000
4000
4000
4000
4000
4000
4000
4000
4000
4000
4000
0000
0000
0000
0000
ENDCHAR
STARTCHAR U+0414
ENCODING 1044
SWIDTH 450 0
DWIDTH 9 0
BBX 9 20 0 -4
BITMAP
0000
0000
0000
0E00
1200
2200
2200
2200
2200
2200
2200
2200
2200
2200
2200
7F00
4100
4100
0000
0000
ENDCHAR
STARTCHAR U+0415
ENCODING 1045
SWIDTH 450 0
DWIDTH 9 0
BBX 9 20 0 -4
BITMAP
0000
0000
0000
7F00
4000
4000
4000
4000
4000
7C00
4000
4000
4000
4000
4000
7F00
0000
0000
0000
0000
ENDCHAR
STARTCHAR U+0416
ENCODING 1046
SWIDTH 450 0
DWIDTH 9 0
BBX 9 20 0 -4
BITMAP
0000
0000
0000
4900
4900
4900
2A00
2A00
2A00
1C00
2A00
2A00
2A00
4900
4900
4900
0000
0000
0000
0000
ENDCHAR
STARTCHAR U+0417
ENCODING 1047
SWIDTH 450 0
DWIDTH 9 0
BBX 9 20 0 -4
BITMAP
0000
0000
0000
1C00
2200
4100
0100
0200
1C00
0200
0100
0100
0100
4100
2200
1C00
0000
0000
0000
0000
ENDCHAR
STARTCHAR U+0418
ENCODING 1048
SWIDTH 450 0
DWIDTH 9 0
BBX 9 20 0 -4
BITMAP
0000
0000
0000
4100
4100
4300
4300
4500
4500
4900
4900
5100
5100
6100
6100
4100
0000
0000
0000
0000
ENDCHAR
STARTCHAR U+0419
ENCODING 1049
SWIDTH 450 0
DWIDTH 9 0
BBX 9 20 0 -4
BITMAP
2200
1C00
0000
4100
4100
4300
4300
4500
4500
4900
4900
5100
5100
6100
6100
4100
0000
0000
0000
0000
ENDCHAR
STARTCHAR U+041A
ENCODING 1050
SWIDTH 450 0
DWIDTH 9 0
BBX 9 20 0 -4
BITMAP
0000
0000
0000
4100
4100
4200
4400
4800
5000
6000
5000
4800
4400
4200
4100
4100
0000
0000
0000
0000
ENDCHAR
STARTCHAR U+041B
ENCODING 1051
SWIDTH 450 0
DWIDTH 9 0
BBX 9 20 0 -4
BITMAP
0000
0000
0000
0F00
1100
2100
2100
2100
2100
2100
2100
2100
2100
2100
2100
4100
0000
0000
0000
0000
ENDCHAR
STARTCHAR U+041C
ENCODING 1052
SWIDTH 450 0
DWIDTH 9 0
BBX 9 20 0 -4
BITMAP
0000
0000
0000
4100
4100
6300
6300
5500
5500
4900
4900
4100
4100
4100
4100
4100
0000
0000
0000
0000
ENDCHAR
STARTCHAR U+041D
ENCODING 1053
SWIDTH 450 0
DWIDTH 9 0
BBX 9 20 0 -4
BITMAP
0000
0000
0000
4100
4100
4100
4100
4100
4100
7F00
4100
4100
4100
4100
4100
4100
0000
0000
0000
0000
ENDCHAR
STARTCHAR U+041E
ENCODING 1054
SWIDTH 450 0
DWIDTH 9 0
BBX 9 20 0 -4
BITMAP
0000
0000
0000
1C00
2200
4100
4100
4100
4100
4100
4100
4100
4100
4100
2200
1C00
0000
0000
0000
0000
ENDCHAR
STARTCHAR U+041F
ENCODING 1055
SWIDTH 450 0
DWIDTH 9 0
BBX 9 20 0 -4
BITMAP
0000
0000
0000
7F00
4100
4100
4100
4100
4100
4100
4100
4100
4100
4100
4100
4100
0000
0000
0000
0000
ENDCHAR
STARTCHAR U+0420
ENCODING 1056
SWIDTH 450 0
DWIDTH 9 0
BBX 9 20 0 -4
BITMAP
0000
0000
0000
7C00
4200
4100
4100
4100
4100
4200
7C00
4000
4000
4000
4000
4000
0000
0000
0000
0000
ENDCHAR
STARTCHAR U+0421
ENCODING 1057
SWIDTH 450 0
DWIDTH 9 0
BBX 9 20 0 -4
BITMAP
0000
0000
0000
1C00
2200
4100
4000
4000
4000
4000
4000
4000
4000
4100
2200
1C00
0000
0000
0000
0000
ENDCHAR
STARTCHAR U+0422
ENCODING 1058
SWIDTH 450 0
DWIDTH 9 0
BBX 9 20 0 -4
BITMAP
0000
0000
0000
7F00
0800
0800
0800
0800
0800
0800
0800
0800
0800
0800
0800
0800
0000
0000
0000
0000
ENDCHAR
STARTCHAR U+0423
ENCODING 1059
SWIDTH 450 0
DWIDTH 9 0
BBX 9 20 0 -4
BITMAP
0000
0000
0000
4100
4100
4100
4200
2200
2200
2400
1C00
0400
0800
0800
1000
6000
0000
0000
0000
0000
ENDCHAR
STARTCHAR U+0424
ENCODING 1060
SWIDTH 450 0
DWIDTH 9 0
BBX 9 20 0 -4
BITMAP
0000
0000
0000
1C00
2A00
4900
4900
4900
4900
4900
4900
2A00
1C00
0800
0800
0800
0000
0000
0000
0000
ENDCHAR
STARTCHAR U+0425
ENCODING 1061
SWIDTH 450 0
DWIDTH 9 0
BBX 9 20 0 -4
BITMAP
0000
0000
0000
4100
4100
2200
2200
1400
1400
0800
1400
1400
2200
2200
4100
4100
0000
0000
0000
0000
ENDCHAR
STARTCHAR U+0426
ENCODING 1062
SWIDTH 450 0
DWIDTH 9 0
BBX 9 20 0 -4
BITMAP
0000
0000
0000
4200
4200
4200
4200
4200
4200
4200
4200
4200
4200
4200
4200
7F00
0100
0100
0000
0000
ENDCHAR
STARTCHAR U+0427
ENCODING 1063
SWIDTH 450 0
DWIDTH 9 0
BBX 9 20 0 -4
BITMAP
0000
0000
0000
4100
4100
4100
4100
4100
4100
2100
1F00
0100
0100
0100
0100
0100
0000
0000
0000
0000
ENDCHAR
STARTCHAR U+0428
ENCODING 1064
SWIDTH 450 0
DWIDTH 9 0
BBX 9 20 0 -4
BITMAP
0000
0000
0000
4900
4900
4900
4900
4900
4900
4900
4900
4900
4900
4900
4900
7F00
0000
0000
0000
0000
ENDCHAR
STARTCHAR U+0429
ENCODING 1065
SWIDTH 450 0
DWIDTH 9 0
BBX 9 20 0 -4
BITMAP
0000
0000
0000
4900
4900
4900
4900
4900
4900
4900
4900
4900
4900
4900
4900
7F80
0080
0080
0000
0000
ENDCHAR
STARTCHAR U+042A
ENCODING 1066
SWIDTH 450 0
DWIDTH 9 0
BBX 9 20 0 -4
BITMAP
0000
0000
0000
E000
2000
2000
2000
2000
3C00
2200
2100
2100
2100
2100
2200
3C00
0000
0000
0000
0000
ENDCHAR
STARTCHAR U+042B
ENCODING 1067
SWIDTH 450 0
DWIDTH 9 0
BBX 9 20 0 -4
BITMAP
0000
0000
0000
4100
4100
4100
4100
4100
7100
4900
4500
4500
4500
4500
4900
7100
0000
0000
0000
0000
ENDCHAR
STARTCHAR U+042C
ENCODING 1068
SWIDTH 450 0
DWIDTH 9 0
BBX 9 20 0 -4
BITMAP
0000
0000
0000
4000
4000
4000
4000
4000
7C00
4200
4100
4100
4100
4100
4200
7C00
0000
0000
0000
0000
ENDCHAR
STARTCHAR U+042D
ENCODING 1069
SWIDTH 450 0
DWIDTH 9 0
BBX 9 20 0 -4
BITMAP
0000
0000
0000
1C00
2200
4100
0100
0100
0100
1F00
0100
0100
0100
4100
2200
1C00
0000
0000
0000
0000
ENDCHAR
STARTCHAR U+042E
ENCODING 1070
SWIDTH 450 0
DWIDTH 9 0
BBX 9 20 0 -4
BITMAP
0000
0000
0000
4600
4900
4900
4900
4900
4900
7900
4900
4900
4900
4900
4900
4600
0000
0000
0000
0000
ENDCHAR
STARTCHAR U+042F
ENCODING 1071
SWIDTH 450 0
DWIDTH 9 0
BBX 9 20 0 -4
BITMAP
0000
0000
0000
1F00
2100
4100
4100
4100
4100
2100
1F00
1100
2100
2100
4100
4100
0000
0000
0000
0000
ENDCHAR
STARTCHAR U+0430
ENCODING 1072
SWIDTH 450 0
DWIDTH 9 0
BBX 9 20 0 -4
BITMAP
0000
0000
0000
0000
0000
0000
0000
1E00
2100
0100
1F00
2100
4100
4100
2300
1D00
0000
0000
0000
0000
ENDCHAR
STARTCHAR U+0431
ENCODING 1073
SWIDTH 450 0
DWIDTH 9 0
BBX 9 20 0 -4
BITMAP
0000
0000
0000
1E00
2000
4000
4000
5C00
6200
4100
4100
4100
4100
4100
2200
1C00
0000
0000
0000
0000
ENDCHAR
STARTCHAR U+0432
ENCODING 1074
SWIDTH 450 0
DWIDTH 9 0
BBX 9 20 0 -4
BITMAP
0000
0000
0000
0000
0000
0000
0000
7C00
4200
4100
4200
7C00
4200
4100
4200
7C00
0000
0000
0000
0000
ENDCHAR
STARTCHAR U+0433
ENCODING 1075
SWIDTH 450 0
DWIDTH 9 0
BBX 9 20 0 -4
BITMAP
0000
0000
0000
0000
0000
0000
0000
7F00
4000
4000
4000
4000
4000
4000
4000
4000
0000
0000
0000
0000
ENDCHAR
STARTCHAR U+0434
ENCODING 1076
SWIDTH 450 0
DWIDTH 9 0
BBX 9 20 0 -4
BITMAP
0000
0000
0000
0000
0000
0000
0000
0E00
1200
2200
2200
2200
2200
2200
2200
7F00
4100
4100
0000
0000
ENDCHAR
STARTCHAR U+0435
ENCODING 1077
SWIDTH 450 0
DWIDTH 9 0
BBX 9 20 0 -4
BITMAP
0000
0000
0000
0000
0000
0000
0000
1C00
2200
4100
4100
7F00
4000
4000
2100
1E00
0000
0000
0000
0000
ENDCHAR
STARTCHAR U+0436
ENCODING 1078
SWIDTH 450 0
DWIDTH 9 0
BBX 9 20 0 -4
BITMAP
0000
0000
0000
0000
0000
0000
0000
4900
4900
2A00
2A00
1C00
2A00
2A00
4900
4900
0000
0000
0000
0000
ENDCHAR
STARTCHAR U+0437
ENCODING 1079
SWIDTH 450 0
DWIDTH 9 0
BBX 9 20 0 -4
BITMAP
0000
0000
0000
0000
0000
0000
0000
3C00
4200
0100
0200
1C00
0200
0100
4200
3C00
0000
0000
0000
0000
ENDCHAR
STARTCHAR U+0438
ENCODING 1080
SWIDTH 450 0
DWIDTH 9 0
BBX 9 20 0 -4
BITMAP
0000
0000
0000
0000
0000
0000
0000
4100
4100
4300
4500
4900
5100
6100
4100
4100
0000
0000
0000
0000
ENDCHAR
STARTCHAR U+0439
ENCODING 1081
SWIDTH 450 0
DWIDTH 9 0
BBX 9 20 0 -4
BITMAP
0000
0000
0000
0000
2200
1C00
0000
4100
4100
4300
4500
4900
5100
6100
4100
4100
0000
0000
0000
0000
ENDCHAR
STARTCHAR U+043A
ENCODING 1082
SWIDTH 450 0
DWIDTH 9 0
BBX 9 20 0 -4
BITMAP
0000
0000
0000
0000
0000
0000
0000
4100
4200
4400
4800
7000
4800
4400
4200
4100
0000
0000
0000
0000
ENDCHAR
STARTCHAR U+043B
ENCODING 1083
SWIDTH 450 0
DWIDTH 9 0
BBX 9 20 0 -4
BITMAP
0000
0000
0000
0000
0000
0000
0000
0F00
1100
2100
2100
2100
2100
2100
2100
4100
0000
0000
0000
0000
ENDCHAR
STARTCHAR U+043C
ENCODING 1084
SWIDTH 450 0
DWIDTH 9 0
BBX 9 20 0 -4
BITMAP
0000
0000
0000
0000
0000
0000
0000
4100
4100
6300
6300
5500
5500
4900
4900
4100
0000
0000
0000
0000
ENDCHAR
STARTCHAR U+043D
ENCODING 1085
SWIDTH 450 0
DWIDTH 9 0
BBX 9 20 0 -4
BITMAP
0000
0000
0000
0000
0000
0000
0000
4100
4100
4100
4100
7F00
4100
4100
4100
4100
0000
0000
0000
0000
ENDCHAR
STARTCHAR U+043E
ENCODING 1086
SWIDTH 450 0
DWIDTH 9 0
BBX 9 20 0 -4
BITMAP
0000
0000
0000
0000
0000
0000
0000
1C00
2200
4100
4100
4100
4100
4100
2200
1C00
0000
0000
0000
0000
ENDCHAR
STARTCHAR U+043F
ENCODING 1087
SWIDTH 450 0
DWIDTH 9 0
BBX 9 20 0 -4
BITMAP
0000
0000
0000
0000
0000
0000
0000
7F00
4100
4100
4100
4100
4100
4100
4100
4100
0000
0000
0000
0000
ENDCHAR
STARTCHAR U+0440
ENCODING 1088
SWIDTH 450 0
DWIDTH 9 0
BBX 9 20 0 -4
BITMAP
0000
0000
0000
0000
0000
0000
0000
5C00
6200
4100
4100
4100
4100
4100
6200
5C00
4000
4000
4000
0000
ENDCHAR
STARTCHAR U+0441
ENCODING 1089
SWIDTH 450 0
DWIDTH 9 0
BBX 9 20 0 -4
BITMAP
0000
0000
0000
0000
0000
0000
0000
1E00
2100
4000
4000
4000
4000
4000
2100
1E00
0000
0000
0000
0000
ENDCHAR
STARTCHAR U+0442
ENCODING 1090
SWIDTH 450 0
DWIDTH 9 0
BBX 9 20 0 -4
BITMAP
0000
0000
0000
0000
0000
0000
0000
7F00
0800
0800
0800
0800
0800
0800
0800
0800
0000
0000
0000
0000
ENDCHAR
STARTCHAR U+0443
ENCODING 1091
SWIDTH 450 0
DWIDTH 9 0
BBX 9 20 0 -4
BITMAP
0000
0000
0000
0000
0000
0000
0000
4100
4100
4100
2200
2200
1400
1400
0800
0800
1000
1000
6000
0000
ENDCHAR
STARTCHAR U+0444
ENCODING 1092
SWIDTH 450 0
DWIDTH 9 0
BBX 9 20 0 -4
BITMAP
0000
0000
0000
0000
0000
0800
0800
1C00
2A00
4900
4900
4900
4900
4900
2A00
1C00
0800
0800
0000
0000
ENDCHAR
STARTCHAR U+0445
ENCODING 1093
SWIDTH 450 0
DWIDTH 9 0
BBX 9 20 0 -4
BITMAP
0000
0000
0000
0000
0000
0000
0000
4100
4100
2200
1400
0800
1400
2200
4100
4100
0000
0000
0000
0000
ENDCHAR
STARTCHAR U+0446
ENCODING 1094
SWIDTH 450 0
DWIDTH 9 0
BBX 9 20 0 -4
BITMAP
0000
0000
0000
0000
0000
0000
0000
4200
4200
4200
4200
4200
4200
4200
4200
7F00
0100
0100
0000
0000
ENDCHAR
STARTCHAR U+0447
ENCODING 1095
SWIDTH 450 0
DWIDTH 9 0
BBX 9 20 0 -4
BITMAP
0000
0000
0000
0000
0000
0000
0000
4100
4100
4100
4100
2100
1F00
0100
0100
0100
0000
0000
0000
0000
ENDCHAR
STARTCHAR U+0448
ENCODING 1096
SWIDTH 450 0
DWIDTH 9 0
BBX 9 20 0 -4
BITMAP
0000
0000
0000
0000
0000
0000
0000
4900
4900
4900
4900
4900
4900
4900
4900
7F00
0000
0000
0000
0000
ENDCHAR
STARTCHAR U+0449
ENCODING 1097
SWIDTH 450 0
DWIDTH 9 0
BBX 9 20 0 -4
BITMAP
0000
0000
0000
0000
0000
0000
0000
4900
4900
4900
4900
4900
4900
4900
4900
7F80
0080
0080
0000
0000
ENDCHAR
STARTCHAR U+044A
ENCODING 1098
SWIDTH 450 0
DWIDTH 9 0
BBX 9 20 0 -4
BITMAP
0000
0000
0000
0000
0000
0000
0000
E000
2000
2000
3C00
2200
2100
2100
2200
3C00
0000
0000
0000
0000
ENDCHAR
STARTCHAR U+044B
ENCODING 1099
SWIDTH 450 0
DWIDTH 9 0
BBX 9 20 0 -4
BITMAP
0000
0000
0000
0000
0000
0000
0000
4100
4100
4100
7100
4900
4500
4500
4900
7100
0000
0000
0000
0000
ENDCHAR
STARTCHAR U+044C
ENCODING 1100
SWIDTH 450 0
DWIDTH 9 0
BBX 9 20 0 -4
BITMAP
0000
0000
0000
0000
0000
0000
0000
4000
4000
4000
7C00
4200
4100
4100
4200
7C00
0000
0000
0000
0000
ENDCHAR
STARTCHAR U+044D
ENCODING 1101
SWIDTH 450 0
DWIDTH 9 0
BBX 9 20 0 -4
BITMAP
0000
0000
0000
0000
0000
0000
0000
3C00
4200
0100
0100
1F00
0100
0100
4200
3C00
0000
0000
0000
0000
ENDCHAR
STARTCHAR U+044E
ENCODING 1102
SWIDTH 450 0
DWIDTH 9 0
BBX 9 20 0 -4
BITMAP
0000
0000
0000
0000
0000
0000
0000
4600
4900
4900
4900
7900
4900
4900
4900
4600
0000
0000
0000
0000
ENDCHAR
STARTCHAR U+044F
ENCODING 1103
SWIDTH 450 0
DWIDTH 9 0
BBX 9 20 0 -4
BITMAP
0000
0000
0000
0000
0000
0000
0000
1F00
2100
4100
4100
2100
1F00
2100
2100
4100
0000
0000
0000
0000
ENDCHAR
STARTCHAR U+0450
ENCODING 1104
SWIDTH 450 0
DWIDTH 9 0
BBX 9 20 0 -4
BITMAP
0000
0000
0000
0000
1000
0800
0000
1C00
2200
4100
4100
7F00
4000
4000
2100
1E00
0000
0000
0000
0000
ENDCHAR
STARTCHAR U+0451
ENCODING 1105
SWIDTH 450 0
DWIDTH 9 0
BBX 9 20 0 -4
BITMAP
0000
0000
0000
0000
2200
2200
0000
1C00
2200
4100
4100
7F00
4000
4000
2100
1E00
0000
0000
0000
0000
ENDCHAR
STARTCHAR U+0452
ENCODING 1106
SWIDTH 450 0
DWIDTH 9 0
BBX 9 20 0 -4
BITMAP
0000
0000
0000
4000
4000
F800
4000
5C00
6200
4100
4100
4100
4100
4100
4100
4100
0100
0100
0600
0000
ENDCHAR
STARTCHAR U+0453
ENCODING 1107
SWIDTH 450 0
DWIDTH 9 0
BBX 9 20 0 -4
BITMAP
0000
0000
0000
0000
0400
0800
0000
7F00
4000
4000
4000
4000
4000
4000
4000
4000
0000
0000
0000
0000
ENDCHAR
STARTCHAR U+0454
ENCODING 1108
SWIDTH 450 0
DWIDTH 9 0
BBX 9 20 0 -4
BITMAP
0000
0000
0000
0000
0000
0000
0000
1E00
2100
4000
4000
7C00
4000
4000
2100
1E00
0000
0000
0000
0000
ENDCHAR
STARTCHAR U+0455
ENCODING 1109
SWIDTH 450 0
DWIDTH 9 0
BBX 9 20 0 -4
BITMAP
0000
0000
0000
0000
0000
0000
0000
3E00
4100
4000
4000
3E00
0100
0100
4100
3E00
0000
0000
0000
0000
ENDCHAR
STARTCHAR U+0456
ENCODING 1110
SWIDTH 450 0
DWIDTH 9 0
BBX 9 20 0 -4
BITMAP
0000
0000
0000
0000
0800
0800
0000
1800
0800
0800
0800
0800
0800
0800
0800
0800
0000
0000
0000
0000
ENDCHAR
STARTCHAR U+0457
ENCODING 1111
SWIDTH 450 0
DWIDTH 9 0
BBX 9 20 0 -4
BITMAP
0000
0000
0000
0000
2400
2400
0000
1800
0800
0800
0800
0800
0800
0800
0800
0800
0000
0000
0000
0000
ENDCHAR
STARTCHAR U+0458
ENCODING 1112
SWIDTH 450 0
DWIDTH 9 0
BBX 9 20 0 -4
BITMAP
0000
0000
0000
0000
0800
0800
0000
0800
0800
0800
0800
0800
0800
0800
0800
0800
0800
0800
7000
0000
ENDCHAR
STARTCHAR U+0459
ENCODING 1113
SWIDTH 450 0
DWIDTH 9 0
BBX 9 20 0 -4
BITMAP
0000
0000
0000
0000
0000
0000
0000
1800
2800
4800
4E00
4900
4900
4900
4900
4E00
0000
0000
0000
0000
ENDCHAR
STARTCHAR U+045A
ENCODING 1114
SWIDTH 450 0
DWIDTH 9 0
BBX 9 20 0 -4
BITMAP
0000
0000
0000
0000
0000
0000
0000
4800
4800
4800
4E00
7900
4900
4900
4900
4E00
0000
0000
0000
0000
ENDCHAR
STARTCHAR U+045B
ENCODING 1115
SWIDTH 450 0
DWIDTH 9 0
BBX 9 20 0 -4
BITMAP
0000
0000
0000
4000
4000
F800
4000
5C00
6200
4100
4100
4100
4100
4100
4100
4100
0000
0000
0000
0000
ENDCHAR
STARTCHAR U+045C
ENCODING 1116
SWIDTH 450 0
DWIDTH 9 0
BBX 9 20 0 -4
BITMAP
0000
0000
0000
0000
0400
0800
0000
4100
4200
4400
4800
7000
4800
4400
4200
4100
0000
0000
0000
0000
ENDCHAR
STARTCHAR U+045D
ENCODING 1117
SWIDTH 450 0
DWIDTH 9 0
BBX 9 20 0 -4
BITMAP
0000
0000
0000
0000
1000
0800
0000
4100
4100
4300
4500
4900
5100
6100
4100
4100
0000
0000
0000
0000
ENDCHAR
STARTCHAR U+045E
ENCODING 1118
SWIDTH 450 0
DWIDTH 9 0
BBX 9 20 0 -4
BITMAP
0000
0000
0000
0000
2200
1C00
0000
4100
4100
4100
2200
2200
1400
1400
0800
0800
1000
1000
6000
0000
ENDCHAR
STARTCHAR U+045F
ENCODING 1119
SWIDTH 450 0
DWIDTH 9 0
BBX 9 20 0 -4
BITMAP
0000
0000
0000
0000
0000
0000
0000
4100
4100
4100
4100
4100
4100
4100
4100
7F00
0800
0800
0000
0000
ENDCHAR
STARTCHAR U+0460
ENCODING 1120
SWIDTH 450 0
DWIDTH 9 0
BBX 9 20 0 -4
BITMAP
0000
0000
0000
2200
4100
4900
4900
4900
4900
4900
4900
4900
4900
4900
4900
3600
0000
0000
0000
0000
ENDCHAR
STARTCHAR U+0461
ENCODING 1121
SWIDTH 450 0
DWIDTH 9 0
BBX 9 20 0 -4
BITMAP
0000
0000
0000
0000
0000
0000
0000
2200
4100
4100
4900
4900
4900
4900
4900
3600
0000
0000
0000
0000
ENDCHAR
STARTCHAR U+0462
ENCODING 1122
SWIDTH 450 0
DWIDTH 9 0
BBX 9 20 0 -4
BITMAP
0000
0000
0000
2000
F800
2000
2000
2000
3C00
2200
2100
2100
2100
2100
2200
3C00
0000
0000
0000
0000
ENDCHAR
STARTCHAR U+0463
ENCODING 1123
SWIDTH 450 0
DWIDTH 9 0
BBX 9 20 0 -4
BITMAP
0000
0000
0000
2000
2000
2000
2000
F800
2000
2000
3C00
2200
2100
2100
2200
3C00
0000
0000
0000
0000
ENDCHAR
STARTCHAR U+0464
ENCODING 1124
SWIDTH 450 0
DWIDTH 9 0
BBX 9 20 0 -4
BITMAP
0000
0000
0000
4600
4900
4800
4800
4800
4800
7E00
4800
4800
4800
4800
4900
4600
0000
0000
0000
0000
ENDCHAR
STARTCHAR U+0465
ENCODING 1125
SWIDTH 450 0
DWIDTH 9 0
BBX 9 20 0 -4
BITMAP
0000
0000
0000
0000
0000
0000
0000
4600
4900
4800
4800
7E00
4800
4800
4900
4600
0000
0000
0000
0000
ENDCHAR
STARTCHAR U+0466
ENCODING 1126
SWIDTH 450 0
DWIDTH 9 0
BBX 9 20 0 -4
BITMAP
0000
0000
0000
0800
0800
1400
1400
1400
2200
2200
2200
3E00
4900
4900
4900
4900
0000
0000
0000
0000
ENDCHAR
STARTCHAR U+0467
ENCODING 1127
SWIDTH 450 0
DWIDTH 9 0
BBX 9 20 0 -4
BITMAP
0000
0000
0000
0000
0000
0000
0000
0800
0800
1400
1400
2200
2200
3E00
4900
4900
0000
0000
0000
0000
ENDCHAR
STARTCHAR U+0468
ENCODING 1128
SWIDTH 450 0
DWIDTH 9 0
BBX 9 20 0 -4
BITMAP
0000
0000
0000
8400
8400
8A00
8A00
8A00
9100
9100
9100
FF00
A480
A480
A480
A480
0000
0000
0000
0000
ENDCHAR
STARTCHAR U+0469
ENCODING 1129
SWIDTH 450 0
DWIDTH 9 0
BBX 9 20 0 -4
BITMAP
0000
0000
0000
0000
0000
0000
0000
8400
8400
8A00
8A00
9100
9100
FF00
A480
A480
0000
0000
0000
0000
ENDCHAR
STARTCHAR U+046A
ENCODING 1130
SWIDTH 450 0
DWIDTH 9 0
BBX 9 20 0 -4
BITMAP
0000
0000
0000
7F00
4100
2200
2200
1400
0800
1C00
2A00
2A00
4900
4900
4900
4900
0000
0000
0000
0000
ENDCHAR
STARTCHAR U+046B
ENCODING 1131
SWIDTH 450 0
DWIDTH 9 0
BBX 9 20 0 -4
BITMAP
0000
0000
0000
0000
0000
0000
0000
7F00
4100
2200
1400
1C00
2A00
2A00
4900
4900
0000
0000
0000
0000
ENDCHAR
STARTCHAR U+046C
ENCODING 1132
SWIDTH 450 0
DWIDTH 9 0
BBX 9 20 0 -4
BITMAP
0000
0000
0000
BF80
A080
9100
9100
8A00
8400
FE00
9500
9500
A480
A480
A480
A480
0000
0000
0000
0000
ENDCHAR
STARTCHAR U+046D
ENCODING 1133
SWIDTH 450 0
DWIDTH 9 0
BBX 9 20 0 -4
BITMAP
0000
0000
0000
0000
0000
0000
0000
BF80
A080
9100
8A00
FE00
9500
9500
A480
A480
0000
0000
0000
0000
ENDCHAR
STARTCHAR U+046E
ENCODING 1134
SWIDTH 450 0
DWIDTH 9 0
BBX 9 20 0 -4
BITMAP
0000
1400
0800
1C00
2200
4100
0100
0100
0200
1C00
0200
0100
0100
0100
0200
3C00
4000
4000
3C00
0000
ENDCHAR
STARTCHAR U+046F
ENCODING 1135
SWIDTH 450 0
DWIDTH 9 0
BBX 9 20 0 -4
BITMAP
0000
0000
0000
0000
0000
1400
0800
3C00
4200
0100
0200
1C00
0200
0100
0200
3C00
4000
4000
3C00
0000
ENDCHAR
STARTCHAR U+0470
ENCODING 1136
SWIDTH 450 0
DWIDTH 9 0
BBX 9 20 0 -4
BITMAP
0000
0000
0000
4900
4900
4900
4900
4900
2A00
2A00
2A00
2A00
3E00
0800
0800
0800
0000
0000
0000
0000
ENDCHAR
STARTCHAR U+0471
ENCODING 1137
SWIDTH 450 0
DWIDTH 9 0
BBX 9 20 0 -4
BITMAP
0000
0000
0000
0000
0000
0800
0800
4900
4900
4900
4900
2A00
2A00
2A00
2A00
3E00
0800
0800
0800
0000
ENDCHAR
STARTCHAR U+0472
ENCODING 1138
SWIDTH 450 0
DWIDTH 9 0
BBX 9 20 0 -4
BITMAP
0000
0000
0000
1C00
2200
4100
4100
4100
4100
7F00
4100
4100
4100
4100
2200
1C00
0000
0000
0000
0000
ENDCHAR
STARTCHAR U+0473
ENCODING 1139
SWIDTH 450 0
DWIDTH 9 0
BBX 9 20 0 -4
BITMAP
0000
0000
0000
0000
0000
0000
0000
1C00
2200
4100
4100
7F00
4100
4100
2200
1C00
0000
0000
0000
0000
ENDCHAR
STARTCHAR U+0474
ENCODING 1140
SWIDTH 450 0
DWIDTH 9 0
BBX 9 20 0 -4
BITMAP
0000
0000
0000
4080
4100
4100
4100
2200
2200
2200
2200
1400
1400
1400
0800
0800
0000
0000
0000
0000
ENDCHAR
STARTCHAR U+0475
ENCODING 1141
SWIDTH 450 0
DWIDTH 9 0
BBX 9 20 0 -4
BITMAP
0000
0000
0000
0000
0000
0000
0000
4080
4100
4100
2200
2200
1400
1400
0800
0800
0000
0000
0000
0000
ENDCHAR
STARTCHAR U+0476
ENCODING 1142
SWIDTH 450 0
DWIDTH 9 0
BBX 9 20 0 -4
BITMAP
0900
1200
0000
4080
4100
4100
4100
2200
2200
2200
2200
1400
1400
1400
0800
0800
0000
0000
0000
0000
ENDCHAR
STARTCHAR U+0477
ENCODING 1143
SWIDTH 450 0
DWIDTH 9 0
BBX 9 20 0 -4
BITMAP
0000
0000
0000
0000
0900
1200
0000
4080
4100
4100
2200
2200
1400
1400
0800
0800
0000
0000
0000
0000
ENDCHAR
STARTCHAR U+0478
ENCODING 1144
SWIDTH 450 0
DWIDTH 9 0
BBX 9 20 0 -4
BITMAP
0000
0000
0000
6000
9000
9000
9000
9500
9500
9500
9500
9500
9500
9200
9200
6200
0400
0400
0400
0000
ENDCHAR
STARTCHAR U+0479
ENCODING 1145
SWIDTH 450 0
DWIDTH 9 0
BBX 9 20 0 -4
BITMAP
0000
0000
0000
0000
0000
0000
0000
2500
5500
5500
5500
5500
5500
5200
5200
2200
0400
0400
0400
0000
ENDCHAR
STARTCHAR U+047A
ENCODING 1146
SWIDTH 450 0
DWIDTH 9 0
BBX 9 20 0 -4
BITMAP
0000
0000
0800
1C00
2A00
4100
4100
4100
4100
4100
4100
4100
4100
4100
2A00
1C00
0800
0000
0000
0000
ENDCHAR
STARTCHAR U+047B
ENCODING 1147
SWIDTH 450 0
DWIDTH 9 0
BBX 9 20 0 -4
BITMAP
0000
0000
0000
0000
0000
0000
0800
1C00
2A00
4100
4100
4100
4100
4100
2A00
1C00
0800
0000
0000
0000
ENDCHAR
STARTCHAR U+047C
ENCODING 1148
SWIDTH 450 0
DWIDTH 9 0
BBX 9 20 0 -4
BITMAP
0E00
3100
0400
0400
0800
2200
4100
4100
4100
4100
4100
4100
4100
4100
4900
3600
0000
0000
0000
0000
ENDCHAR
STARTCHAR U+047D
ENCODING 1149
SWIDTH 450 0
DWIDTH 9 0
BBX 9 20 0 -4
BITMAP
0000
0000
0000
0E00
3100
0400
0400
0800
2200
4100
4100
4100
4100
4100
4900
3600
0000
0000
0000
0000
ENDCHAR
STARTCHAR U+047E
ENCODING 1150
SWIDTH 450 0
DWIDTH 9 0
BBX 9 20 0 -4
BITMAP
3E00
2A00
0000
2200
4100
4900
4900
4900
4900
4900
4900
4900
4900
4900
4900
3600
0000
0000
0000
0000
ENDCHAR
STARTCHAR U+047F
ENCODING 1151
SWIDTH 450 0
DWIDTH 9 0
BBX 9 20 0 -4
BITMAP
0000
0000
0000
0000
3E00
2A00
0000
2200
4100
4100
4900
4900
4900
4900
4900
3600
0000
0000
0000
0000
ENDCHAR
STARTCHAR U+0480
ENCODING 1152
SWIDTH 450 0
DWIDTH 9 0
BBX 9 20 0 -4
BITMAP
0000
0000
0000
1C00
2200
4100
4000
4000
4000
4000
4000
4000
4000
4000
2000
1E00
0200
0200
0000
0000
ENDCHAR
STARTCHAR U+0481
ENCODING 1153
SWIDTH 450 0
DWIDTH 9 0
BBX 9 20 0 -4
BITMAP
0000
0000
0000
0000
0000
0000
0000
1E00
2100
4000
4000
4000
4000
4000
2000
1C00
0400
0400
0000
0000
ENDCHAR
STARTCHAR U+0482
ENCODING 1154
SWIDTH 450 0
DWIDTH 9 0
BBX 9 20 0 -4
BITMAP
0000
0000
0000
0000
0000
0000
0000
0000
0200
1C00
0700
0800
0800
7000
1C00
2000
0000
0000
0000
0000
ENDCHAR
STARTCHAR U+0483
ENCODING 1155
SWIDTH 450 0
DWIDTH 9 0
BBX 9 20 0 -4
BITMAP
0000
0000
0000
0200
1C00
2000
0000
0000
0000
0000
0000
0000
0000
0000
0000
0000
0000
0000
0000
0000
ENDCHAR
STARTCHAR U+0484
ENCODING 1156
SWIDTH 450 0
DWIDTH 9 0
BBX 9 20 0 -4
BITMAP
0000
0000
0000
0000
0700
0880
0000
0000
0000
0000
0000
0000
0000
0000
0000
0000
0000
0000
0000
0000
ENDCHAR
STARTCHAR U+0485
ENCODING 1157
SWIDTH 450 0
DWIDTH 9 0
BBX 9 20 0 -4
BITMAP
0000
0000
0000
0C00
1000
0800
0000
0000
0000
0000
0000
0000
0000
0000
0000
0000
0000
0000
0000
0000
ENDCHAR
STARTCHAR U+0486
ENCODING 1158
SWIDTH 450 0
DWIDTH 9 0
BBX 9 20 0 -4
BITMAP
0000
0000
0000
1800
0400
0800
0000
0000
0000
0000
0000
0000
0000
0000
0000
0000
0000
0000
0000
0000
ENDCHAR
STARTCHAR U+0487
ENCODING 1159
SWIDTH 450 0
DWIDTH 9 0
BBX 9 20 0 -4
BITMAP
0000
0000
0000
0000
3800
4700
0000
0000
0000
0000
0000
0000
0000
0000
0000
0000
0000
0000
0000
0000
ENDCHAR
STARTCHAR U+0488
ENCODING 1160
SWIDTH 450 0
DWIDTH 9 0
BBX 9 20 0 -4
BITMAP
0000
0000
0000
0000
0000
0000
0000
0800
1400
4100
A280
0000
4100
A280
0800
1400
0000
0000
0000
0000
ENDCHAR
STARTCHAR U+0489
ENCODING 1161
SWIDTH 450 0
DWIDTH 9 0
BBX 9 20 0 -4
BITMAP
0000
0000
0000
0000
0000
0400
4800
4980
2200
8000
6300
0080
2200
C900
0900
1000
0000
0000
0000
0000
ENDCHAR
STARTCHAR U+048A
ENCODING 1162
SWIDTH 450 0
DWIDTH 9 0
BBX 9 20 0 -4
BITMAP
2200
1C00
0000
4100
4100
4300
4300
4500
4500
4900
4900
5100
5100
6100
6100
4180
0100
0200
0000
0000
ENDCHAR
STARTCHAR U+048B
ENCODING 1163
SWIDTH 450 0
DWIDTH 9 0
BBX 9 20 0 -4
BITMAP
0000
0000
0000
0000
2200
1C00
0000
4100
4100
4300
4500
4900
5100
6100
4100
4180
0100
0200
0000
0000
ENDCHAR
ENDFONT
